<?xml version="1.0" encoding="utf-8"?>
<!-- Generator: Adobe Illustrator 19.2.0, SVG Export Plug-In . SVG Version: 6.00 Build 0)  -->
<svg version="1.1" id="Layer_1" xmlns="http://www.w3.org/2000/svg" xmlns:xlink="http://www.w3.org/1999/xlink" x="0px" y="0px"
	 width="72px" height="28px" viewBox="0 0 72 28" style="enable-background:new 0 0 72 28;" xml:space="preserve">
<style type="text/css">
	.st0{fill:#FAAD4D;}
	.st1{fill:#162D3D;}
</style>
<g id="XMLID_145_">
	<g id="XMLID_146_">
		<g id="XMLID_249_">
			<path id="XMLID_253_" class="st0" d="M41.2,0.5c-1.4,0.7-2,2-2,5.5c0,0,0.7-0.7,1.8-1.1c0.8-0.3,1.4-0.7,1.8-1
				c1.2-0.9,1.4-2,1.4-3.9C44.2,0,42.3-0.1,41.2,0.5z"/>
			<path id="XMLID_252_" class="st1" d="M32.7,1.3c-1.2,1-1.5,2.7-1.5,2.7l-3.9,14.9L24.2,6.7c-0.3-1.3-0.9-2.9-1.8-4
				c-1.1-1.4-3.4-1.5-3.7-1.5c-0.2,0-2.5,0.1-3.7,1.5c-0.9,1.1-1.5,2.7-1.8,4l-3.2,12.2L6.2,4c0,0-0.3-1.6-1.5-2.7C2.8-0.3,0,0,0,0
				l7.4,27.9c0,0,2.4,0.2,3.6-0.4c1.6-0.8,2.4-1.4,3.3-5.2c0.9-3.4,3.3-13.3,3.5-14C18,7.9,18.1,7,18.7,7c0.6,0,0.8,0.8,0.9,1.2
				c0.2,0.7,2.6,10.6,3.5,14c1,3.8,1.7,4.4,3.3,5.2c1.2,0.6,3.6,0.4,3.6,0.4L37.4,0C37.4,0,34.6-0.3,32.7,1.3z"/>
			<path id="XMLID_251_" class="st1" d="M44.2,4.6c0,0-0.5,0.7-1.5,1.3c-0.7,0.4-1.3,0.6-2,1C39.5,7.4,39.2,8,39.2,9v0.3v1.5v0v0.3
				v16.8c0,0,1.9,0.2,3.1-0.4c1.6-0.8,1.9-1.6,1.9-5V5.6l0,0V4.6z"/>
			<path id="XMLID_250_" class="st1" d="M62.6,14L72,0.1c0,0-3.9-0.7-5.9,1.1c-1.3,1.1-2.6,3.2-2.6,3.2l-3.4,5
				c-0.2,0.3-0.4,0.5-0.7,0.5c-0.3,0-0.6-0.3-0.7-0.5l-3.4-5c0,0-1.4-2-2.6-3.2c-2-1.8-5.9-1.1-5.9-1.1L55.9,14l-9.3,13.9
				c0,0,4.1,0.5,6.1-1.3c1.3-1.1,2.5-3,2.5-3l3.4-5c0.2-0.3,0.4-0.5,0.7-0.5c0.3,0,0.6,0.3,0.7,0.5l3.4,5c0,0,1.3,1.9,2.5,3
				c2,1.8,6,1.3,6,1.3L62.6,14z"/>
		</g>
	</g>
</g>
</svg>
