<?xml version="1.0" encoding="utf-8"?>
<!-- Generator: Adobe Illustrator 16.0.0, SVG Export Plug-In . SVG Version: 6.00 Build 0)  -->
<!DOCTYPE svg PUBLIC "-//W3C//DTD SVG 1.1//EN" "http://www.w3.org/Graphics/SVG/1.1/DTD/svg11.dtd">
<svg version="1.1" id="图层_1" xmlns="http://www.w3.org/2000/svg" xmlns:xlink="http://www.w3.org/1999/xlink" x="0px" y="0px"
	 width="352.394px" height="171.618px" viewBox="0 0 352.394 171.618" enable-background="new 0 0 352.394 171.618"
	 xml:space="preserve">
<g>
	<g>
		<linearGradient id="SVGID_1_" gradientUnits="userSpaceOnUse" x1="54.3257" y1="48.5518" x2="72.1563" y2="48.5518">
			<stop  offset="0" style="stop-color:#53C1E9"/>
			<stop  offset="1" style="stop-color:#3FABDD"/>
		</linearGradient>
		<path fill="url(#SVGID_1_)" d="M60.404,54.145l3.359-0.343c0.371-0.122,0.988-0.32,2.985-1.586
			c0.161-0.102,0.202-0.161,0.327-0.668c0.143-0.558,0.143-0.558,1.313-1.264c0.412-0.245,1.018-0.487,1.54-0.245
			c0.188,0.088,0.271,0.127,0.442,0.005c0.162-0.11,0.162-0.11,0.751-0.9l0.208-0.785l0.825-2.35
			c-0.825-1.776-1.033-1.901-3.02-3.065c-0.24-0.044-0.24-0.044-0.923,0.792c-0.122,0.14-0.122,0.14-1.069,0.434
			c-0.715,0.223-1.307,0.733-2.074,0.827c-0.528,0.062-0.894-0.403-1.397-0.413c-0.933-0.016-1.667,0.709-2.597,0.673
			c-0.146-0.01-0.146-0.01-1.296-0.451c-0.949-0.362-0.949-0.362-0.96-0.387c-0.257-0.459-0.376-0.667-0.667-0.644
			c-0.01,0-0.022,0-0.029,0.003c-0.399,0.118-0.603,0.299-1.241,1.333c-0.183,0.289-0.183,0.289-1.546,1.248
			c-1.016,1.185-0.723,1.729,0.863,1.61c0.604-0.042,0.644,0.46,0.644,0.47c0.242,0.091,0.609-0.065,0.722,0.281
			c-0.149,0.203-0.202,0.281-0.977,0.489c-3.756,1.023-1.737,1.682-1.593,1.661c0.622-0.121,1.147-0.614,1.84-0.426l0.141,1.498
			c-0.179,0.756-0.728,1.348-0.972,2.074c0.2,0.299,0.2,0.299,3.124-1.138c0.646-0.315,0.717,0.045,0.698,0.399
			C59.812,53.613,59.785,54.166,60.404,54.145z"/>
		<linearGradient id="SVGID_2_" gradientUnits="userSpaceOnUse" x1="24.5479" y1="103.501" x2="140.585" y2="103.501">
			<stop  offset="0" style="stop-color:#53C1E9"/>
			<stop  offset="1" style="stop-color:#004A9F"/>
		</linearGradient>
		<path fill="url(#SVGID_2_)" d="M101.778,136.553c-29.706,12.518-63.716-0.498-77.23-29.086c0.296,0.797,0.605,1.593,0.938,2.383
			c12.729,30.207,47.772,44.271,78.281,31.419c30.503-12.855,44.915-47.759,32.187-77.966c-0.335-0.79-0.687-1.563-1.05-2.33
			C145.923,90.606,131.481,124.038,101.778,136.553z"/>
		<linearGradient id="SVGID_3_" gradientUnits="userSpaceOnUse" x1="33.4551" y1="47.4854" x2="47.2285" y2="47.4854">
			<stop  offset="0" style="stop-color:#53C1E9"/>
			<stop  offset="1" style="stop-color:#1282C4"/>
		</linearGradient>
		<path fill="url(#SVGID_3_)" d="M37.292,46.214c-0.637,0.869-1.136,1.554-0.602,1.513c0.137-0.01,0.279-0.098,0.359-0.146
			c-0.013,0.43-0.38,0.773-0.294,1.224c0.394,0.2,0.624-0.316,0.991-0.216c0.328,0.981,0.143,1.174-1.609,3.002
			c-0.233,0.242-0.417,0.534-0.692,0.746c-0.042,0.032-0.13-0.01-0.182-0.028c-0.095-0.037-0.338,0-0.92,0.663
			c-0.015,0.015-1.135,1.303-0.839,1.624c0.444-0.065,0.372-0.902,0.886-0.727c0.47,0.161,0.009,0.697,0.041,1.045
			c0,0.019,0.582,1.587,1.385,1.112c2.097-1.245,2.09-1.607,2.075-2.152c-0.024-1.072-0.032-1.361,0.21-1.656
			c0.137-0.167,0.335-0.232,0.543-0.287c0.617-0.171,0.617-0.171,2.2-1.684c0.771-0.745-1.077-1.245-0.692-2.155
			c0.418-0.977,1.627-1.397,1.801-2.539c0.036-0.243-0.145-0.394-0.318-0.536c1.638-1.15,1.801-1.339,3.337-3.146
			c-0.1,0.052-0.232,0.12-0.334,0.172c0.616-1.238,1.819-1.995,2.591-3.107c-0.013-0.022-0.022-0.055-0.034-0.077
			c-1.399,0.721-4.809,4.603-5.645,6.081c-0.769-0.829,1.749-2.267,0.614-2.311c-0.604-0.026-0.987,0.36-2.844,2.22
			c1.815-1.955,1.815-1.955,1.947-2.116C40.575,42.938,39.34,44.174,37.292,46.214z"/>
		<linearGradient id="SVGID_4_" gradientUnits="userSpaceOnUse" x1="38.5957" y1="34.1055" x2="61.918" y2="34.1055">
			<stop  offset="0" style="stop-color:#53C1E9"/>
			<stop  offset="1" style="stop-color:#057CC0"/>
		</linearGradient>
		<path fill="url(#SVGID_4_)" d="M39.657,40.181c1.831-0.634,1.831-0.634,2.981-1.817c-0.24,0.015-0.45,0.232-0.715,0.119
			c-0.245,0.094-0.484,0.219-0.729,0.312c-0.018-0.032-0.044-0.074-0.061-0.107c1.127-1.089,2.752-1.263,3.992-2.142
			c0.015-0.012,2.044-1.385,4.032-2.581c0.262-0.161,0.262-0.161,1.439-0.959c2.295-1.417,4.883-2.246,7.247-3.514
			c-0.216,0.003-0.216,0.003-1.174,0.322c-0.013,0.003-0.013,0.003-0.013,0.003c0.039-0.02,0.039-0.02,4.216-1.63
			c0.273-0.104,0.574-0.273,0.608-0.291c-0.107-0.003-0.107-0.003-0.367,0.062c0.184-0.098,0.184-0.098,0.803-0.38
			c-0.228,0.063-0.228,0.063-1.505,0.497c0.451-0.203,0.923-0.342,1.378-0.533c-0.218,0.007-0.563,0.075-0.66,0.101
			c-0.226,0.071-0.226,0.071-1.547,0.624c0.243-0.141,0.243-0.141,0.686-0.321c-0.013,0.001-1.222,0.331-4.125,1.638
			c0.269-0.126,0.629-0.294,0.904-0.419l-1.294,0.553L55.73,29.73c-0.729,0.35-1.47,0.678-2.202,1.016l0.003-0.003
			c-0.78,0.383-0.78,0.383-1.313,0.653l-0.016,0.008c-0.311,0.203-0.667,0.33-0.977,0.534c0.209-0.064,0.411-0.162,0.624-0.226
			c-0.483,0.286-1.02,0.47-1.514,0.743c0.023-0.029,0.039-0.046,0.062-0.068c-1.625,0.94-3.563,2.07-5.021,3.013l-0.195,0.134
			c-0.304,0.213-0.321,0.224-0.437,0.312c0.437-0.226,0.437-0.226,0.755-0.32c-1.215,0.738-2.322,1.637-3.544,2.358
			c0.128-0.123,0.128-0.123,0.463-0.401c-0.384,0.294-0.9,0.685-1.287,0.977l-0.039,0.036c-0.8,0.761-1.681,1.432-2.496,2.175
			c0.35-0.197,0.64-0.479,1.032-0.609C39.638,40.096,39.648,40.145,39.657,40.181z"/>
		<linearGradient id="SVGID_5_" gradientUnits="userSpaceOnUse" x1="60.2627" y1="107.123" x2="119.0518" y2="107.123">
			<stop  offset="0.2204" style="stop-color:#3FABDD"/>
			<stop  offset="1" style="stop-color:#004A9F"/>
		</linearGradient>
		<path fill="url(#SVGID_5_)" d="M115.437,101.749c-0.179,0.02-0.179,0.02-0.867,0.418c-1.544-1.013-1.544-1.013-3.423-3.952
			c0.081-0.254,0.091-0.626,0.042-0.89c-2.077-0.918-1.248-3.432-2.643-4.728c-0.634-0.84-0.484-1.938-0.969-2.828
			c0-0.015-2.331-4.578-2.698-5.095c-0.272-0.374-0.926-0.377-1.241-0.381c-0.179,0.007-0.183,0.007-0.183,0.007h-0.006
			c-0.007,0-0.007,0-0.007,0c-0.003,0-0.006,0-0.006,0h-0.004c-0.003,0-0.01,0-0.01,0h-0.003c-0.003,0-0.003,0-0.003,0
			c-0.166,0.062-0.361,0.215-0.455,0.361c-1.323,0.06-1.323,0.06-7.259-1.593c-0.13,0.136-0.309,0.315-0.442,0.448
			c-0.253-0.065-0.253-0.065-1.222,0.551c-0.153,0.692,0.26,1.478-0.352,2.095c-1.661-0.688-1.661-0.688-1.729-0.669l-0.163-0.021
			c-2.646-1.15-2.646-1.15-3.67-1.287c-0.159,0.012-0.162,0.012-0.169,0.012c-0.005,0-0.01,0-0.013,0
			c-0.007,0.001-0.012,0.001-0.015,0.003c-0.005,0-0.008,0-0.015,0s-0.01,0.003-0.013,0.003c-0.004,0.004-0.01,0.004-0.014,0.004
			c-0.006,0-0.011,0-0.016,0c-0.004,0-0.01,0-0.017,0c-0.14-0.053-0.328-0.116-0.468-0.166c-0.687-1.427-0.687-1.427-1.962-2.204
			c-1.011-0.612,0.147-1.801-0.671-2.466c-0.222-0.18-0.222-0.18-3.197-0.033c-2.171,0.595-4.702-0.156-6.535,1.704
			c-1.642,1.663-1.774,1.575-3.049,0.743c-1.069-0.699-1.069-0.699-3,0.741c-0.179,0.133-0.218,0.495-0.192,0.718l-7.914,11.504
			c-0.465,0.573-0.638,0.79-0.601,1.808c0.038,1.114,0.863,1.97,1.022,3.042c0.205,1.378-0.959,2.718-0.108,4.108
			c0.321,0.526,0.321,0.526,8.661,5.734c0.497,0.237,0.997,0.191,1.488-0.124c0.01-0.01,0.022-0.02,0.034-0.025
			c0.018-0.017,2.33-1.229,3.555-0.368c1.77-0.546,3.23-1.853,5.151-2.012c0.173-0.017,0.173-0.017,1.889,1.424
			c0.107,0,0.215-0.007,0.318-0.01c-0.078,0.029-0.159,0.052-0.24,0.059c0.9,0.416,2.09-0.257,2.831,0.741
			c0.283,0.377,0.465,1.021,0.431,1.229c-0.089,0.546-0.707,0.758-0.844,1.274c0.124,0.854,0.286,1.131,1.287,1.599
			c1.177,0.55,2.508,3.374,2.37,4.281c-0.12,0.81,1.3,1.615,0.426,2.282c-1.375,1.046-1.615,3.771-1.605,3.793
			c0.143,0.504,0.822,0.429,0.991,0.903c0.044,0.12,0.084,0.286,0.084,0.413c0,0.052-0.006,0.123,0.004,0.176
			c0.022,0.143,0.12,0.318,0.145,0.465c0.105,0.582,0.778,0.991,0.528,1.681c-0.075,0.211-0.22,0.604-0.144,0.796l1.213,2.655
			c0.01,0.215-0.085,0.42-0.065,0.634c0.059,0.036,0.134,0.078,0.188,0.114c-0.143,0.328-0.143,0.328,0.608,1.476
			c-0.439,1.232-0.439,1.232,0.221,1.414c0.091,0.225,0.117,0.475,0.244,0.692c0.068,0,0.172,0.02,0.243,0.01
			c0.611-0.104,0.956-0.709,1.561-0.825c0.423-0.078,0.67,0.426,1.099,0.321c0.127-0.036,1.304-0.54,1.437-0.611
			c1.856-1.021,2.207-1.508,3.364-3.137c1.271-1.768,1.271-1.768,1.284-1.833c0.156-0.829,1.008-0.699,1.495-1.066
			c1.485-1.118,1.073-3.455,2.87-4.372c0.267-0.838,1.281-0.539,1.72-1.121l0,0l0,0l0,0c0.394-0.279,0.819-0.646,0.822-0.646
			c0.036-0.056,0.078-0.127,0.107-0.183c0.377-0.673,0.24-1.485,0.624-2.154c0.345-0.599,1.15-0.768,1.388-1.463
			c-1.326-1.063-2.129-1.71-0.432-4.573c0.507-0.858,1.3-1.33,1.456-1.418c0.627-0.344,1.008-0.952,1.524-1.407
			c0.637-0.568,0.822-1.583,1.797-1.817c0.417-0.101,1.316-0.997,1.854-1.563c0.059,0,0.113,0,0.169,0
			c0.022-0.091,0.052-0.175,0.074-0.266c0.114-0.117,0.183-0.199,0.186-0.202c-0.039-0.01-0.071-0.016-0.11-0.025
			c0.734-1.98,2.844-3.06,3.543-5.059c0.026-0.101,0.017-0.242,0.026-0.346C118.674,101.039,118.674,101.039,115.437,101.749z"/>
		<radialGradient id="SVGID_6_" cx="129.6118" cy="123.6123" r="0.015" gradientUnits="userSpaceOnUse">
			<stop  offset="0" style="stop-color:#53C1E9"/>
			<stop  offset="1" style="stop-color:#004A9F"/>
		</radialGradient>
		<path fill="url(#SVGID_6_)" d="M129.612,123.615l0.013-0.02c-0.01,0.01-0.017,0.02-0.026,0.033
			C129.605,123.625,129.608,123.619,129.612,123.615z"/>
		<radialGradient id="SVGID_7_" cx="100.3618" cy="79.8193" r="0.9838" gradientUnits="userSpaceOnUse">
			<stop  offset="0" style="stop-color:#53C1E9"/>
			<stop  offset="1" style="stop-color:#004A9F"/>
		</radialGradient>
		<path fill="url(#SVGID_7_)" d="M101.583,80.18c0.01-0.127-0.01-0.311-0.201-0.462c-0.049-0.042-0.049-0.042-0.67-0.24
			c-0.143-0.046-0.074-0.231-0.195-0.293c-0.067-0.039-0.091-0.032-0.198-0.013c-0.26,0.101-0.562,0.335-0.891,0.702
			c-0.377,0.419-0.324,0.443-0.185,0.5C99.721,80.579,101.551,80.481,101.583,80.18z"/>
		<linearGradient id="SVGID_8_" gradientUnits="userSpaceOnUse" x1="68.877" y1="61.2827" x2="78.5635" y2="61.2827">
			<stop  offset="0" style="stop-color:#53C1E9"/>
			<stop  offset="0.1774" style="stop-color:#3FABDD"/>
		</linearGradient>
		<path fill="url(#SVGID_8_)" d="M70.138,59.227c0.01,0.286,1.502,2.486,1.519,2.503c0.614,0.692,0.614,0.692,1.251,0.611
			c0.059-0.007,0.063-0.007,0.065-0.007c0.003-0.003,0.01-0.003,0.013-0.003c0.007,0,0.01,0,0.012,0c0.005,0,0.008,0,0.015,0
			c0,0,0.005-0.003,0.01-0.005c0,0,0.01,0,0.013,0c0.007,0,0.008,0,0.013,0c0.004,0,0.007-0.002,0.014-0.002
			c0.705-0.062,0.773,0.042,0.867,0.352c-0.323,0.52-1.118,0.237-1.403,0.815c-0.361,0.714-0.403,2.012,0.033,1.91
			c0.558-0.135,0.558-0.135,0.592-0.111c0.012,0.295,0.014,0.384-0.634,0.897c-1.062,0.847-0.603,1.003-0.235,1.02l1.26-0.319
			c0.201-0.084,0.338-0.224,0.528-0.416c0.175-0.185,0.253-0.201,0.312-0.214c0.633-0.122,1.282-0.127,1.896-0.335l1.069-0.442
			l1.157-1.086c0.165-0.287-0.056-0.551-0.048-0.825c0.012-0.462-0.681-0.166-0.817-0.548c-0.12-0.348-0.627-0.113-0.736-0.476
			c-0.147-0.498-0.756-0.667-0.864-1.191c-0.034-0.171-0.385-0.655-0.39-0.658c-0.012-0.017-0.036-0.034-0.053-0.046
			c-0.228-0.169-0.463-0.32-0.681-0.497c-0.225-0.178-0.384-0.415-0.578-0.618c-0.186-0.191-0.054-0.321,0.208-0.571
			c0.155-0.151,1.469-1.46-0.358-1.242c-0.708,0.085-0.776,0.075-0.913,0.02c-0.022-0.507,0.611-0.406,0.778-0.751
			c0.124-0.253-0.064-0.541,0.098-0.788c0.083-0.122,0.168-0.112,0.22-0.105c0.013,0,1.342-0.068,0.764-0.738
			c-0.198,0.007-0.387,0.026-0.572,0.041l-0.094,0.062l-0.247,0.24c-0.334,0.002-0.334,0.002-1.076,0.256
			c-0.122,0.237,0.138,0.441,0.057,0.676c-0.326,0.042-0.756,0.095-1.084,0.137c-0.271,0.646-0.271,0.646-0.346,0.673
			c-0.288,0.091-0.467-0.179-0.717-0.208c-0.215-0.026-0.41,0.083-0.623,0.074c-2.452-0.123-1.402,1.195-0.84,1.902L70.138,59.227z"
			/>
		<linearGradient id="SVGID_9_" gradientUnits="userSpaceOnUse" x1="61.7939" y1="64.7432" x2="70.5898" y2="64.7432">
			<stop  offset="0" style="stop-color:#53C1E9"/>
			<stop  offset="0.1774" style="stop-color:#3FABDD"/>
		</linearGradient>
		<path fill="url(#SVGID_9_)" d="M63.02,69.131c0.271,0.608,0.806,0.782,0.813,0.782c0.345,0.072,2.094-0.171,2.106-0.174
			c0.091-0.026,0.091-0.026,1.691-1.814c0.668-0.37,1.403-0.627,2.06-1.018c0.174-0.203,0.452-0.312,0.553-0.585
			c0.089-0.24-0.075-0.604-0.02-0.854l0.367-0.689l-0.198-1.258l-0.702-0.952l-0.742-0.966l-0.462-1.82
			c-0.802-0.338-2.004-0.188-2.014-0.188c-0.468,0.13-0.841,0.751-1.199,1.073l-0.644,0.804c-0.208,0.269-0.298,0.373-0.937,0.467
			c-0.331,0.049-0.9,0.13-1.014,0.348c-0.124,0.237-0.16,0.44,0.089,1.219c0.139,0.442,0.139,0.442,0.107,1.323
			c0.005,0.247,0.015,0.497,0.024,0.748l-0.616,0.11l-0.489,1.845l0.267,1.035L63.02,69.131z"/>
		<linearGradient id="SVGID_10_" gradientUnits="userSpaceOnUse" x1="20.1328" y1="91.1064" x2="69.1304" y2="91.1064">
			<stop  offset="0" style="stop-color:#53C1E9"/>
			<stop  offset="1" style="stop-color:#1E8BCA"/>
		</linearGradient>
		<path fill="url(#SVGID_10_)" d="M69.063,138.785c-0.534-0.25-1.48,0.702-1.956,0.371c-0.909-0.641-2.492-0.352-2.742-1.889
			c-0.429-0.306-1.677-0.507-2.097-0.829c0.032-0.062,0.073-0.146,0.104-0.211c-0.335-0.442-0.9,0.592-1.302,0.247
			c-0.051-0.039-0.122-0.095-0.174-0.137c0.038-0.049,0.087-0.114,0.126-0.159c0.072,0.013,0.166,0.032,0.237,0.049
			c-0.025-0.059-0.025-0.059-0.884-0.998c0.039-0.046,0.091-0.11,0.133-0.156c0.131-0.006,0.303-0.016,0.436-0.022
			c-0.024-0.124-0.081-0.273-0.145-0.374c0.122-0.036,0.29-0.071,0.415-0.098c-0.007-0.006-0.793-1.079-1.156-1.495
			c-0.04-0.045-0.089-0.104-0.128-0.149c0.088-0.11,0.234-0.244,0.36-0.312c-0.198-0.403-0.198-0.403-0.045-0.726
			c-1.011-1.352-1.011-1.352-0.468-1.622c-0.023-0.022,0.035-0.068,0.052-0.098c0.27-1.892-2.295-3.013-1.404-5.073
			c0.705-0.257,1.371-0.501,1.485-1.519c0.039-0.315,0.276-0.578,0.26-0.906c0-0.017-0.185-1.609-0.221-1.71
			c-0.269-0.734-0.849-1.301-1.136-2.025c-0.21-0.523-0.21-0.523,0-0.819c0.248-0.351,0.82-1.914,0.715-2.665
			c-0.08-0.582-1.189-2.334-1.723-2.601c-0.72-0.357-1.343-0.91-2.141-1.124c-0.068-0.02-0.154-0.039-0.221-0.053
			c-0.807-0.143-1.536,0.394-2.341,0.254c-0.94-0.169-1.608-0.952-2.552-1.111c-0.11-0.02-0.265-0.017-0.374-0.017
			c-1.946,0.007-1.946,0.007-2.746-1.358l0,0c-0.193-0.338-0.193-0.338-0.347-0.624c-0.338-0.641-0.955-1.034-1.422-1.563
			c-1.086-0.004-2.175,0.426-3.262,0.006l-4.825-3.14c-1.901,1.482-1.901,1.482-3.41,0.67c-0.578,0.175-0.598,0.38-0.653,0.926
			c-0.515,0.254-1.001,0.494-1.524,2.116c-0.037-0.084-0.091-0.198-0.128-0.282c-0.08,0.009-0.19,0.025-0.271,0.035
			c-0.024,0.091-0.056,0.211-0.082,0.303c0.007,0.221,0.007,0.221,0.007,0.221c-1.145-0.315-1.145-0.315-2.665-4.674
			c-0.563-0.14-0.802-0.117-1.229,0.649c-0.907-0.64-0.907-2.024-0.907-2.772c-0.526-2.046-0.536-2.083-0.907-2.772
			c-0.101,0.321-0.101,0.321-0.113,1.527c-0.083,0.017-0.188,0.046-0.267,0.063c-0.073-0.048-0.174-0.114-0.247-0.163
			c-0.234,1.011,0.434,1.876,0.468,2.841c-2.298,0.332-3.109-7.514-3.103-7.595c0.076,0.034,0.181,0.081,0.254,0.112
			c0.177-0.913,0.177-0.913,0.268-1.189c0.085-0.029,0.197-0.065,0.28-0.091c0.409,0.438,0.409,0.438,0.75,0.412
			c-0.013-1.361,0.117-1.452,0.403-1.647c0.452,0.25,1.781,1.48,1.801,1.671c0.022,0.242,0.401,1.319,1.01,2.046
			c0.378-0.117,0.378-0.117-0.753-4.384c-0.38-1.447,0.512-2.672,0.717-4.018c0.232-1.501,0.597-2.983,0.739-4.502
			c0.056-0.539,0.056-0.539,1.778-3.695c0.083,0.026,0.191,0.056,0.273,0.078c0.064-2.806,0.071-3.097,2.254-4.663
			c0.064,0.72-0.575,1.172-0.712,1.811c0.062,0.076,0.143,0.181,0.206,0.259c0.28,0.003,3.254-2.84,3.273-2.87
			c0.462-0.644-0.045-1.606-0.052-1.616L34.894,73.1c-0.072,0.208-0.173,0.478-0.254,0.683c-0.637-0.052-0.705-0.059-1.066-0.634
			c-0.104-0.02-0.243-0.042-0.348-0.062c-0.223,0.205-0.399,0.452-0.614,0.67c0.07-0.663,0.367-1.257,0.54-1.889
			c-0.225-0.348-0.225-0.348-0.148-0.891c-0.898,0.049-0.898,0.049-2.934,2.873c-0.758-2.103,1.928-2.562,2.227-4.188
			c0.589,0.317,0.905,0.927,1.437,1.302c0.104-0.032,0.241-0.079,0.342-0.113c-0.044-0.332-0.174-0.639-0.26-0.957
			c0.048-0.054,0.052-0.054,0.052-0.054c0.436-0.208,0.436-0.208,2.731-2.405c0.038,0.084,0.093,0.198,0.132,0.282
			c0.098,0.029,0.228,0.071,0.328,0.101c-0.343,1.213-1.424,2.035-1.735,3.264c-0.021,0.078-0.021,0.078,0.634,1.093
			c0.364-0.137,0.617-0.527,1.076-0.444c0.296,0.548,0.364,0.702,0.313,1.364c0.083-0.017,0.193-0.043,0.278-0.058
			c0.375-0.72,0.375-0.72,0.48-0.876c0.303,0.004,0.303,0.004,0.719,0.374c0.189,0.068,0.189,0.068,0.189,0.068h0.002l0,0l0,0h0.003
			l0,0l0,0c0.002,0,0.002,0,0.002,0c1.751-1.645,0.353-3.127-1.101-3.192c-0.12-0.165-0.12-0.165,0.55-4.583
			c-0.142-0.104-0.372-0.191-0.548-0.205c-0.066-0.077-0.157-0.185-0.226-0.263c0.074-0.289,0.172-0.572,0.235-0.861
			c-1.749-0.761-1.749-0.761-2.025-1.417c-0.518-1.22,0.174-2.656-0.18-3.885c0.006-0.065,0.039-0.195,0.224-0.803
			c0.225-0.741,0.231-0.985,0.028-0.907c-0.122,0.071-0.332,0.273-0.369,0.345c-0.022,0.036-0.065,0.11-0.115,0.286
			c-0.07,0.234-0.11,0.475-0.181,0.71c-0.078,0.266-0.137,0.304-0.188,0.327c-0.07,0.025-0.124,0.11-0.203,0.27
			c-0.636,1.437-0.636,1.437-1.146,1.693c-0.286-0.105-0.462-0.377-0.74-0.497c0-0.345,0.129-0.705,0.148-0.797
			c-0.009,0.004-0.019,0.009-0.026,0.01c0.062-0.25,0.068-0.507,0.159-0.75c0.107-0.28,0.29-0.521,0.42-0.792
			c0.062-0.13,0.13-0.291,0.064-0.398c-0.013-0.025-0.052-0.045-0.074-0.066c-0.146-0.128-0.366-0.063-0.518-0.187
			c-0.058-0.051-0.01-0.183-0.01-0.261c0-0.003-0.071-0.896-0.159-1.147c-0.013-0.043-0.032-0.097-0.049-0.136
			c-0.063-0.159-0.135-0.237-0.208-0.225c-0.003,0-0.01,0.002-0.013,0.003c-0.045,0.036-0.069,0.063-0.105,0.149
			c-0.244,0.599-0.59,1.198-0.761,0.924c-0.103-0.159-0.02-0.465-0.288-0.491c-0.104-0.013-0.39,0.21-0.539,0.413
			c-0.033,0.042-0.063,0.104-0.086,0.154c-0.038,0.083-0.058,0.21-0.068,0.297c-0.036,0.251-0.036,0.251-0.46,1.262
			c-0.139,0.33-0.171,0.367-0.332,0.478c-0.12,0.085-0.143,0.14-0.186,0.254c-0.003,0.003-0.042,0.253,0.063,0.286
			c0.025,0.01,0.062,0,0.097-0.012c0-0.002,0-0.002,0.004-0.002c0,0,0,0,0.003,0l0,0c0.003,0,0.003,0,0.003,0
			c0-0.003,0-0.003,0.004-0.003c0,0,0,0,0.003,0l0,0l0,0c0.065-0.029,0.065-0.029,0.098-0.017c0.065,0.35-0.38,0.896-0.771,1.375
			c-0.24,0.46-0.225,0.988-0.409,1.46c0.393,0.58,0.185,1.677,0.185,1.688c-0.324,1.162-1.427,1.864-1.797,2.999
			c-0.42,1.28-0.01,2.663-0.481,3.94c-0.059,0.158-0.26,0.305-0.413,0.376c-0.936-0.436,0.036-3.631,0.049-3.66
			c0.082-0.208,0.159-0.501,0.159-0.722c-0.084-0.022-0.201-0.057-0.287-0.081c-0.665,0.11-0.665,0.11-1.003-0.042
			c-0.073-1.195-0.073-1.195-0.364-1.531c-0.084,0.025-0.191,0.06-0.272,0.088c-0.023-0.67,0.309-1.258,0.448-1.892
			c-0.101,0.058-0.234,0.143-0.348,0.152l0.026-0.11c0.087-0.262,0.146-0.436,0.307-0.873c1.218-3.278,4.614-8.256,5.422-9.102
			c-0.051,1.257-1.116,1.954-1.644,2.95c0.087-0.002,0.202-0.01,0.286-0.024c0.033,0.164,0.033,0.164-0.094,0.521
			c0.811-0.314,0.737-1.291,1.342-1.764c0.072,0.176-0.045,0.37,0.051,0.543c0.09,0.02,0.333,0.074,0.604-0.329
			c0.438-0.788-0.446-3.182,0.601-2.528c0.45-0.478,0.519-1.187,1.02-1.629c0.031,0.004,0.07,0.01,0.099,0.014l2.923-4.249
			c0.025-0.039,0.057-0.094,0.078-0.131c0.001-0.005,0.069-0.418-0.159-0.611c-0.098,0.052-0.367,0.226-0.8,0.744
			c-0.028,0.037-0.054,0.076-0.076,0.11c-0.168,0.35-2.378,3.345-2.479,3.444c-0.042-0.127-0.101-0.315,0.621-1.311
			c0.159-0.214,1.039-1.511,1.138-1.699c-0.006-0.007-0.01-0.017-0.015-0.023l0,0l0,0c0.009-0.03,0.021-0.071,0.031-0.101
			c-0.13,0.026-0.13,0.026-1.597,1.94c0.205-0.403,0.205-0.403,2.48-3.585c-0.059,0.04-0.133,0.098-0.185,0.146
			c0.402-0.611,0.945-1.112,1.378-1.704c0.113-0.087,0.208-0.191,0.198-0.37c-2.308,2.313-3.046,3.555-3.053,3.565
			c0.029-0.01,0.072-0.021,0.103-0.025c-0.703,1.521-1.894,2.711-2.833,4.072c0.374-0.705,0.935-1.298,1.206-2.067
			c-0.133,0.121-0.348,0.418-1.199,1.646c0.01-0.033,0.029-0.075,0.039-0.102c-0.107,0.08-0.107,0.08-1.274,1.866
			c-3.122,5.461-3.179,5.562-4.47,8.588l-0.958,2.403c-0.675,2.043-1.567,4.773-2.121,6.854c-1.292,6.312-1.316,6.434-1.585,9.778
			c-0.257,6.595-0.264,6.72,0.029,10.167c0.288,2.285,0.689,5.327,1.118,7.593l0.007,0.029c0.081,0.339,0.081,0.339,1.755,5.598
			c0.088,0.234,0.088,0.234,0.088,0.234c0.176,0.393,0.176,0.393,0.524,1.036c0.067,0.02,0.067,0.02,0.067,0.02
			c0.395,0.582,0.395,0.582,0.734,0.969c0.059,0,0.143,0,0.201,0c0.151,0.056,0.387,0.059,0.54,0
			c0.057,0.059,0.135,0.137,0.193,0.195c0.184-0.013,0.428-0.026,0.609-0.039c0.085-0.029,0.193-0.062,0.273-0.094
			c0.233,0.191,0.233,0.191,1.219,1.878c0.185-0.351,0.185-0.351,0.016-1.023c1.036,0.604,1.434,1.774,2.299,2.532
			c0.042-0.075,0.096-0.176,0.136-0.247c0.049,0.036,0.049,0.036,0.644,0.699c0.082,0.019,0.082,0.019,0.082,0.019l0,0l0,0l0,0
			h0.001l0,0l0,0c0,0,0,0,0.002-0.003c0.323,0.222,0.56,0.533,0.864,0.771c0.002-0.081,0.005-0.195,0.007-0.279
			c0.166-0.033,0.384-0.091,0.54-0.153c0.015-0.406,0.015-0.406-0.227-0.952c0.015-0.049,0.015-0.049,0.015-0.049
			c0.007-0.088,0.017-0.211,0.028-0.299c1.968,2.564,1.963,2.785,1.94,3.526c0.066-0.016,0.039,0.159,0.057,0.225
			c0.389,0.888,0.389,0.888,0.582,1.463c-0.325,0.543-0.398,0.673-0.172,1.261l1.953,3.368c1.226,1.28,2.904,1.995,4.116,3.289
			c0.78,0.835,1.962,2.1,4.381,2.88c0.526,0.169,0.769,0.25,1.337,0.751c0.278,0.244,0.278,0.244,3.337,4.086
			c0.699,0.878,3.271,3.419,3.294,3.442c3.917,3.725,2.726,1.557,8.128,4.953C67.795,139.764,69.513,139,69.063,138.785z
			 M36.179,43.43c-0.068,0.064-0.135,0.13-0.19,0.185C36.034,43.54,36.105,43.484,36.179,43.43z"/>
		<radialGradient id="SVGID_11_" cx="105.6396" cy="31.5127" r="0" gradientUnits="userSpaceOnUse">
			<stop  offset="0" style="stop-color:#53C1E9"/>
			<stop  offset="1" style="stop-color:#004A9F"/>
		</radialGradient>
		<polygon fill="url(#SVGID_11_)" points="105.64,31.513 105.64,31.513 105.64,31.513 		"/>
		<radialGradient id="SVGID_12_" cx="108.1201" cy="32.6938" r="0.0076" gradientUnits="userSpaceOnUse">
			<stop  offset="0" style="stop-color:#53C1E9"/>
			<stop  offset="1" style="stop-color:#004A9F"/>
		</radialGradient>
		<path fill="url(#SVGID_12_)" d="M108.116,32.693L108.116,32.693L108.116,32.693h-0.006c0,0,0,0,0-0.004l0,0l0,0l0,0l0,0
			c0.006,0.004,0.013,0.005,0.02,0.009l-0.01-0.004L108.116,32.693z"/>
		<radialGradient id="SVGID_13_" cx="59.0571" cy="30.9248" r="0.1526" gradientUnits="userSpaceOnUse">
			<stop  offset="0" style="stop-color:#53C1E9"/>
			<stop  offset="1" style="stop-color:#004A9F"/>
		</radialGradient>
		<path fill="url(#SVGID_13_)" d="M59.197,30.795c-0.007,0.002-0.015,0.003-0.023,0.007c-0.032,0.016-0.097,0.047-0.145,0.089
			c-0.057,0.047-0.094,0.112-0.145,0.164c0.114-0.071,0.229-0.143,0.345-0.218C59.223,30.837,59.203,30.822,59.197,30.795z"/>
		<radialGradient id="SVGID_14_" cx="108.7832" cy="33.0493" r="0.5244" gradientUnits="userSpaceOnUse">
			<stop  offset="0" style="stop-color:#53C1E9"/>
			<stop  offset="1" style="stop-color:#004A9F"/>
		</radialGradient>
		<path fill="url(#SVGID_14_)" d="M108.13,32.698l0.302,0.17c0.303,0.156,0.628,0.33,1.005,0.532
			C109.001,33.151,108.942,33.117,108.13,32.698z"/>
		<radialGradient id="SVGID_15_" cx="133.6104" cy="117.5771" r="0.1598" gradientUnits="userSpaceOnUse">
			<stop  offset="0" style="stop-color:#53C1E9"/>
			<stop  offset="1" style="stop-color:#004A9F"/>
		</radialGradient>
		<path fill="url(#SVGID_15_)" d="M133.721,117.381l-0.221,0.394C133.588,117.628,133.662,117.495,133.721,117.381z"/>
		<radialGradient id="SVGID_16_" cx="50.7046" cy="33.5088" r="0.2632" gradientUnits="userSpaceOnUse">
			<stop  offset="0" style="stop-color:#53C1E9"/>
			<stop  offset="1" style="stop-color:#004A9F"/>
		</radialGradient>
		<path fill="url(#SVGID_16_)" d="M50.382,33.694c0.221-0.127,0.438-0.25,0.646-0.371C50.554,33.577,50.443,33.638,50.382,33.694z"
			/>
		<linearGradient id="SVGID_17_" gradientUnits="userSpaceOnUse" x1="54.9048" y1="49.6743" x2="51.3528" y2="30.044">
			<stop  offset="0" style="stop-color:#53C1E9"/>
			<stop  offset="0.957" style="stop-color:#2792CE"/>
		</linearGradient>
		<path fill="url(#SVGID_17_)" d="M60.568,29.941c-0.757,0.283-0.783,0.298-1.095,0.506c0.025,0.005,0.025,0.005,0.185-0.054
			c0.153-0.057,0.254-0.093,0.293-0.062c-0.02,0.038-0.046,0.079-0.264,0.229c0.004,0-0.006,0.004-0.008,0.004
			c-0.235,0.208-0.235,0.208-0.372,0.279c-0.193,0.068-0.309,0.14-0.423,0.211c-0.081,0.066-0.198,0.149-0.289,0.205
			c-0.042,0.025-0.081,0.059-0.129,0.088c0.015-0.017,0.026-0.033,0.038-0.046c-0.038,0.02-0.085,0.046-0.124,0.065
			c0.086-0.104,0.202-0.181,0.304-0.273c-0.027-0.002-0.027-0.002-0.03,0l0,0l0,0h-0.003l0,0l0,0l0,0c-0.002,0-0.002,0-0.002,0
			c-0.036,0.013-0.086,0.024-0.122,0.036c0.013-0.019,0.013-0.019,0.666-0.491c-0.045-0.002-0.104-0.01-0.146-0.013
			c-0.054,0.013-0.054,0.013-1.526,0.898c0.036-0.064,0.036-0.064,0.395-0.357c-0.032-0.026-0.068-0.056-0.099-0.08
			c-1.906,0.639-2.521,1.093-2.787,1.288c-1.369,0.803-2.979,1.18-4.148,2.33c0.078,0.02,0.186,0.026,0.266,0.013
			c-0.144,0.098-0.29,0.183-0.43,0.278c0.073-0.027,0.171-0.065,0.244-0.096c-1.355,1.219-3.112,1.85-4.497,3.022
			c0.017,0.036,0.037,0.083,0.056,0.117c-0.023,0.037-0.054,0.095-0.075,0.137c0.036,0.017,0.08,0.04,0.114,0.055
			c0.072-0.024,0.172-0.063,0.243-0.091c-0.301,0.352-0.471,0.364-0.718,0.257c-0.717,0.387-1.346,1.752-1.35,1.766
			c0.13,0.087,0.13,0.087,0.357,0.025c0.026-0.006,0.039-0.008,0.049-0.011c0.01-0.002,0.021-0.005,0.033-0.009
			c0.01-0.003,0.021-0.005,0.032-0.006c0.008-0.004,0.02-0.005,0.029-0.007c0.008-0.003,0.018-0.007,0.025-0.008
			c0.01-0.002,0.02-0.004,0.029-0.007c0.009-0.002,0.017-0.005,0.021-0.005c0.012-0.003,0.015-0.003,0.022-0.007l0,0l0,0
			c0,0,0,0,0.002,0l0,0l0,0l0,0c0,0,0,0,0.003,0l0,0c0.186-0.091,0.358-0.216,0.545-0.311c0.03,0.019,0.073,0.043,0.104,0.063
			c0.077-0.024,0.171-0.073,0.237-0.122c-0.105,0.171-0.233,0.328-0.353,0.49c0.188-0.108,0.332-0.266,0.507-0.393
			c0.072,0.022,0.171,0.057,0.242,0.088c0.019,0.191-0.431,1.124-1.454,2.506c-0.271,0.367-0.56,1.042-1.04,2.161
			c0.33,0,0.33,0,0.404,0.021c0.021,0.104,0.047,0.247-0.281,0.38c-0.013,0.009-1.283,0.86-1.056,1.567
			c0.035,0.01,0.084,0.021,0.12,0.03c0.279-0.353,0.387-0.354,0.741-0.364l0.059,0.075c-1.993,2.077-1.993,2.077-2.24,2.887
			c-0.93,3.042-0.962,4.645-0.101,4.757c0.075,0.01,0.166-0.061,0.228-0.105c0.156,0.152,0.093,0.426,0.306,0.543
			c0.692-0.043,0.587,0.78,0.95,1.111c0.142-0.167,0.22-0.26,0.371-0.923c0.018-0.095,0.036-0.222,0.066-0.313
			c0.13-0.37,0.624-0.384,0.758-0.747c0.133-0.352-0.28-0.65-0.104-1.005l1.519-2.405c0.59-0.815,0.59-0.815,0.61-0.832
			c0.861-0.611,2.066-0.66,2.711-1.625c0.494-0.735,0.494-0.735,2.828-1.908c0.396-0.14,0.396-0.14,0.988-0.656
			c0.463-0.381,0.463-0.381,0.637-0.484l0.3-0.205c0.243-0.137,0.243-0.137,0.316-0.293c-0.154-0.123-0.33-0.218-0.496-0.328
			c-0.009-0.052-0.023-0.117-0.032-0.167c0.059-0.07,0.158-0.151,0.237-0.197c0.042,0.023,0.1,0.056,0.14,0.08
			c0.782,0.587,1.047-0.254,1.304-1.064c-0.089-0.049-0.218-0.098-0.315-0.117c-0.045-0.146-0.045-0.146,0.739-1.058
			c-0.067-0.136-0.154-0.311-0.223-0.445c1.781-0.707,2.188-1.411,2.272-1.767c-0.085-0.068-0.211-0.144-0.313-0.192
			c0.291-0.211,0.697-0.064,0.977-0.306c0-0.001,0.191-0.191-0.095-0.456c-0.393,0.069-0.387-0.13-0.382-0.31
			c0.32-0.232,0.32-0.232,1.26-1.114c-0.049,0.008-0.113,0.02-0.166,0.024c0.102-0.169,0.15-0.247,0.411-0.503
			c-0.13-0.027-0.304-0.063-0.434-0.092c-0.027-0.034-0.064-0.082-0.094-0.114l2.063-2.109c-0.088,0-0.208,0.02-0.292,0.049
			c0.162-0.55,0.806-0.653,1.056-1.121c-0.03-0.031-0.067-0.073-0.101-0.104c0.88-0.845,2.129-1.128,3.028-1.94
			c0.063-0.059,0.125-0.161,0.155-0.244c-0.167-0.23-0.323-0.451-1.802,0.455c-0.002-0.088-0.009-0.208-0.019-0.299
			c-0.121,0.085-0.231,0.182-0.353,0.267l0,0l0,0c-0.003,0-0.003,0-0.003,0l0,0l0,0H62.78l0,0l0,0l0,0h-0.001l0,0l0,0
			c-0.616,0.357-1.14,0.85-1.742,1.229c0.022-0.149,0.039-0.258,1.283-1.072c0.384-0.251,0.527-0.343,0.829-0.641
			c-0.032-0.026-0.074-0.059-0.107-0.086c-0.299,0.177-0.593,0.362-0.9,0.524c-0.039,0.02-0.094,0.043-0.133,0.059
			c0.021-0.068,0.159-0.185,0.301-0.301c-0.2,0.033-0.271,0.043-0.345,0.056c-0.081,0.012-0.164,0.024-0.247,0.039
			c-0.132,0.003-0.239,0.007-1.272,0.453c0.245-0.377,1.784-0.698,1.933-0.712c0.133-0.016,0.135-0.016,0.138-0.016c0,0,0,0,0.003,0
			c0,0,0,0,0.004,0c0.003,0,0.003,0,0.003-0.004c0.003,0,0.005,0,0.005,0s0,0,0.003,0c0,0,0.002,0,0.005,0c0,0,0,0,0.004,0
			c0.12-0.025,0.48-0.094,1.326-0.563l0.164-0.09l0.083-0.101c0.029-0.094,0.055-0.221,0.071-0.316
			c0.127-0.075,0.296-0.174,0.423-0.246c-0.039-0.003-0.095-0.008-0.137-0.013c0.169-0.081,0.348-0.14,0.517-0.215
			c-0.133-0.062-0.133-0.062-0.409-0.013c0.276-0.152,0.581-0.237,0.867-0.36c-0.01-0.014-0.02-0.029-0.029-0.041
			c-0.377,0.103-0.747,0.22-1.121,0.326c-0.032-0.025-0.078-0.062-0.11-0.087c-0.338,0.067-0.998,0.334-1.003,0.334
			c-0.083,0.026-0.083,0.026-0.083,0.026c0.029-0.029,0.071-0.073,0.101-0.101c0.044-0.046,0.044-0.046,0.041-0.046l0,0H63.24l0,0
			l0,0l0,0l0,0l0,0c-0.296,0.12-0.571,0.279-0.874,0.384c0.107-0.113,0.107-0.113,0.442-0.298c-0.198,0.061-0.391,0.139-0.592,0.21
			c-0.582,0.247-1.105,0.507-1.609,0.78c0.489-0.273,0.979-0.526,1.479-0.764l-0.1,0.035c-0.171,0.068-1.011,0.433-1.202,0.543
			C60.636,29.949,60.636,29.949,60.568,29.941z"/>
		<radialGradient id="SVGID_18_" cx="64.9971" cy="28.5518" r="0.399" gradientUnits="userSpaceOnUse">
			<stop  offset="0" style="stop-color:#53C1E9"/>
			<stop  offset="1" style="stop-color:#004A9F"/>
		</radialGradient>
		<path fill="url(#SVGID_18_)" d="M64.473,28.705c0.013-0.004,0.029,0,0.042,0.001l0.037,0.019c0.184-0.023,0.203-0.029,0.444-0.122
			c0.165-0.061,0.211-0.076,0.253-0.085c0.015-0.003,0.033-0.005,0.049-0.008l0.229-0.117c0.002,0,0.005-0.005,0.007-0.007
			c0-0.003-0.002-0.003-0.002-0.006c-0.032-0.007-0.135,0.01-0.148,0.013c-0.14,0.032-0.261,0.114-0.401,0.149
			c0.034-0.037,0.083-0.052,0.124-0.079c-0.008,0-0.012,0-0.148,0.057c0.028-0.017,0.063-0.039,0.093-0.056l-0.029,0.014
			l-0.045-0.004l-0.161,0.073h-0.052c-0.083,0.031-0.109,0.041-0.129,0.041c0-0.004,0-0.007,0-0.007
			c0.004-0.003,0.01-0.007,0.01-0.01c-0.021,0.017-0.052,0.032-0.074,0.046c-0.088,0.055-0.101,0.068-0.11,0.084
			C64.463,28.701,64.468,28.701,64.473,28.705L64.473,28.705z"/>
		<radialGradient id="SVGID_19_" cx="105.9502" cy="40.5313" r="0.6003" gradientUnits="userSpaceOnUse">
			<stop  offset="0" style="stop-color:#53C1E9"/>
			<stop  offset="1" style="stop-color:#004A9F"/>
		</radialGradient>
		<path fill="url(#SVGID_19_)" d="M105.432,39.97c-0.064,0.021-0.074,0.069-0.062,0.154c-0.017-0.028-0.036-0.051-0.056-0.075
			c0.31,0.565,0.644,0.942,0.647,0.946c0.003,0.006,0.549,0.198,0.617,0.027c0.032-0.081-0.052-0.211-0.101-0.286
			C106.264,40.433,105.673,39.951,105.432,39.97z"/>
		<linearGradient id="SVGID_20_" gradientUnits="userSpaceOnUse" x1="100.6143" y1="35.5068" x2="108.3701" y2="35.5068">
			<stop  offset="0" style="stop-color:#1786C6"/>
			<stop  offset="0.5054" style="stop-color:#0071B9"/>
		</linearGradient>
		<path fill="url(#SVGID_20_)" d="M101.437,31.576l0.043,0.445c-0.754,0.054-0.754,0.054-0.865,0.139
			c0.124,0.438,0.479,0.751,0.644,1.163c-0.074,0.065-0.172,0.153-0.25,0.218c0.166,0.371,0.709,0.315,0.829,0.731
			c0.062,0.208,0.318,0.741,0.318,0.741c0.075,0.088,0.159,0.156,0.455,0.41c0.478,0.397,0.478,0.397,0.722,0.896
			c-0.104,0.121-0.247,0.049-0.377,0.079c-0.007,0.013-0.017,0.026-0.02,0.039c0.211,0.328,0.621,0.392,0.888,0.646
			c-0.007,0.017-0.014,0.036-0.02,0.054c-0.046,0.014-0.098,0.024-0.146,0.044c-0.215,0.706,0.253,0.966,0.563,1.14
			c0.003,0.003,0.666,0.354,0.692,0.369c0.338,0.157,0.718,0.169,1.046,0.34c0.43,0.223,0.804,0.537,1.259,0.703
			c0.006,0,0.734,0.198,1.146,0.078c0-0.02,0.004-0.046,0.007-0.064c-0.104-0.117-0.117-0.139-0.461-0.381
			c-1.814-1.284-2.9-2.574-2.948-2.626c-0.043-0.053-0.102-0.124-0.137-0.181c-0.212-0.35-0.169-0.434-0.075-0.621
			c0.007-0.015,0.007-0.047-0.003-0.063c-0.215-0.362-0.647-0.526-0.858-0.896c-0.029-0.043-0.029-0.117-0.02-0.166
			c0.029-0.283,0.029-0.283-0.504-1.03c0.241-0.083,0.465,0.101,0.702,0.049l-1.021-0.9c-0.094-0.059-0.094-0.059-0.101-0.112
			c0.176-0.024,0.348,0.071,0.52,0.013c-0.094-0.079-0.218-0.125-0.292-0.235c0.029-0.068,0.104-0.1,0.127-0.169
			c-0.14-0.173-0.306-0.318-0.442-0.493c-0.12-0.145-1.216-0.744-1.583-0.77c-0.123,0.069-0.264,0.024-0.394,0.04
			C101.054,31.348,101.297,31.387,101.437,31.576z"/>
		<radialGradient id="SVGID_21_" cx="74.8384" cy="55.3403" r="0.2022" gradientUnits="userSpaceOnUse">
			<stop  offset="0" style="stop-color:#53C1E9"/>
			<stop  offset="1" style="stop-color:#004A9F"/>
		</radialGradient>
		<path fill="url(#SVGID_21_)" d="M74.835,55.287c-0.142,0.022-0.223,0.075-0.276,0.112c0.186-0.015,0.374-0.034,0.56-0.047
			C75.019,55.277,74.92,55.274,74.835,55.287z"/>
		<linearGradient id="SVGID_22_" gradientUnits="userSpaceOnUse" x1="69.9238" y1="69.1284" x2="140.7612" y2="69.1284">
			<stop  offset="0" style="stop-color:#53C1E9"/>
			<stop  offset="0.9247" style="stop-color:#004A9F"/>
		</linearGradient>
		<path fill="url(#SVGID_22_)" d="M140.654,81.642c-0.832-6.627-0.832-6.627-1.658-9.87c-1.853-6.226-1.853-6.226-3.162-9.232
			c-0.924-1.908-2.162-4.45-3.195-6.303l-1.33-2.175c-3.607-5.181-3.607-5.181-5.76-7.605c-4.265-4.449-4.346-4.535-6.861-6.615
			c-4.869-3.724-4.96-3.797-7.841-5.513l-3.348-1.833c-0.861-0.454-1.541-0.79-2.753-1.336c-0.039-0.019-0.039-0.019-0.039-0.019
			s0,0-0.003,0l0,0c0.786,0.366,1.104,0.528,1.316,0.636c0.734,0.416,1.518,0.751,2.227,1.226c-0.527-0.27-0.527-0.27-0.579-0.289
			c-0.146-0.07-0.289-0.146-0.433-0.218c-0.013-0.004-0.013-0.004-0.013-0.004l0,0l0,0l0,0l0,0
			c-0.003-0.003-0.003-0.003-0.006-0.003c-0.156-0.062-0.31-0.13-0.465-0.195c0.302,0.239,0.302,0.239,1.368,0.89
			c0.315,0.187,0.315,0.187,2.061,1.339c0.981,0.7,0.981,0.7,1.105,0.961c-0.088,0.01-0.215,0-0.306-0.026
			c-0.013,0.039-0.032,0.091-0.042,0.13c1.03,1.067,2.619,1.383,3.549,2.584c-0.36-0.045-1.813-0.994-1.976-1.102
			c-0.394-0.264-0.396-0.264-0.592-0.26c-0.013,0.045-0.029,0.104-0.046,0.149c0.017,0.018,0.017,0.018,0.891,0.866
			c-0.939-0.479-1.404-1.617-2.558-1.803c0.563,0.595,1.439,0.839,1.843,1.612c-0.013,0.042-0.032,0.095-0.042,0.133
			c0.169,0.195,0.396,0.454,0.568,0.65l0.748,0.489c1.943,2.18,2.295,2.573,2.652,2.459c0.029,0.029,0.064,0.075,0.094,0.105
			c0.014-0.037,0.029-0.093,0.043-0.135c0.01,0,0.585,0.11,0.773,0.556c-0.169,0.019-0.169,0.019-0.43-0.091
			c-0.058-0.02-0.058-0.02-0.058-0.02l-0.023,0.163c0.455,0.575,1.196,0.854,1.58,1.501c-0.095,0.007-0.218,0.02-0.313,0.026
			c0.117,0.133,0.228,0.27,0.338,0.403c0.146,0.204,0.329,0.38,0.481,0.585c-0.039,0.022-0.094,0.059-0.133,0.084
			c-0.023,0.186-0.023,0.186,0.062,0.506c-0.098,0.008-0.23,0.018-0.332,0.027c-0.143,0.01-0.282-0.055-0.429-0.003
			c-0.039-0.02-0.088-0.046-0.127-0.065c1.82,2.464,3.046,3.011,4.495,5.61c-1.449-2.6-2.682-3.149-4.589-5.67
			c-0.159-0.042-0.653-0.284-0.452-0.589c0.293-0.015,0.523,0.359,0.852,0.135c-0.013-0.208-0.211-0.438-0.312-0.62
			c-0.059-0.28-0.173-0.803-1.739-2.196l-0.608-0.609c-0.436-0.325-0.712-0.808-1.138-1.141c-0.542-0.424-0.984-0.952-1.521-1.382
			c-0.406-0.279-0.595-0.747-0.959-1.064l-0.764-0.702c-0.816-0.443-1.45-1.204-2.425-1.378c-0.033,0.003-0.082,0.007-0.117,0.012
			c-0.004,0.032,0.01,0.084,0.029,0.111l0.032,0.044c1.404,1.47,1.404,1.47,1.798,1.746c-0.01,0.066-0.02,0.152-0.026,0.221
			c0.312,0.293,0.328,0.313,0.511,0.604c-0.056,0.036-0.131,0.085-0.189,0.12c0.007,0.02,1.567,2.549,3.732,3.186
			c0.23,0.068,0.715,0.212,0.666,0.858c0,0,0,0-0.007,0l0,0l0,0c0,0-0.003,0-0.003-0.003l0,0l0,0l0,0c0,0,0,0-0.003,0
			c-0.303-0.166-0.56-0.396-0.852-0.579c-0.043-0.008-0.043-0.008-0.046-0.008l0,0l0,0l0,0l0,0h-0.003l0,0l0,0l0,0
			c0-0.002,0-0.002,0-0.002s0,0-0.004,0l0,0h-0.003l0,0c0,0,0,0-0.003,0h-0.004c-0.143-0.055-0.143-0.055-0.926-0.443
			c-0.173-0.051-0.176-0.051-0.176-0.051c-1.547-0.588-2.984-1.43-4.515-2.051c-0.046-0.007-0.046-0.007-0.046-0.007h-0.003l0,0l0,0
			h-0.004l0,0l0,0l0,0c0.735,1.018,1.989,1.379,2.852,2.231c-0.156,0.017-0.156,0.017-1.555-0.866
			c0.085,0.169,0.225,0.387,0.349,0.527c-0.023,0.066-0.059,0.155-0.085,0.224c-0.091,0.049-0.094,0.049-0.094,0.049
			c-0.153-0.084-0.153-0.084-0.861-0.553c-0.098,0.361-0.056,0.736-0.082,1.105c-0.084,0.062-0.084,0.062-0.088,0.062
			c-0.5-0.262-0.74-0.975-1.472-0.845c-0.462,0.744-0.462,0.744-0.569,0.776c-0.081,0.247-0.279,0.426-0.374,0.663
			c0.188,0.394,0.176,0.416,0.007,0.696c0.14,0.26,0.14,0.26,0.514,0.827c-1.622-0.086-1.71-0.736-1.769-1.165
			c0.176-0.026,0.416-0.063,0.595-0.078c0.014-0.065,0.026-0.153,0.033-0.218c-1.316-1.195-1.71-1.123-2.36-1.007
			c0.049,0.132,0.14,0.296,0.225,0.408c-0.013,0.068-0.029,0.163-0.042,0.23c0.055,0.054,0.126,0.126,0.182,0.18
			c-0.11,0.387-0.11,0.387,0.761,1.222c0.478,0.35,0.48,0.354,0.607,0.644c-1.463,0.7-1.463,0.7-1.518,0.861
			c-0.254,0.724,0.592,1.029,0.634,1.642c-0.391,0.117-0.391,0.117-1.262-0.37l-0.61-0.327c-0.335-0.138-0.352-0.145-0.735-0.232
			c-0.175-0.02-0.179-0.02-0.179-0.02c-0.078,0.359,0.111,0.692,0.114,1.044c-0.25-0.065-0.25-0.065-1.04-0.722
			c-0.556-0.305-0.442-0.504-0.254-0.836c-0.084-0.198-0.084-0.198-2.077-1.378c0.046-0.046,0.107-0.104,0.153-0.152
			c0.751,0.196,1.31,1.053,2.242,0.653c1.485,0.644,1.485,0.644,2.064,0.701c0.156-0.191,0.279-0.411,0.416-0.615
			c0.257-0.587,0.257-0.587-0.007-1.286c-0.348-0.617-0.348-0.617-3.24-1.904c-1.044-0.465-3.625-1.412-3.644-1.421
			c-0.647-0.228-1.164,0.328-1.775,0.303c-0.13-0.289-0.13-0.289,0.117-0.678c0.166-0.024,0.384-0.076,0.543-0.117
			c0.017-0.071,0.039-0.169,0.055-0.239c-0.36-0.23-2.756-0.96-3.185-0.815c-0.072,0.034-0.072,0.034-0.072,0.034l0,0l0,0h-0.003
			l0,0l0,0l0,0h-0.003c-1.311-0.32-1.311-0.32-2.532,0.759c-0.146,0.081-0.146,0.081-0.146,0.081l0,0c-0.003,0-0.003,0-0.003,0l0,0
			l0,0l0,0l0,0c-0.004,0-0.004,0-0.004,0s0,0-0.003,0l0,0l0,0h-0.003l0,0c-0.004,0-0.004,0-0.004,0l0,0l0,0
			c-0.49,0.213-1.774,0.924-1.774,0.927c-0.02,0.013-0.02,0.013-0.02,0.013v0.002l0,0c-0.003,0-0.003,0-0.003,0l0,0l0,0
			c0,0,0,0-0.004,0l0,0h-0.001c0,0,0,0-0.002,0l0,0l0,0H87.19h-0.002c-0.761,0.367-1.297,1.084-2.137,1.324l-0.002,0.002l0,0
			c0,0,0,0-0.002,0l0,0l0,0c-0.003,0-0.003,0-0.003,0l0,0h-0.003c-0.117,0.34,0.081,0.675,0.02,1.013
			c-0.039,0.01-0.039,0.01-0.039,0.01s0,0-0.002,0l0,0l0,0h-0.002l0,0c-0.005,0-0.005,0-0.005,0l0,0
			c-0.894,0.132-0.894,0.132-0.979,0.534c-0.066,0.119-0.114,0.304-0.101,0.438c0.069,0.017,0.159,0.039,0.228,0.056
			c0.208-0.017,0.307-0.02,0.404-0.026c0.512-0.042,0.69-0.715,1.261-0.656c0.075,0.292,0.075,0.302,0.275,0.627
			c-0.329,0.394-0.855,0.394-1.265,0.627c-0.458,1.791-1.235,2.289-1.531,2.479c-0.022,0.541,0.372,1.064,0.07,1.614
			c-1.69,0.296-2.579,1.512-2.521,1.963c-0.299,0.342-0.769,0.159-1.114,0.353c-0.046,0.545-0.286,1.066-0.234,1.626l0.599,2.329
			c0.055,0.077,0.165,0.228,0.285,0.518c0.07,0.178,1.105,1.146,1.115,1.149c0.163,0.071,1.099,0.352,1.573,0
			c0.104-0.081,0.119-0.115,0.153-0.2c0.44-1.143,0.965-1.246,1.529-1.355c0.678-0.135,0.678,0.701,1.055,1.02
			c-0.08,0.205-0.08,0.205-0.068,0.26c0.035,0.02,0.127,0.062,0.331,0.595c0.109,0.144,0.082,0.343,0.212,0.479
			c0.815,0.857,0.815,0.857,0.898,1.219c0.091,0.406,0.091,0.406,1.242,0.771c0.004,0,0.004,0,0.004,0
			c0.127-0.107,0.176-0.383,0.192-0.494c0.029-0.252,0.036-0.286,0.673-0.455c1.173-0.315,1.3-0.359,1.349-0.445
			c0.004-0.004,0.179-0.657,0.014-1.223c-0.046-0.146-0.01-0.312-0.095-0.445c-0.14-0.228-0.501-0.24-0.546-0.559
			c-0.068-0.533,0.117-0.511,0.429-0.479c0.403,0.046,0.416-0.032,0.455-0.23c0.059-0.318,0.293-0.549,0.433-0.825
			c-2.513,0.113-5.11,0.27-7.772,0.451c2.662-0.182,5.26-0.338,7.779-0.466c0.354-0.475,0.354-0.475,0.37-0.682
			c-0.533-0.461-0.533-0.461-1.833-0.822c-0.039-0.166-0.078-0.333-0.114-0.497c-0.117-0.228-0.267-0.438-0.39-0.668
			c0.12-0.226,0.36-0.35,0.494-0.567c-0.043-0.062-0.102-0.143-0.144-0.208c0.071-0.059,0.166-0.137,0.237-0.191l0.078-0.406
			l0.095-0.322c0.016-0.064,0.035-0.152,0.049-0.215c0.067-0.005,0.159-0.01,0.23-0.01c0.267-0.353,0.267-0.353,0.504-0.438
			c-0.02-0.539,0.055-0.567,0.494-0.715c0.292-0.722,0.292-0.722,0.055-1.804c1.238-1.024,2.383-0.641,2.185,0.38
			c-0.208,1.074-1.333,1.444-1.808,2.314c0.007,0.01,0.641,2.295,0.729,3.088c0.133,0.022,0.303,0.059,0.436,0.081
			c0.068,0.081,0.286,0.33,0.9,0.517c0.052-0.003,0.056-0.003,0.062-0.003c0,0,0.007,0,0.014,0c0.003,0,0.006,0,0.006,0
			c0.007,0,0.014,0,0.017,0c0-0.002,0.007-0.002,0.01-0.002s0.013,0,0.017,0c0,0,0.003,0,0.009-0.003c0,0,0.007,0,0.014,0
			c0.387-0.002,0.874,0.249,1.235,0.392c1.209,0.179,2.971-1.647,3.614-0.084c-0.299,0.302-0.624,0.478-0.962,0.578
			c-0.618,0.022-1.248,0.046-1.883,0.071c-0.475-0.029-0.942-0.049-1.388,0.059c-0.318,0.144-0.653,0.244-0.972,0.377
			c-0.104,1.485,2.461,0.78,2.227,2.246c-1.219-0.693-1.219-0.693-1.605-0.81c-0.124,0.475-0.124,0.475-0.985,0.795
			c0.056,0.212,0.101,0.499,0.124,0.717l0.198,0.376c0.049,0.453,0.123,0.9,0.143,1.36c-0.032,0.013-0.032,0.013-0.874,0.253
			c-0.02,0.114-0.046,0.273-0.068,0.387c-0.101,0.046-0.237,0.102-0.338,0.145c-0.403-0.18-0.744-0.488-1.193-0.563
			c-0.582,0.492-1.349,0.68-1.924,1.177c-1.6-0.153-2.458-2.014-4.218-1.788c-0.145,0.02-0.145,0.02-0.147,0.02
			c-1.528-0.341-1.528-0.341-1.762,0.225c0.084,0.094,0.198,0.218,0.28,0.309c-0.069,0.218-0.268,0.473-0.436,0.631l0.063,0.091
			l0.048,0.057c0.118,0.153,0.216,0.415,0.221,0.609c-0.484,0.259-0.484,0.259-1.463,0.033c-0.611-0.026-0.796-0.036-1.559,0.445
			c-0.003,0.228-0.003,0.228,0.163,1.576c-0.489,0.553-0.654,1.316-1.21,1.82c-0.309,0.022-0.571,0.041-0.832,0.062
			c-0.104,0.153-0.243,0.354-0.348,0.504c0.153,0.12,0.361,0.273,0.525,0.377c-1.064,0.772-1.064,0.772-1.5,0.903
			c-0.036,0.088-0.082,0.209-0.117,0.296c-0.095,0.026-0.225,0.059-0.322,0.083c-0.228-0.164-0.529-0.38-0.757-0.544
			c-0.875-0.186-0.852,0.279-0.816,0.981c-0.916-0.017-0.916-0.017-1.153,0.438c-0.8-0.208-0.8-0.208-1.112,0.093
			c0.039,0.229,0.039,0.229,0.758,1.198c0.191,0.003,0.448-0.02,0.637-0.054c1.761,1.261,1.761,1.261,2.196,3.502
			c-0.34,0.294-0.496,0.734-0.824,1.037c-0.098-0.017-0.225-0.039-0.325-0.056c-0.02-0.049-4.189-1.342-5.474,0.624
			c0.575,1.788,0.152,3.664,0.484,5.475c0.11,0.18,0.289,0.438,0.489,0.517c0.642,0.245,0.921-0.641,1.535-0.482
			c0.602,0.15,0.67,0.788,1.047,1.143c0.173,0.047,0.173,0.047,0.176,0.047c0.002-0.005,0.003-0.005,0.003-0.005
			c0.002,0,0.005,0,0.007,0c0.003,0,0.003,0,0.003,0c0.005,0,0.007,0,0.01,0h0.003c0.002,0,0.004,0,0.007,0c0,0,0.003,0,0.005,0
			c0.564-0.13,1.057-0.438,1.604-0.618C75.4,79.61,75.4,79.61,75.404,79.61c0.001,0,0.003,0,0.005,0c0,0,0.001,0,0.005,0h0.003
			c0.003,0,0.003-0.003,0.008-0.003h0.004h0.005c0.003,0,0.003,0,0.003,0c1.898-0.107,2.674-1.8,2.682-1.817
			c-0.171-1.921-0.171-1.921,0.098-2.366c0.096,0.003,0.221,0.007,0.316,0.007c0.122,0.146,0.125,0.146,0.127,0.146
			c0.005,0,0.008,0,0.008,0c0.004,0,0.01,0,0.014,0c0.005-0.003,0.005-0.003,0.01-0.003c0.001,0,0.006,0,0.01,0c0,0,0.006,0,0.008,0
			c0.005-0.002,0.008-0.002,0.008-0.002c0.007,0,0.007,0,0.012-0.001c0.298-0.059,0.298-0.059,0.8-0.611
			c0.658-0.533,1.292-1.154,1.295-1.157l0.124-0.198c0.11-0.447-0.014-0.907,0.062-1.353c2.807,0.244,2.807,0.244,3.115-0.047
			c0.215-0.145,0.217-0.145,0.22-0.145c0,0,0.002,0,0.003,0l0,0c0.002,0,0.005,0,0.005,0s0.002,0,0.005,0h0.002c0,0,0.005,0,0.008,0
			l0,0c0.029,0,0.029,0,0.029,0c0.062-0.066,0.144-0.159,0.205-0.225c-0.01-0.092-0.027-0.216-0.041-0.307
			c0.077-0.054,0.176-0.125,0.252-0.179c0.044-0.002,0.048-0.002,0.048-0.002c0.027-0.084,0.066-0.2,0.096-0.284
			c0.123-0.044,0.292-0.103,0.412-0.146c1.499,1,1.499,1,1.533,1.155c0.348,0.192,0.348,0.192,0.524,0.792
			c0.163,0.06,0.418,0.06,0.58-0.002c0.207,0.153,0.439,0.406,0.601,0.604l0.552,0.396l0.352,0.237l0.38,0.085l0.251,0.159
			l0.354,0.117c1.434,0.455,1.434,0.455,1.879,1.404c-0.159,0.224-0.504,0.409-0.751,0.523c-0.877,0.214-1.813,0.106-2.662,0.465
			c0,0.092,0,0.211,0,0.304c1.258,0.612,1.258,0.612,1.538,0.528c0.582,0.524,1.037,0.517,1.255,0.51
			c0.106-0.13,0.214-0.335,0.247-0.5c-0.014-0.107-0.033-0.251-0.046-0.357c1.41-1.379,1.41-1.379,1.241-2.285l-0.182-0.234
			l0.039-0.11l0.11-0.101c0.54,0.143,0.981,0.583,1.59,0.5l0.039-0.14l-0.059-0.2l-0.173-0.263l-0.032-0.174l0.02-0.29l-0.078-0.143
			l-0.143-0.071l-0.309,0.12c-0.683-0.33-1.57-0.722-1.577-0.725l-0.813-0.166c-0.176-0.075-0.409-0.183-0.578-0.264
			c-0.085-0.38-0.134-0.59-1.066-1.303c-0.013-0.107-0.029-0.244-0.039-0.352c-0.734-0.032-0.734-0.032-0.939-0.147
			c-0.026-0.376-0.026-0.376,0.315-0.896c0.186-0.01,0.436,0.039,0.604,0.111c0.218,0.044,0.218,0.044,0.221,0.044
			c0.832,0.934,2.094,1.309,2.965,2.197c1.141,0.276,1.141,0.276,2.224,2.071c0.077,0.306,0.087,0.422,0.104,0.539
			c0.273,0.483,0.318,0.504,0.66,0.663c0.071-0.055,0.169-0.132,0.237-0.188c0.637,0.687,0.776,1.632,1.265,2.399
			c0.542-0.205,1.007-0.587,1.592-0.696c0.033-0.091,0.078-0.214,0.104-0.309c0.917-0.433,0.917-0.433,1.047-0.523
			c-0.146-0.179-0.387-0.38-0.582-0.497c0.007-0.095,0.017-0.226,0.026-0.322c-0.212-0.169-0.491-0.395-0.699-0.562
			c0.075-0.053,0.172-0.121,0.25-0.173c0.205,0.078,0.479,0.19,0.68,0.279c0.776-0.705,2.227-2.024,2.337-0.172
			c0.01,0.181-0.007,0.436,0.068,0.602c-0.55,0.081-0.758,0.113-1.092,0.972c0.818,1.11,2.269,1.108,3.306,1.838
			c0.429-0.159,0.663-0.59,1.072-0.781c0.807,0.424,0.819,0.458,0.959,0.874c-0.149,0.166-0.354,0.387-0.504,0.556
			c0.01,0.092,0.02,0.215,0.029,0.306c0.988,0.546,1.138,0.259,1.502-0.438c-0.153-0.264-0.439-0.413-0.575-0.685
			c0.91-1.299,1.443-0.835,1.758-0.561c-0.272,4.582-1.056,4.756-2.239,5.019c-0.036,0.085-0.081,0.202-0.12,0.291
			c0.02,0.024,3.218,4.244,3.819,5.155c-0.029,0.103-0.144,0.245-0.101,0.345c0.448,1.062,1.481,1.835,1.557,3.081
			c0.071,0.106,0.071,0.106,0.842,0.756c-0.081,1.096-0.094,1.265,0.715,1.515c0.098,0.205,0.156,0.511,0.29,0.689
			c0.059,0.081,0.143,0.179,0.208,0.254c0.123,0.154,0.094,0.471,0.029,0.659c-0.436,1.248,0.666,1.536,2.063,1.901
			c0.02,0,0.02,0,0.023,0c0.75-0.213,1.417-0.63,2.148-0.884c0.003,0,0.003,0,0.003,0h0.003l0,0c0,0,0,0,0.004,0
			c0.003,0,0.003,0,0.003,0l0,0l0,0h0.003c0.023,0,0.023,0,0.026,0c0.179-0.074,0.413-0.198,0.568-0.302
			c0.131-0.029,0.131-0.029,0.134-0.029l0,0c0.003,0,0.006,0,0.006,0l0,0c0,0,0,0,0.004,0h0.003h0.003h0.004
			c2.204-0.484,5.327-7.484,5.334-7.552c-0.426-0.094-0.426-0.094-1.505-1.033c-0.156,0.117-0.345,0.293-0.472,0.436
			c-0.416-0.022-0.416-0.022-0.858,0.371c-0.718-0.051-0.718-0.051-1.576-1.717c-1.037-0.299-1.914-2.74-1.914-2.763
			c0.331-0.075,0.676-0.107,1.011-0.195c0.23,0.242,0.412,0.663,0.536,0.971c0.146,0.268,0.374,0.615,0.54,0.872l0.253,0.184
			l0.357,0.266c0.036,0.035,4.629,2.281,4.729,2.217l3.293,0.582c0.751,0.436,0.448,1.444,1.079,1.948
			c0.003,0.203-0.017,0.473-0.056,0.668c0.007-0.071,0.082,0.145,0.117,0.206c0.183,0.234,0.247,0.558,0.537,0.709
			c0.282-0.095,0.282-0.095,0.62-0.574c0.371,0.751,0.283,4.479,0.267,4.65c-0.23,0.854-0.059,1.728-0.162,2.586
			c0.198,0.882-0.247,1.88,0.484,2.665c0.702-0.331,0.757-0.455,0.906-0.822c0.137-0.303,0.166-0.442,0.202-0.579l0.296-0.382
			c0.045-0.187,0.087-0.378,0.13-0.57l0.133-0.247c0.198-0.436,0.198-0.436,0.283-1.393c0.374-1.116,0.374-1.116,0.585-1.393
			l0.254-0.259c0.123-0.12,0.309-0.262,0.458-0.351c0.013-0.09,0.026-0.178,0.042-0.266c0.849-1.202,0.849-1.202,1.862-2.961
			c0.088-0.017,0.202-0.035,0.29-0.052c0.059,0.191,0.097,0.452,0.11,0.65c0.191-0.053,0.441-0.121,0.63-0.173
			c0.053,0.104,0.053,0.104-0.019,4.409c0.387-0.187,0.387-0.187,0.562-1.013c0.092,0.264,0.092,0.264-0.789,5.101
			c-0.635,2.415-0.635,2.415-1.057,5.37c0.062,0.312,0.159,0.383,0.247,0.458c0.487-1.443,0.487-1.443,0.731-2.275l-0.072-0.179
			c-0.101-0.952,0.192-1.944,1.057-4.886c0.279,0.631-0.162,2.618-0.162,2.618l0,0C138.002,103.037,141.398,92.248,140.654,81.642z"
			/>
		<linearGradient id="SVGID_23_" gradientUnits="userSpaceOnUse" x1="106.1953" y1="120.7461" x2="117.0234" y2="120.7461">
			<stop  offset="0.8226" style="stop-color:#005EAC"/>
			<stop  offset="1" style="stop-color:#004A9F"/>
		</linearGradient>
		<path fill="url(#SVGID_23_)" d="M116.331,113.158c-0.063,0-0.127,0.056-0.179,0.082c-0.423,0.387-0.618,0.624-1.479,1.787
			c-2.438,3.28-2.516,3.234-2.633,3.166c-0.211-0.123-0.169-0.591-0.501-0.51c-0.02,0.003-0.042,0.025-0.064,0.045
			c-0.156,0.095-0.124,0.319-0.279,0.423c-0.406,0.254-0.963,0.169-1.297,0.579c-0.007,0.006-0.843,1.234-0.875,2.71
			c-0.003,0.215-0.02,0.872-0.107,1.061c-0.299,0.63-1.063,0.77-1.437,1.329l-1.284,4.271c0.212,0.23,0.855,0.933,3.946-2.179
			c0.744-0.744,1.798-2.756,2.728-4.534c0.081-0.166,0.081-0.166,1.075-1.642c0.053-0.068,0.342-0.24,0.469-0.312
			c0.504-0.306,0.504-0.306,0.718-1.073c0.322-1.095,0.322-1.095,0.533-1.095c0.014,0.003,0.014,0.003,0.017,0.003h0.007l0,0
			c0.003,0,0.003,0,0.003,0c0.003,0,0.003,0,0.003,0c0.004,0,0.004,0,0.007,0l0,0h0.003c0.026-0.01,0.065-0.017,0.091-0.017
			c0.472-0.789,0.663-1.709,1.171-2.474C117.212,114.417,116.613,113.143,116.331,113.158z"/>
		<radialGradient id="SVGID_24_" cx="129.9536" cy="123.3701" r="0.0139" gradientUnits="userSpaceOnUse">
			<stop  offset="0" style="stop-color:#53C1E9"/>
			<stop  offset="1" style="stop-color:#004A9F"/>
		</radialGradient>
		<path fill="url(#SVGID_24_)" d="M129.953,123.375l0.014-0.02c-0.01,0.01-0.02,0.02-0.026,0.029
			C129.947,123.382,129.947,123.378,129.953,123.375z"/>
		<radialGradient id="SVGID_25_" cx="100.5371" cy="79.6777" r="0.9885" gradientUnits="userSpaceOnUse">
			<stop  offset="0" style="stop-color:#53C1E9"/>
			<stop  offset="1" style="stop-color:#004A9F"/>
		</radialGradient>
		<path fill="url(#SVGID_25_)" d="M101.766,80.036c0.013-0.125-0.01-0.311-0.205-0.461c-0.046-0.039-0.046-0.039-0.67-0.237
			c-0.143-0.049-0.078-0.231-0.198-0.296c-0.068-0.033-0.091-0.031-0.198-0.014c-0.267,0.098-0.565,0.335-0.896,0.704
			c-0.381,0.418-0.325,0.44-0.188,0.499C99.896,80.437,101.729,80.337,101.766,80.036z"/>
		<radialGradient id="SVGID_26_" cx="105.8447" cy="31.4805" r="0" gradientUnits="userSpaceOnUse">
			<stop  offset="0" style="stop-color:#53C1E9"/>
			<stop  offset="1" style="stop-color:#004A9F"/>
		</radialGradient>
		<polygon fill="url(#SVGID_26_)" points="105.845,31.48 105.845,31.48 105.845,31.48 		"/>
		<radialGradient id="SVGID_27_" cx="108.3379" cy="32.6572" r="0.0077" gradientUnits="userSpaceOnUse">
			<stop  offset="0" style="stop-color:#53C1E9"/>
			<stop  offset="1" style="stop-color:#004A9F"/>
		</radialGradient>
		<path fill="url(#SVGID_27_)" d="M108.335,32.654L108.335,32.654L108.335,32.654c-0.004,0-0.004,0-0.004,0l0,0l0,0v-0.002l0,0
			c-0.003,0-0.003,0-0.003,0c0.007,0.005,0.013,0.008,0.02,0.01l-0.007-0.005L108.335,32.654z"/>
		<radialGradient id="SVGID_28_" cx="58.9971" cy="30.8926" r="0.1534" gradientUnits="userSpaceOnUse">
			<stop  offset="0" style="stop-color:#53C1E9"/>
			<stop  offset="1" style="stop-color:#004A9F"/>
		</radialGradient>
		<path fill="url(#SVGID_28_)" d="M59.139,30.763c-0.007,0.001-0.015,0.006-0.02,0.006c-0.036,0.019-0.101,0.046-0.146,0.088
			c-0.059,0.047-0.096,0.114-0.149,0.166c0.117-0.075,0.232-0.146,0.348-0.216C59.164,30.802,59.145,30.788,59.139,30.763z"/>
		<radialGradient id="SVGID_29_" cx="109.0059" cy="33.0117" r="0.527" gradientUnits="userSpaceOnUse">
			<stop  offset="0" style="stop-color:#53C1E9"/>
			<stop  offset="1" style="stop-color:#004A9F"/>
		</radialGradient>
		<path fill="url(#SVGID_29_)" d="M108.348,32.662l0.306,0.167c0.302,0.16,0.63,0.33,1.011,0.532
			C109.226,33.115,109.167,33.08,108.348,32.662z"/>
		<radialGradient id="SVGID_30_" cx="50.5962" cy="33.4712" r="0.265" gradientUnits="userSpaceOnUse">
			<stop  offset="0" style="stop-color:#53C1E9"/>
			<stop  offset="1" style="stop-color:#004A9F"/>
		</radialGradient>
		<path fill="url(#SVGID_30_)" d="M50.271,33.658c0.224-0.13,0.443-0.257,0.649-0.374C50.446,33.538,50.336,33.597,50.271,33.658z"
			/>
		<radialGradient id="SVGID_31_" cx="64.9722" cy="28.5244" r="0.4011" gradientUnits="userSpaceOnUse">
			<stop  offset="0" style="stop-color:#53C1E9"/>
			<stop  offset="1" style="stop-color:#004A9F"/>
		</radialGradient>
		<path fill="url(#SVGID_31_)" d="M64.443,28.676c0.01-0.002,0.029,0,0.042,0.003l0.039,0.018c0.186-0.022,0.205-0.03,0.443-0.122
			c0.168-0.062,0.215-0.074,0.259-0.084c0.017-0.003,0.032-0.003,0.046-0.008l0.233-0.116c0.002-0.001,0.004-0.006,0.007-0.01
			c-0.003,0-0.003-0.003-0.003-0.003c-0.033-0.006-0.137,0.01-0.146,0.012c-0.14,0.032-0.267,0.115-0.406,0.149
			c0.034-0.037,0.084-0.052,0.123-0.078c-0.006-0.005-0.01-0.005-0.146,0.056c0.023-0.015,0.062-0.038,0.087-0.054l-0.022,0.013
			l-0.049-0.007l-0.162,0.075l-0.053-0.002c-0.081,0.031-0.108,0.039-0.13,0.041c0-0.002,0-0.003,0-0.003
			c0.007-0.007,0.01-0.009,0.014-0.009c-0.024,0.012-0.056,0.031-0.077,0.042c-0.089,0.054-0.102,0.07-0.11,0.083
			C64.437,28.674,64.44,28.676,64.443,28.676L64.443,28.676z"/>
		<radialGradient id="SVGID_32_" cx="106.1582" cy="40.4766" r="0.6006" gradientUnits="userSpaceOnUse">
			<stop  offset="0" style="stop-color:#53C1E9"/>
			<stop  offset="1" style="stop-color:#004A9F"/>
		</radialGradient>
		<path fill="url(#SVGID_32_)" d="M105.634,39.917c-0.065,0.021-0.072,0.067-0.063,0.151c-0.016-0.026-0.039-0.049-0.052-0.075
			c0.306,0.567,0.646,0.944,0.646,0.948c0.004,0,0.553,0.196,0.624,0.027c0.029-0.081-0.052-0.211-0.104-0.283
			C106.472,40.382,105.877,39.896,105.634,39.917z"/>
		<g>
			<linearGradient id="SVGID_33_" gradientUnits="userSpaceOnUse" x1="71.6968" y1="34.8105" x2="82.724" y2="27.7076">
				<stop  offset="0" style="stop-color:#53C1E9"/>
				<stop  offset="0.8817" style="stop-color:#2792CE"/>
			</linearGradient>
			<path fill="url(#SVGID_33_)" d="M78.851,27.235c0.421,0.925,0.62,1.346,1.022,1.612c0.28,0.174,0.415,0.211,1.717,0.499
				c0.539,0.122,0.994,0.434,1.508,0.629c0.264,0.104,0.816,0.313,2.757-0.084c-0.426-0.636-1.118-1.09-1.307-1.883
				c-0.156-0.676,0.473-1.167,0.438-1.806c0-0.052-0.017-0.115-0.02-0.154c-0.075-0.016-0.156-0.016-0.23-0.024
				c-0.019,0-0.029,0-0.054,0c-0.535-0.005-0.724,0.184-0.964,0.479c-0.192,0.241-0.367,0.301-0.604,0.317
				c-0.985,0.096-1.58-0.891-2.539-0.886c0.021,0.064,0.056,0.147,0.085,0.206c0.11,0.613-0.228,0.8-0.816,0.912
				c-0.286-0.299-0.678-0.462-0.962-0.758c-0.174,0.023-0.403,0.046-0.582,0.062c0.348,0.93,0.348,0.93,0.493,1.151
				C78.811,27.429,78.843,27.313,78.851,27.235z"/>
			<linearGradient id="SVGID_34_" gradientUnits="userSpaceOnUse" x1="73.5342" y1="37.666" x2="84.5625" y2="30.5624">
				<stop  offset="0" style="stop-color:#53C1E9"/>
				<stop  offset="0.8817" style="stop-color:#2792CE"/>
			</linearGradient>
			<path fill="url(#SVGID_34_)" d="M74.193,31.686c1.189-0.052,2.098,0.529,2.202,1.407c0.016,0.124-0.004,0.783-1.756,1.557
				c-0.049,0.029-0.059,0.134-0.074,0.192c0.064,0.089,0.074,0.103,0.277,0.098c0.007,0,0.007,0,0.009,0l-0.112,0.184
				c1.251-0.093,1.767-0.135,2.635-0.212c-1.02,1.017-1.187,1.587-0.721,2.667c0.572-0.029,1.14,0.124,1.707,0.015
				c-0.112,0.44-0.372,0.863-2.185,0.847c0.837,1.898,1.848,2.747,2.28,3.116c1.778-0.477,2.194-1.25,2.141-3.971
				c-0.047-2.002,0.076-2.408,0.856-2.927c0.365,0.372,1.588,1.688,2.175,3.123c0.211,0.525,0.395,0.74,0.514,0.819
				c0.123,0.078,1.657,0.561,1.801-0.889c0.042-0.462-0.063-1.073-0.176-1.521c-0.699-2.831-1.465-3.059-4.325-3.927
				c-0.096-0.02-0.232-0.04-0.307-0.104c-0.868-0.712-0.959-1.979-1.898-2.646c-0.758-0.532-1.434-0.61-1.83-0.651
				c-0.734-0.079-0.819-0.177-0.995-0.739c-0.097,0.01-0.211,0.018-0.302,0.034c-0.226,0.037-0.226,0.037-1.977,0.515
				c0.146,0.345,0.134,0.731,0.299,1.066c-0.191-0.125-0.448-0.296-0.634-0.419c-0.5,0.549-0.686,1.3-1.231,1.823
				c-0.198,0.203-0.621,0.288-0.946,0.294C71.857,31.786,71.857,31.786,74.193,31.686z"/>
		</g>
		<radialGradient id="SVGID_35_" cx="74.8677" cy="55.251" r="0.2021" gradientUnits="userSpaceOnUse">
			<stop  offset="0" style="stop-color:#53C1E9"/>
			<stop  offset="1" style="stop-color:#004A9F"/>
		</radialGradient>
		<path fill="url(#SVGID_35_)" d="M74.864,55.196c-0.143,0.025-0.225,0.081-0.276,0.113c0.186-0.015,0.372-0.032,0.56-0.047
			C75.046,55.188,74.955,55.188,74.864,55.196z"/>
		<path fill="none" d="M80.24,67.425c-27.7,0-50.158,5.048-50.158,11.269h100.32C130.402,72.473,107.941,67.425,80.24,67.425z"/>
		<linearGradient id="SVGID_36_" gradientUnits="userSpaceOnUse" x1="9.7793" y1="85.9829" x2="151.1143" y2="85.9829">
			<stop  offset="0.0699" style="stop-color:#53C1E9"/>
			<stop  offset="1" style="stop-color:#004A9F"/>
		</linearGradient>
		<path fill-rule="evenodd" clip-rule="evenodd" fill="url(#SVGID_36_)" d="M34.307,136.484c0.255,0.221,0.512,0.438,0.771,0.656
			c0.18,0.149,0.358,0.299,0.541,0.448c0.279,0.231,0.563,0.459,0.847,0.683c0.164,0.131,0.323,0.264,0.487,0.391
			c0.356,0.276,0.715,0.549,1.074,0.819c0.095,0.071,0.19,0.146,0.286,0.218c0.465,0.344,0.938,0.688,1.414,1.023
			c0.049,0.032,0.098,0.065,0.146,0.101c0.423,0.3,0.849,0.592,1.277,0.878c0.127,0.085,0.255,0.169,0.38,0.25
			c0.357,0.234,0.716,0.469,1.076,0.699c0.149,0.094,0.303,0.188,0.448,0.279c0.345,0.215,0.689,0.43,1.036,0.638
			c0.06,0.035,0.118,0.071,0.177,0.106c0.007,0.004,0.013,0.007,0.02,0.01c10.58,6.31,22.945,9.943,36.161,9.943
			c13.704,0,26.492-3.903,37.325-10.655c0.007-0.003,0.014-0.006,0.02-0.006c0.082-0.052,0.16-0.104,0.241-0.153
			c0.328-0.211,0.656-0.422,0.984-0.634c0.156-0.101,0.313-0.204,0.472-0.309c0.318-0.215,0.637-0.429,0.955-0.646
			c0.153-0.107,0.31-0.215,0.469-0.322c0.315-0.221,0.63-0.445,0.942-0.673c0.149-0.11,0.299-0.218,0.448-0.325
			c0.322-0.237,0.644-0.48,0.966-0.725c0.13-0.101,0.264-0.201,0.399-0.306c0.345-0.267,0.687-0.539,1.024-0.81
			c0.104-0.084,0.208-0.165,0.312-0.247c0.888-0.725,1.762-1.469,2.617-2.232c0.049-0.049,0.101-0.095,0.152-0.144
			c0.335-0.299,0.667-0.601,0.991-0.906h-0.003c10.317-9.661,17.734-22.373,20.81-36.698c0.078-0.354,0.153-0.709,0.225-1.067
			c0.032-0.174,0.064-0.347,0.101-0.519c0.796-4.252,1.216-8.634,1.216-13.116c0-28.984-17.462-53.899-42.441-64.795
			c19.619,10.208,33.024,30.721,33.024,54.362c0,33.82-27.431,61.244-61.249,61.244c-33.819,0-61.245-27.424-61.245-61.244
			c0-23.642,13.401-44.154,33.02-54.362C27.248,29.234,9.779,54.149,9.779,83.134c0,4.57,0.439,9.04,1.271,13.371
			c0.027,0.142,0.052,0.288,0.081,0.428c0.073,0.373,0.156,0.744,0.235,1.114c3.106,14.244,10.504,26.875,20.768,36.487h-0.008
			c0.112,0.104,0.228,0.204,0.341,0.309c0.183,0.169,0.368,0.338,0.55,0.504"/>
		<linearGradient id="SVGID_37_" gradientUnits="userSpaceOnUse" x1="6.7207" y1="162.0811" x2="155.541" y2="162.0811">
			<stop  offset="0.0699" style="stop-color:#53C1E9"/>
			<stop  offset="1" style="stop-color:#004A9F"/>
		</linearGradient>
		<path fill="url(#SVGID_37_)" d="M6.721,171.618c0,0,25.92-8.389,74.41-8.389c48.487,0,74.41,8.389,74.41,8.389
			s-20.399-19.073-74.41-19.073C27.121,152.545,6.721,171.618,6.721,171.618z"/>
		<path fill-rule="evenodd" clip-rule="evenodd" fill="#ABAAAA" d="M68.321,8.036l17.062-4.682
			c6.797-1.867,21.795,1.802,1.585,7.573l-10.102,2.887c0.992,1.349,1.665,2.295,2.656,3.644l1.17-0.364
			c1.707-0.614,2.428,1.372,1.262,1.935l-0.9,0.458l3.209,4.463l-3.38,0.854l-14.366-8.114l-16.21,4.321l3.374,1.997l-1.518,0.608
			l-11.434-5.84l1.84-0.877l2.488,1.314l0.445-7.793l1.49-0.749l2.902,5.892l7.008-2.845c-6.399-3.563-12.8-7.122-19.202-10.685
			L40.676,0l13.738,3.972l1.375-0.988c2.437-1.835,3.68,0.599,2.673,1.336l-0.793,0.599L68.321,8.036z"/>
	</g>
	<g>
		<g>
			<path d="M169.582,77.535c0-2.486,2.017-4.492,4.5-4.492c2.481,0,4.497,2.006,4.497,4.492c0,2.481-2.016,4.495-4.497,4.495
				C171.599,82.03,169.582,80.017,169.582,77.535z"/>
			<path d="M169.582,93.594c0-2.479,2.017-4.493,4.5-4.493c2.481,0,4.497,2.014,4.497,4.493c0,2.482-2.016,4.496-4.497,4.496
				C171.599,98.09,169.582,96.076,169.582,93.594z"/>
			<rect x="192.236" y="85.401" fill="none" width="3.505" height="7.26"/>
			<rect x="192.236" y="73.537" fill="none" width="3.505" height="6.279"/>
			<rect x="192.236" y="99.164" fill="none" width="3.505" height="7.44"/>
			<path d="M192.236,99.164h3.505v7.44h6.025V73.537h1.295v-6.662h-4.892l4.076-4.542v-5.614h-17.137v6.435h8.737l-3.028,3.722
				h-6.502v6.662h1.865v33.067h6.055V99.164z M192.236,73.537h3.505v6.279h-3.505V73.537z M192.236,85.401h3.505v7.26h-3.505V85.401
				z"/>
			<path d="M230.964,71.578v-7.512h-19.158v-7.348h-6.314c0,0,0.276,10.285-1.498,10.195v6.67h1.918
				c0.861,0,1.544-0.118,2.047-0.351c0.506-0.227,2.147-1.655,2.147-1.655h4.073l-2.248,8.238l-1.194-4.011h-6.529l4.22,14.739
				c0,0-2.94,17.405-4.071,18.098c-0.354,0.214-0.883,0.363-1.637,0.363l-16.537-0.099v5.781h15.585h2.244
				c1.455,0,2.809-0.251,4.069-0.746c1.263-0.491,2.072-1.718,2.429-3.675l1.516-8.864l2.336,9.911
				c0.254,1.05,0.705,1.895,1.357,2.538c0.648,0.639,1.87,0.961,3.664,0.961h4.037v-5.933h-2.4
				c-1.199,0.846-5.741-19.772-5.741-19.772l5.087-17.53H230.964z"/>
			<path d="M172.864,108.907v-5.399v-6.396v-6.785v-9.691V63.623h3.408v17.012v9.691v6.785v6.396v3.097h6.375V56.719h-16.162v57.97
				h15.953c0,0-0.062-5.338,0-5.781H172.864z"/>
			<rect x="327.025" y="63.654" fill="none" width="14.798" height="5.968"/>
			<path d="M350.412,94.868c-1.539,0-2.714-0.45-3.523-1.339c-0.81-0.893-1.623-2.216-2.447-3.959c1.54-0.59,2.654-1.176,3.35-1.754
				c0.693-0.58,1.204-1.368,1.529-2.365c0.328-1.002,0.484-2.183,0.484-3.551V56.719h-42.196v6.936h11.534v5.968h-14.458v-5.968l0,0
				v-6.936h-8.081V89.57h7.068l-1.576,3.658c-0.908,2.063-2.737,3.095-5.492,3.095h-2.241v6.559h3.814
				c2.133,0,3.723-0.169,4.785-0.517c1.064-0.346,1.996-0.916,2.795-1.705c0.802-0.788,1.69-2.002,2.679-3.639v7.92
				c0,2.186-0.626,3.276-1.892,3.276h-9.462v6.664h8.17c2.669,0,4.695-0.151,6.071-0.444c1.379-0.297,2.59-0.925,3.646-1.895
				c1.057-0.967,1.58-2.816,1.58-5.556V93.637l-5.999-0.065l1.203-4.001H335.7l2.531,4.001l-4.646,0.065v21.209h8.238V98.313
				l1.52,1.698c0.438,0.592,1.243,1.06,2.41,1.408c1.167,0.351,2.643,0.52,4.431,0.52h2.21v-7.071H350.412z M304.685,82.944v-6.691
				h14.458v5.085h7.883v-5.215h14.798v4.263c0,0.881-0.176,1.505-0.551,1.877c-0.366,0.366-1.003,0.556-1.907,0.556 M341.823,69.622
				h-14.798v-5.968h14.798V69.622z"/>
			<path d="M243.426,108.235c-1.011,0-1.73-0.174-2.159-0.532c-0.435-0.358-0.65-1.462-0.65-3.317V71.578h6.943v31.181h8.238v-7.45
				l0,0v-23.73h20.673l-0.033,18.878c-0.021,2.205-0.272,3.567-0.755,4.082c-0.481,0.521-1.856,0.771-4.105,0.771h-12.963v7.45
				h17.318c4.266,0,6.813-1.074,7.625-3.217c0.807-2.145,1.211-4.27,1.211-6.375V71.578h2.681v-7.512h-2.681v-7.348h-8.298v7.348
				h-20.673v-7.348h-8.238v7.348h-6.943v-7.348h-8.267v7.348h-2.052v7.512h2.052v33.918c0,3.549,0.371,4.976,1.117,6.187
				c0.747,1.215,1.816,2.027,3.205,2.461c1.39,0.434,3.132,0.651,5.239,0.651l56.448,0.087v-6.646H243.426z"/>
		</g>
		<g>
			<path d="M172.242,138.264l-3.577-8.604c-0.24-0.553-0.53-0.974-0.868-1.262c-0.338-0.291-0.767-0.484-1.287-0.583l-0.024-0.891
				h6.339v0.891c-0.347,0.083-0.587,0.184-0.719,0.304c-0.132,0.118-0.198,0.299-0.198,0.538c0,0.115,0.02,0.245,0.056,0.39
				c0.037,0.145,0.093,0.308,0.167,0.489l1.957,4.717l2.104-4.717c-0.166-0.611-0.364-1.035-0.595-1.275
				c-0.23-0.239-0.565-0.392-1.003-0.459v-0.877h6.041l0.026,0.877c-0.479,0.051-0.803,0.137-0.972,0.262
				c-0.169,0.124-0.254,0.338-0.254,0.644c0,0.107,0.018,0.231,0.056,0.371c0.037,0.14,0.097,0.301,0.179,0.482l2.005,4.717
				l1.845-4.357c0.083-0.183,0.145-0.353,0.188-0.514c0.04-0.161,0.06-0.313,0.06-0.452c0-0.313-0.125-0.563-0.377-0.749
				s-0.637-0.315-1.157-0.39v-0.891h5.014l-0.025,0.891c-0.602,0.099-1.068,0.291-1.398,0.575c-0.331,0.284-0.684,0.898-1.064,1.838
				l-3.318,8.035h-1.622l-3.02-7.03l-2.909,7.03H172.242z"/>
			<path d="M191.839,138.264l-3.577-8.604c-0.24-0.553-0.529-0.974-0.867-1.262c-0.338-0.291-0.768-0.484-1.287-0.583l-0.024-0.891
				h6.338v0.891c-0.346,0.083-0.587,0.184-0.718,0.304c-0.132,0.118-0.198,0.299-0.198,0.538c0,0.115,0.02,0.245,0.055,0.39
				c0.037,0.145,0.093,0.308,0.168,0.489l1.956,4.717l2.105-4.717c-0.166-0.611-0.364-1.035-0.596-1.275
				c-0.23-0.239-0.565-0.392-1.002-0.459v-0.877h6.041l0.025,0.877c-0.479,0.051-0.803,0.137-0.972,0.262
				c-0.169,0.124-0.254,0.338-0.254,0.644c0,0.107,0.019,0.231,0.056,0.371s0.098,0.301,0.179,0.482l2.006,4.717l1.845-4.357
				c0.083-0.183,0.145-0.353,0.187-0.514c0.041-0.161,0.061-0.313,0.061-0.452c0-0.313-0.125-0.563-0.377-0.749
				s-0.638-0.315-1.157-0.39v-0.891h5.014l-0.024,0.891c-0.604,0.099-1.069,0.291-1.399,0.575s-0.685,0.898-1.064,1.838
				l-3.319,8.035h-1.621l-3.021-7.03l-2.909,7.03H191.839z"/>
			<path d="M211.437,138.264l-3.577-8.604c-0.24-0.553-0.53-0.974-0.868-1.262c-0.338-0.291-0.767-0.484-1.287-0.583l-0.024-0.891
				h6.339v0.891c-0.347,0.083-0.587,0.184-0.719,0.304c-0.132,0.118-0.198,0.299-0.198,0.538c0,0.115,0.02,0.245,0.057,0.39
				c0.036,0.145,0.092,0.308,0.166,0.489l1.957,4.717l2.104-4.717c-0.166-0.611-0.362-1.035-0.595-1.275
				c-0.23-0.239-0.564-0.392-1.003-0.459v-0.877h6.041l0.026,0.877c-0.479,0.051-0.803,0.137-0.972,0.262
				c-0.17,0.124-0.254,0.338-0.254,0.644c0,0.107,0.018,0.231,0.055,0.371c0.038,0.14,0.098,0.301,0.18,0.482l2.005,4.717
				l1.845-4.357c0.083-0.183,0.145-0.353,0.188-0.514c0.04-0.161,0.06-0.313,0.06-0.452c0-0.313-0.125-0.563-0.377-0.749
				s-0.637-0.315-1.157-0.39v-0.891h5.014l-0.024,0.891c-0.603,0.099-1.069,0.291-1.399,0.575c-0.329,0.284-0.684,0.898-1.064,1.838
				l-3.318,8.035h-1.622l-3.02-7.03l-2.909,7.03H211.437z"/>
			<path d="M225.352,136.357c0-0.512,0.184-0.946,0.551-1.307c0.368-0.359,0.812-0.538,1.331-0.538c0.521,0,0.958,0.179,1.312,0.533
				c0.356,0.354,0.533,0.791,0.533,1.312c0,0.52-0.18,0.964-0.539,1.331c-0.357,0.367-0.793,0.551-1.306,0.551
				c-0.52,0-0.963-0.184-1.331-0.551C225.535,137.321,225.352,136.877,225.352,136.357z"/>
			<path d="M235.479,138.264l-3.577-8.604c-0.24-0.553-0.529-0.974-0.868-1.262c-0.338-0.291-0.767-0.484-1.287-0.583l-0.024-0.891
				h6.339v0.891c-0.347,0.083-0.587,0.184-0.719,0.304c-0.131,0.118-0.198,0.299-0.198,0.538c0,0.115,0.02,0.245,0.056,0.39
				c0.037,0.145,0.093,0.308,0.167,0.489l1.957,4.717l2.104-4.717c-0.165-0.611-0.364-1.035-0.595-1.275
				c-0.232-0.239-0.565-0.392-1.003-0.459v-0.877h6.041l0.026,0.877c-0.479,0.051-0.805,0.137-0.972,0.262
				c-0.169,0.124-0.254,0.338-0.254,0.644c0,0.107,0.018,0.231,0.056,0.371c0.035,0.14,0.098,0.301,0.179,0.482l2.005,4.717
				l1.845-4.357c0.083-0.183,0.145-0.353,0.188-0.514c0.039-0.161,0.06-0.313,0.06-0.452c0-0.313-0.125-0.563-0.377-0.749
				s-0.637-0.315-1.157-0.39v-0.891h5.014l-0.025,0.891c-0.602,0.099-1.068,0.291-1.397,0.575c-0.332,0.284-0.687,0.898-1.064,1.838
				l-3.319,8.035h-1.622l-3.02-7.03l-2.909,7.03H235.479z"/>
			<path d="M259.336,123.681c0-0.502-0.097-0.846-0.285-1.022c-0.189-0.176-0.619-0.353-1.287-0.525l-0.025-0.94l4.432-1.536h0.582
				v14.548c0,0.504,0.096,0.844,0.284,1.021c0.19,0.179,0.621,0.353,1.287,0.526l0.026,0.941l-4.433,1.547h-0.581v-2.006
				c-0.876,0.628-1.663,1.093-2.365,1.394s-1.334,0.451-1.894,0.451c-1.28,0-2.332-0.484-3.157-1.447
				c-0.826-0.966-1.237-2.204-1.237-3.716c0-1.765,0.585-3.259,1.757-4.48c1.172-1.223,2.617-1.832,4.333-1.832
				c0.273,0,0.585,0.026,0.941,0.08c0.354,0.055,0.896,0.159,1.622,0.315V123.681z M259.336,128.954
				c-0.504-0.412-0.966-0.718-1.387-0.916c-0.423-0.198-0.813-0.296-1.177-0.296c-0.834,0-1.502,0.362-2.006,1.089
				c-0.504,0.725-0.754,1.695-0.754,2.909c0,1.361,0.24,2.427,0.724,3.193c0.482,0.768,1.153,1.152,2.012,1.152
				c0.396,0,0.803-0.091,1.219-0.273c0.418-0.182,0.873-0.461,1.369-0.842V128.954z"/>
			<path d="M267.481,128.349h-1.448v-1.239c0.7-0.354,1.344-0.82,1.931-1.399c0.587-0.576,1.135-1.295,1.646-2.153h1.016v3.368
				h3.663l-0.247,1.424h-3.416v4.405c0,1.742,0.083,2.826,0.247,3.251c0.166,0.424,0.472,0.637,0.917,0.637
				c0.238,0,0.517-0.099,0.835-0.297c0.317-0.197,0.671-0.491,1.059-0.878l0.605,1.038c-0.568,0.563-1.157,0.979-1.763,1.252
				c-0.606,0.272-1.262,0.408-1.962,0.408c-1.157,0-1.959-0.376-2.409-1.127s-0.674-2.203-0.674-4.357V128.349z"/>
			<path d="M280.158,129.585l0.903-1.596c0.273-0.472,0.548-0.819,0.829-1.047c0.281-0.226,0.573-0.34,0.879-0.34
				c0.215,0,0.435,0.024,0.657,0.073c0.223,0.051,0.482,0.133,0.78,0.249l1.175,0.456l-1.276,2.737l-1.038-0.458
				c-0.166-0.067-0.345-0.121-0.538-0.161c-0.195-0.041-0.387-0.062-0.577-0.062c-0.453,0-1.023,0.45-1.708,1.349l-0.086,0.125
				v4.406c0,0.627,0.112,1.048,0.333,1.263c0.225,0.215,0.633,0.326,1.226,0.335l0.037,0.94h-6.599v-0.928
				c0.604-0.017,1.016-0.133,1.238-0.348c0.225-0.215,0.335-0.636,0.335-1.263v-5.199c0-0.504-0.094-0.844-0.284-1.021
				c-0.19-0.178-0.619-0.354-1.289-0.526v-0.93l4.421-1.548h0.582V129.585z"/>
			<path d="M291.101,135.317c0,0.627,0.112,1.048,0.335,1.263s0.636,0.331,1.238,0.348l0.024,0.928h-6.585v-0.94
				c0.601-0.009,1.017-0.122,1.249-0.342c0.231-0.218,0.347-0.637,0.347-1.256v-5.199c0-0.496-0.096-0.834-0.291-1.016
				c-0.193-0.183-0.629-0.359-1.305-0.531v-0.93l4.407-1.548h0.58V135.317z M287.4,122.107c0-0.519,0.179-0.957,0.538-1.312
				c0.358-0.354,0.795-0.533,1.307-0.533c0.528,0,0.974,0.181,1.336,0.539c0.363,0.359,0.546,0.795,0.546,1.306
				c0,0.52-0.184,0.965-0.551,1.331c-0.369,0.367-0.812,0.553-1.331,0.553c-0.512,0-0.948-0.183-1.307-0.546
				C287.579,123.082,287.4,122.637,287.4,122.107z"/>
			<path d="M298.753,141.433c0,0.611,0.113,1.026,0.339,1.245c0.228,0.218,0.646,0.335,1.259,0.353v0.941h-6.588l0.024-0.941
				c0.611-0.018,1.025-0.131,1.245-0.348c0.218-0.213,0.327-0.631,0.327-1.25v-11.314c0-0.504-0.095-0.844-0.285-1.021
				c-0.189-0.178-0.617-0.354-1.287-0.526l-0.024-0.93l4.408-1.548h0.582v2.327c0.857-0.61,1.641-1.065,2.352-1.366
				c0.708-0.303,1.354-0.452,1.932-0.452c1.278,0,2.331,0.482,3.156,1.448c0.824,0.966,1.239,2.204,1.239,3.714
				c0,0.834-0.156,1.62-0.465,2.358c-0.311,0.737-0.766,1.417-1.369,2.036c-0.595,0.611-1.229,1.066-1.912,1.368
				c-0.682,0.301-1.409,0.452-2.185,0.452c-0.389,0-0.817-0.037-1.289-0.11c-0.47-0.075-0.956-0.183-1.459-0.322V141.433z
				 M298.753,135.726c0.487,0.397,0.945,0.693,1.379,0.892c0.435,0.198,0.838,0.298,1.208,0.298c0.834,0,1.502-0.361,2.006-1.084
				c0.504-0.722,0.756-1.686,0.756-2.89c0-1.362-0.242-2.429-0.726-3.195c-0.482-0.768-1.153-1.151-2.012-1.151
				c-0.413,0-0.832,0.092-1.256,0.273c-0.426,0.181-0.877,0.458-1.355,0.829V135.726z"/>
			<path d="M309.882,136.357c0-0.512,0.184-0.946,0.551-1.307c0.368-0.359,0.812-0.538,1.332-0.538c0.52,0,0.957,0.179,1.312,0.533
				c0.355,0.354,0.532,0.791,0.532,1.312c0,0.52-0.18,0.964-0.537,1.331c-0.359,0.367-0.795,0.551-1.307,0.551
				c-0.521,0-0.964-0.184-1.332-0.551C310.065,137.321,309.882,136.877,309.882,136.357z"/>
			<path d="M320.542,129.66v5.657c0,0.595,0.109,1.009,0.327,1.245c0.219,0.235,0.596,0.353,1.133,0.353h0.111l0.024,0.94h-6.598
				v-0.928c0.603-0.017,1.016-0.133,1.238-0.348s0.333-0.636,0.333-1.263v-5.199c0-0.47-0.101-0.808-0.303-1.008
				c-0.203-0.203-0.625-0.384-1.269-0.539v-0.93l4.419-1.548h0.583v2.352c1.221-0.659,2.224-1.131,3.009-1.415
				c0.783-0.286,1.459-0.428,2.029-0.428c0.998,0,1.718,0.333,2.16,1.003c0.44,0.668,0.661,1.786,0.661,3.354
				c0,0.289-0.001,0.511-0.005,0.663c-0.005,0.152-0.016,0.306-0.032,0.463l-0.123,2.352c0,0.075-0.004,0.181-0.012,0.317
				c-0.01,0.135-0.013,0.232-0.013,0.291c0,0.692,0.113,1.165,0.341,1.417c0.227,0.252,0.653,0.401,1.281,0.452l0.024,0.94h-6.61
				v-0.928c0.594-0.017,1.013-0.24,1.255-0.67c0.245-0.429,0.382-1.273,0.416-2.536l0.05-1.796v-0.408
				c0-1.064-0.125-1.813-0.372-2.241c-0.247-0.43-0.664-0.644-1.251-0.644c-0.362,0-0.783,0.088-1.263,0.26
				C321.61,129.064,321.093,129.321,320.542,129.66z"/>
			<path d="M342.081,135.242c-0.808,1.016-1.656,1.773-2.543,2.272c-0.886,0.499-1.83,0.749-2.83,0.749
				c-1.599,0-2.915-0.528-3.949-1.585c-1.03-1.056-1.547-2.405-1.547-4.048c0-1.717,0.572-3.151,1.716-4.302
				c1.143-1.151,2.563-1.727,4.265-1.727c1.098,0,2.071,0.309,2.921,0.928s1.399,1.416,1.646,2.39
				c0.016,0.083,0.037,0.195,0.062,0.335c0.101,0.536,0.281,0.925,0.546,1.163v0.73h-7.588c0.064,1.369,0.403,2.426,1.014,3.169
				c0.609,0.742,1.44,1.114,2.488,1.114c0.604,0,1.164-0.136,1.685-0.409c0.52-0.271,1.048-0.709,1.584-1.312L342.081,135.242z
				 M334.779,131.158h4.01c-0.017-1.064-0.194-1.872-0.532-2.42c-0.338-0.55-0.828-0.824-1.474-0.824
				c-0.66,0-1.16,0.274-1.499,0.824C334.948,129.286,334.779,130.094,334.779,131.158z"/>
			<path d="M345.585,128.349h-1.447v-1.239c0.7-0.354,1.344-0.82,1.931-1.399c0.587-0.576,1.134-1.295,1.646-2.153h1.016v3.368
				h3.663l-0.247,1.424h-3.416v4.405c0,1.742,0.083,2.826,0.247,3.251c0.166,0.424,0.471,0.637,0.916,0.637
				c0.239,0,0.518-0.099,0.836-0.297c0.316-0.197,0.671-0.491,1.058-0.878l0.606,1.038c-0.568,0.563-1.157,0.979-1.764,1.252
				c-0.605,0.272-1.261,0.408-1.961,0.408c-1.157,0-1.959-0.376-2.409-1.127s-0.675-2.203-0.675-4.357V128.349z"/>
		</g>
	</g>
</g>
<rect x="-118.078" y="-335.136" fill="none" width="595.271" height="841.89"/>
</svg>
