<?xml version="1.0" encoding="utf-8"?>
<!-- Generator: Adobe Illustrator 16.0.0, SVG Export Plug-In . SVG Version: 6.00 Build 0)  -->
<!DOCTYPE svg PUBLIC "-//W3C//DTD SVG 1.1//EN" "http://www.w3.org/Graphics/SVG/1.1/DTD/svg11.dtd">
<svg version="1.1" id="图层_1" xmlns="http://www.w3.org/2000/svg" xmlns:xlink="http://www.w3.org/1999/xlink" x="0px" y="0px"
	 width="150.417px" height="218.349px" viewBox="0 0 150.417 218.349" enable-background="new 0 0 150.417 218.349"
	 xml:space="preserve">
<g>
	<g>
		<path d="M11.814,188.539c0-1.808,1.464-3.267,3.269-3.267s3.268,1.459,3.268,3.267c0,1.804-1.463,3.267-3.268,3.267
			S11.814,190.342,11.814,188.539z"/>
		<circle cx="15.083" cy="200.211" r="3.269"/>
		<rect x="28.281" y="194.256" fill="none" width="2.547" height="5.275"/>
		<rect x="28.281" y="185.632" fill="none" width="2.547" height="4.564"/>
		<rect x="28.281" y="204.258" fill="none" width="2.547" height="5.408"/>
		<path d="M28.281,204.258h2.547v5.408h4.379v-24.034h0.941v-4.843h-3.554l2.959-3.303v-4.079H23.098v4.678h6.353l-2.201,2.704
			h-4.726v4.843h1.354v24.034h4.403V204.258z M28.281,185.632h2.547v4.564h-2.547V185.632z M28.281,194.256h2.547v5.275h-2.547
			V194.256z"/>
		<path d="M56.43,184.209v-5.461H42.504v-5.341h-4.589c0,0,0.201,7.476-1.089,7.411v4.847h1.393c0.626,0,1.121-0.085,1.49-0.254
			c0.367-0.166,1.559-1.202,1.559-1.202h2.96l-1.633,5.987l-0.868-2.916h-4.747l3.067,10.714c0,0-2.137,12.65-2.959,13.154
			c-0.257,0.156-0.643,0.264-1.191,0.264l-12.02-0.072v4.203h11.33h1.63c1.057,0,2.042-0.182,2.959-0.543
			c0.918-0.357,1.506-1.248,1.766-2.672l1.102-6.442l1.697,7.203c0.185,0.764,0.514,1.378,0.986,1.847
			c0.473,0.465,1.36,0.698,2.662,0.698h2.936v-4.313h-1.745c-0.872,0.615-4.173-14.37-4.173-14.37l3.698-12.741H56.43z"/>
		<path d="M14.199,211.34v-3.923v-4.651v-4.931v-7.044v-12.365h2.476v12.365v7.044v4.931v4.651v2.249h4.634v-36.259H9.563v42.136
			h11.597c0,0-0.045-3.881,0-4.203H14.199z"/>
		<rect x="126.254" y="178.449" fill="none" width="10.756" height="4.337"/>
		<path d="M143.252,201.137c-1.118,0-1.972-0.328-2.561-0.975c-0.588-0.647-1.18-1.609-1.777-2.877
			c1.118-0.429,1.928-0.854,2.434-1.274c0.503-0.422,0.873-0.994,1.111-1.72c0.236-0.728,0.353-1.586,0.353-2.58v-18.304H112.14
			v5.041h8.382v4.337h-10.51v-4.337l0,0v-5.041h-5.871v23.878h5.139l-1.147,2.659c-0.659,1.498-1.989,2.249-3.991,2.249h-1.629
			v4.769h2.773c1.549,0,2.703-0.124,3.476-0.377c0.775-0.25,1.45-0.666,2.033-1.238c0.581-0.572,1.229-1.456,1.947-2.646v5.757
			c0,1.59-0.455,2.383-1.376,2.383h-6.879v4.843h5.939c1.939,0,3.414-0.11,4.414-0.321c1-0.218,1.883-0.673,2.65-1.379
			c0.766-0.701,1.146-2.047,1.146-4.036v-9.706l-4.356-0.046l0.872-2.909h17.406l1.84,2.909l-3.376,0.046v15.417h5.988V203.64
			l1.104,1.235c0.318,0.429,0.903,0.771,1.753,1.024c0.849,0.253,1.921,0.377,3.222,0.377h1.605v-5.14H143.252z M110.012,192.468
			v-4.862h10.51v3.695h5.732v-3.79h10.756v3.098c0,0.641-0.129,1.096-0.4,1.365c-0.267,0.267-0.729,0.403-1.385,0.403
			 M137.01,182.786h-10.756v-4.337h10.756V182.786z"/>
		<path d="M65.488,210.853c-0.735,0-1.256-0.127-1.57-0.387c-0.315-0.26-0.472-1.063-0.472-2.412v-23.845h5.047v22.662h5.988v-5.416
			l0,0v-17.246h15.027l-0.022,13.72c-0.017,1.603-0.2,2.594-0.551,2.968c-0.35,0.377-1.348,0.559-2.984,0.559h-9.422v5.416h12.588
			c3.103,0,4.951-0.78,5.542-2.337c0.585-1.561,0.881-3.104,0.881-4.636v-15.689h1.948v-5.461h-1.948v-5.341h-6.031v5.341H74.48
			v-5.341h-5.988v5.341h-5.047v-5.341h-6.008v5.341h-1.493v5.461h1.493v24.651c0,2.581,0.269,3.617,0.812,4.498
			c0.543,0.881,1.319,1.473,2.329,1.788c1.011,0.315,2.278,0.475,3.81,0.475l41.03,0.062v-4.83H65.488z"/>
	</g>
	<linearGradient id="SVGID_1_" gradientUnits="userSpaceOnUse" x1="49.2012" y1="52.3916" x2="67.0317" y2="52.3916">
		<stop  offset="0" style="stop-color:#53C1E9"/>
		<stop  offset="1" style="stop-color:#3FABDD"/>
	</linearGradient>
	<path fill="url(#SVGID_1_)" d="M55.28,57.985l3.359-0.343c0.371-0.122,0.989-0.32,2.986-1.587c0.162-0.101,0.202-0.16,0.326-0.668
		c0.143-0.557,0.143-0.557,1.314-1.263c0.413-0.245,1.018-0.487,1.541-0.245c0.188,0.088,0.271,0.127,0.441,0.005
		c0.165-0.11,0.165-0.11,0.751-0.9l0.21-0.785l0.824-2.35c-0.824-1.776-1.032-1.902-3.019-3.065c-0.24-0.044-0.24-0.044-0.924,0.791
		c-0.121,0.141-0.121,0.141-1.068,0.435c-0.715,0.223-1.306,0.732-2.073,0.827c-0.529,0.062-0.896-0.403-1.397-0.413
		c-0.935-0.017-1.667,0.709-2.598,0.673c-0.145-0.01-0.145-0.01-1.295-0.452c-0.949-0.362-0.949-0.362-0.96-0.387
		c-0.257-0.458-0.375-0.666-0.666-0.644c-0.011,0-0.023,0-0.03,0.004c-0.4,0.118-0.603,0.299-1.243,1.332
		c-0.181,0.29-0.181,0.29-1.545,1.248c-1.015,1.186-0.723,1.729,0.864,1.611c0.604-0.043,0.644,0.46,0.643,0.47
		c0.242,0.091,0.609-0.065,0.722,0.281c-0.15,0.203-0.202,0.281-0.978,0.489c-3.756,1.023-1.737,1.682-1.593,1.66
		c0.623-0.12,1.147-0.614,1.84-0.426l0.141,1.499c-0.178,0.756-0.728,1.347-0.97,2.073c0.199,0.3,0.199,0.3,3.122-1.138
		c0.647-0.314,0.717,0.046,0.7,0.4C54.687,57.454,54.661,58.006,55.28,57.985z"/>
	<linearGradient id="SVGID_2_" gradientUnits="userSpaceOnUse" x1="19.4243" y1="107.3408" x2="135.4595" y2="107.3408">
		<stop  offset="0" style="stop-color:#53C1E9"/>
		<stop  offset="1" style="stop-color:#004A9F"/>
	</linearGradient>
	<path fill="url(#SVGID_2_)" d="M96.655,140.392c-29.708,12.518-63.717-0.497-77.23-29.085c0.296,0.797,0.604,1.593,0.938,2.383
		c12.728,30.207,47.773,44.271,78.281,31.419c30.504-12.855,44.914-47.759,32.186-77.966c-0.333-0.79-0.684-1.563-1.05-2.331
		C140.798,94.447,126.358,127.878,96.655,140.392z"/>
	<linearGradient id="SVGID_3_" gradientUnits="userSpaceOnUse" x1="28.332" y1="51.3247" x2="42.104" y2="51.3247">
		<stop  offset="0" style="stop-color:#53C1E9"/>
		<stop  offset="1" style="stop-color:#1282C4"/>
	</linearGradient>
	<path fill="url(#SVGID_3_)" d="M32.169,50.053c-0.637,0.87-1.137,1.554-0.603,1.514c0.138-0.01,0.281-0.098,0.36-0.146
		c-0.013,0.429-0.38,0.773-0.293,1.224c0.394,0.2,0.623-0.316,0.991-0.216c0.328,0.981,0.144,1.173-1.609,3.002
		c-0.233,0.242-0.418,0.534-0.692,0.746c-0.042,0.032-0.13-0.01-0.183-0.028c-0.094-0.037-0.337,0-0.919,0.663
		c-0.015,0.015-1.134,1.302-0.838,1.624c0.443-0.065,0.372-0.902,0.885-0.727c0.469,0.161,0.007,0.697,0.04,1.045
		c0,0.018,0.582,1.586,1.386,1.111c2.097-1.244,2.09-1.607,2.075-2.151c-0.024-1.072-0.032-1.362,0.209-1.656
		c0.137-0.167,0.335-0.232,0.544-0.287c0.618-0.171,0.618-0.171,2.199-1.685c0.771-0.744-1.077-1.244-0.69-2.154
		c0.417-0.978,1.626-1.398,1.8-2.539c0.036-0.244-0.145-0.394-0.318-0.536c1.638-1.15,1.8-1.34,3.336-3.146
		c-0.1,0.052-0.231,0.12-0.333,0.172c0.616-1.238,1.818-1.995,2.59-3.107c-0.012-0.022-0.023-0.055-0.034-0.078
		c-1.399,0.722-4.808,4.603-5.645,6.082c-0.768-0.829,1.75-2.268,0.614-2.312c-0.604-0.025-0.988,0.361-2.843,2.221
		c1.815-1.955,1.815-1.955,1.948-2.116C35.45,46.779,34.215,48.014,32.169,50.053z"/>
	<linearGradient id="SVGID_4_" gradientUnits="userSpaceOnUse" x1="33.4712" y1="37.9458" x2="56.793" y2="37.9458">
		<stop  offset="0" style="stop-color:#53C1E9"/>
		<stop  offset="1" style="stop-color:#057CC0"/>
	</linearGradient>
	<path fill="url(#SVGID_4_)" d="M34.533,44.021c1.832-0.634,1.832-0.634,2.982-1.817c-0.242,0.015-0.45,0.232-0.714,0.119
		c-0.246,0.094-0.485,0.219-0.73,0.312c-0.017-0.032-0.043-0.074-0.061-0.107c1.126-1.089,2.752-1.263,3.992-2.142
		c0.015-0.012,2.045-1.385,4.032-2.581c0.262-0.161,0.262-0.161,1.44-0.959c2.295-1.417,4.882-2.246,7.247-3.514
		c-0.216,0.003-0.216,0.003-1.172,0.321c-0.014,0.004-0.014,0.004-0.014,0.004c0.04-0.02,0.04-0.02,4.217-1.63
		c0.273-0.104,0.573-0.273,0.606-0.291c-0.106-0.004-0.106-0.004-0.366,0.062c0.183-0.098,0.183-0.098,0.801-0.381
		c-0.228,0.063-0.228,0.063-1.503,0.498c0.45-0.203,0.923-0.342,1.376-0.533c-0.216,0.006-0.561,0.074-0.659,0.101
		c-0.226,0.071-0.226,0.071-1.548,0.624c0.245-0.142,0.245-0.142,0.688-0.321c-0.014,0.001-1.222,0.331-4.126,1.638
		c0.269-0.127,0.629-0.294,0.904-0.419l-1.293,0.553l-0.025,0.015c-0.729,0.349-1.469,0.678-2.202,1.016l0.002-0.004
		c-0.779,0.384-0.779,0.384-1.313,0.653l-0.016,0.009c-0.31,0.203-0.667,0.33-0.977,0.534c0.21-0.064,0.412-0.162,0.624-0.226
		c-0.483,0.286-1.02,0.47-1.512,0.743c0.021-0.029,0.038-0.046,0.061-0.068c-1.625,0.94-3.563,2.07-5.023,3.013l-0.194,0.134
		c-0.304,0.213-0.321,0.224-0.437,0.312c0.437-0.226,0.437-0.226,0.756-0.32c-1.215,0.738-2.323,1.637-3.545,2.358
		c0.128-0.123,0.128-0.123,0.464-0.401c-0.384,0.294-0.9,0.685-1.288,0.977l-0.039,0.036c-0.8,0.761-1.681,1.432-2.498,2.175
		c0.35-0.197,0.641-0.479,1.032-0.609C34.513,43.936,34.524,43.985,34.533,44.021z"/>
	<linearGradient id="SVGID_5_" gradientUnits="userSpaceOnUse" x1="55.1392" y1="110.9634" x2="113.9282" y2="110.9634">
		<stop  offset="0.2204" style="stop-color:#3FABDD"/>
		<stop  offset="1" style="stop-color:#004A9F"/>
	</linearGradient>
	<path fill="url(#SVGID_5_)" d="M110.312,105.589c-0.177,0.02-0.177,0.02-0.868,0.418c-1.544-1.013-1.544-1.013-3.421-3.952
		c0.079-0.254,0.091-0.626,0.042-0.89c-2.078-0.918-1.25-3.433-2.643-4.728c-0.634-0.84-0.484-1.939-0.969-2.828
		c0-0.015-2.332-4.578-2.699-5.095c-0.271-0.374-0.925-0.377-1.24-0.381c-0.18,0.007-0.184,0.007-0.184,0.007h-0.005
		c-0.007,0-0.007,0-0.009,0s-0.004,0-0.006,0h-0.003c-0.002,0-0.009,0-0.009,0h-0.004c-0.002,0-0.002,0-0.004,0
		c-0.166,0.062-0.361,0.215-0.455,0.36c-1.322,0.061-1.322,0.061-7.256-1.593c-0.133,0.137-0.31,0.315-0.444,0.449
		c-0.253-0.065-0.253-0.065-1.221,0.551c-0.154,0.692,0.259,1.478-0.351,2.095c-1.661-0.688-1.661-0.688-1.729-0.669l-0.163-0.021
		c-2.646-1.15-2.646-1.15-3.67-1.287c-0.16,0.011-0.164,0.011-0.17,0.011c-0.004,0-0.01,0-0.012,0
		c-0.006,0.002-0.012,0.002-0.016,0.004c-0.006,0-0.007,0-0.014,0c-0.006,0-0.01,0.003-0.013,0.003
		c-0.005,0.003-0.011,0.003-0.015,0.003c-0.005,0-0.011,0-0.016,0c-0.004,0-0.01,0-0.016,0c-0.141-0.052-0.328-0.115-0.469-0.165
		c-0.686-1.428-0.686-1.428-1.961-2.204c-1.012-0.612,0.148-1.801-0.671-2.466c-0.223-0.18-0.223-0.18-3.198-0.034
		c-2.171,0.595-4.701-0.155-6.536,1.705c-1.642,1.663-1.773,1.575-3.048,0.743c-1.069-0.699-1.069-0.699-3,0.741
		c-0.18,0.133-0.219,0.495-0.193,0.718l-7.914,11.504c-0.464,0.573-0.636,0.79-0.6,1.807c0.037,1.115,0.863,1.97,1.022,3.043
		c0.206,1.378-0.959,2.717-0.109,4.108c0.322,0.526,0.322,0.526,8.662,5.734c0.497,0.236,0.996,0.191,1.488-0.124
		c0.01-0.01,0.022-0.02,0.034-0.026c0.019-0.016,2.331-1.229,3.555-0.367c1.769-0.546,3.231-1.853,5.15-2.012
		c0.172-0.017,0.172-0.017,1.89,1.424c0.107,0,0.215-0.007,0.318-0.01c-0.078,0.029-0.16,0.052-0.24,0.059
		c0.9,0.416,2.089-0.257,2.83,0.741c0.283,0.377,0.465,1.021,0.432,1.229c-0.091,0.546-0.707,0.757-0.844,1.274
		c0.123,0.854,0.287,1.131,1.286,1.599c1.179,0.55,2.509,3.374,2.372,4.281c-0.121,0.81,1.299,1.615,0.426,2.281
		c-1.375,1.047-1.617,3.771-1.607,3.794c0.143,0.504,0.822,0.429,0.99,0.903c0.045,0.12,0.086,0.286,0.086,0.413
		c0,0.052-0.006,0.123,0.003,0.176c0.022,0.143,0.121,0.318,0.146,0.465c0.104,0.581,0.779,0.991,0.527,1.68
		c-0.075,0.212-0.219,0.604-0.144,0.797l1.214,2.655c0.01,0.215-0.086,0.42-0.066,0.634c0.061,0.036,0.135,0.078,0.189,0.114
		c-0.143,0.328-0.143,0.328,0.607,1.476c-0.439,1.231-0.439,1.231,0.221,1.414c0.091,0.224,0.118,0.475,0.244,0.692
		c0.069,0,0.172,0.02,0.244,0.01c0.611-0.104,0.955-0.709,1.561-0.826c0.422-0.078,0.668,0.426,1.1,0.322
		c0.125-0.036,1.303-0.54,1.435-0.611c1.856-1.021,2.207-1.508,3.366-3.137c1.27-1.769,1.27-1.769,1.281-1.833
		c0.156-0.829,1.01-0.699,1.498-1.066c1.483-1.118,1.07-3.455,2.869-4.372c0.266-0.839,1.281-0.539,1.719-1.121l0,0l0,0l0,0
		c0.395-0.279,0.82-0.646,0.824-0.646c0.033-0.056,0.076-0.127,0.105-0.183c0.377-0.673,0.242-1.485,0.625-2.155
		c0.344-0.598,1.149-0.767,1.389-1.462c-1.328-1.063-2.129-1.71-0.433-4.574c0.505-0.857,1.3-1.329,1.454-1.417
		c0.629-0.345,1.01-0.952,1.525-1.407c0.637-0.569,0.823-1.583,1.797-1.817c0.418-0.101,1.318-0.998,1.854-1.563
		c0.057,0,0.114,0,0.167,0c0.023-0.091,0.055-0.175,0.075-0.267c0.114-0.117,0.184-0.198,0.185-0.201
		c-0.039-0.01-0.07-0.017-0.108-0.026c0.735-1.979,2.843-3.059,3.543-5.058c0.026-0.101,0.015-0.242,0.026-0.346
		C113.549,104.879,113.549,104.879,110.312,105.589z"/>
	<radialGradient id="SVGID_6_" cx="124.4888" cy="127.4517" r="0.0152" gradientUnits="userSpaceOnUse">
		<stop  offset="0" style="stop-color:#53C1E9"/>
		<stop  offset="1" style="stop-color:#004A9F"/>
	</radialGradient>
	<path fill="url(#SVGID_6_)" d="M124.489,127.456l0.014-0.02c-0.01,0.01-0.019,0.02-0.026,0.032
		C124.481,127.465,124.484,127.458,124.489,127.456z"/>
	<radialGradient id="SVGID_7_" cx="95.2368" cy="83.6597" r="0.9841" gradientUnits="userSpaceOnUse">
		<stop  offset="0" style="stop-color:#53C1E9"/>
		<stop  offset="1" style="stop-color:#004A9F"/>
	</radialGradient>
	<path fill="url(#SVGID_7_)" d="M96.458,84.019c0.011-0.126-0.009-0.31-0.2-0.461c-0.051-0.042-0.051-0.042-0.67-0.241
		c-0.145-0.045-0.074-0.23-0.196-0.292c-0.066-0.039-0.089-0.032-0.196-0.013c-0.26,0.101-0.564,0.334-0.893,0.702
		c-0.377,0.419-0.323,0.443-0.186,0.5C94.598,84.419,96.427,84.322,96.458,84.019z"/>
	<linearGradient id="SVGID_8_" gradientUnits="userSpaceOnUse" x1="63.7529" y1="65.1226" x2="73.4385" y2="65.1226">
		<stop  offset="0" style="stop-color:#53C1E9"/>
		<stop  offset="0.1774" style="stop-color:#3FABDD"/>
	</linearGradient>
	<path fill="url(#SVGID_8_)" d="M65.013,63.067c0.011,0.286,1.502,2.486,1.519,2.503c0.614,0.692,0.614,0.692,1.25,0.611
		c0.059-0.007,0.062-0.007,0.066-0.007c0.003-0.003,0.009-0.003,0.012-0.003c0.006,0,0.009,0,0.012,0c0.005,0,0.007,0,0.014,0
		c0.001,0,0.005-0.004,0.011-0.005c0,0,0.009,0,0.012,0c0.006,0,0.008,0,0.012,0s0.007-0.002,0.013-0.002
		c0.706-0.062,0.775,0.042,0.869,0.352c-0.324,0.52-1.118,0.236-1.406,0.815c-0.36,0.714-0.402,2.012,0.035,1.909
		c0.558-0.135,0.558-0.135,0.591-0.11c0.012,0.295,0.013,0.384-0.634,0.897c-1.061,0.847-0.603,1.003-0.235,1.019l1.259-0.318
		c0.202-0.084,0.338-0.224,0.527-0.416c0.177-0.186,0.254-0.201,0.314-0.214c0.631-0.122,1.281-0.127,1.895-0.335l1.068-0.442
		l1.157-1.086c0.166-0.287-0.054-0.551-0.046-0.825c0.01-0.462-0.682-0.166-0.818-0.548c-0.121-0.348-0.627-0.114-0.736-0.477
		c-0.147-0.497-0.757-0.666-0.865-1.191c-0.033-0.17-0.386-0.654-0.39-0.658c-0.012-0.016-0.036-0.033-0.052-0.045
		c-0.228-0.169-0.462-0.32-0.682-0.497c-0.224-0.178-0.382-0.415-0.577-0.618c-0.186-0.191-0.055-0.321,0.206-0.572
		c0.158-0.15,1.47-1.459-0.356-1.241c-0.708,0.084-0.777,0.074-0.914,0.02c-0.023-0.507,0.611-0.406,0.778-0.751
		c0.124-0.254-0.065-0.541,0.098-0.788c0.083-0.122,0.167-0.112,0.219-0.105c0.015,0,1.342-0.068,0.765-0.738
		c-0.199,0.007-0.387,0.026-0.572,0.041l-0.094,0.062l-0.247,0.24c-0.333,0.002-0.333,0.002-1.075,0.256
		c-0.123,0.236,0.138,0.441,0.056,0.676c-0.326,0.042-0.756,0.094-1.084,0.137c-0.271,0.646-0.271,0.646-0.346,0.673
		c-0.287,0.091-0.465-0.179-0.717-0.208c-0.213-0.026-0.409,0.082-0.622,0.074c-2.452-0.123-1.404,1.194-0.84,1.901L65.013,63.067z"
		/>
	<linearGradient id="SVGID_9_" gradientUnits="userSpaceOnUse" x1="56.6709" y1="68.5835" x2="65.4668" y2="68.5835">
		<stop  offset="0" style="stop-color:#53C1E9"/>
		<stop  offset="0.1774" style="stop-color:#3FABDD"/>
	</linearGradient>
	<path fill="url(#SVGID_9_)" d="M57.895,72.971c0.272,0.607,0.808,0.781,0.814,0.781c0.344,0.073,2.093-0.17,2.104-0.174
		c0.093-0.025,0.093-0.025,1.693-1.813c0.669-0.37,1.402-0.627,2.06-1.018c0.173-0.203,0.45-0.312,0.552-0.585
		c0.089-0.24-0.076-0.604-0.02-0.854l0.368-0.689l-0.2-1.258l-0.7-0.952l-0.744-0.966l-0.461-1.82
		c-0.801-0.338-2.003-0.188-2.015-0.188c-0.467,0.13-0.839,0.751-1.199,1.072l-0.642,0.805c-0.209,0.269-0.298,0.372-0.936,0.467
		c-0.333,0.049-0.9,0.13-1.015,0.348c-0.123,0.237-0.159,0.44,0.089,1.219c0.139,0.442,0.139,0.442,0.107,1.323
		c0.005,0.247,0.015,0.497,0.024,0.748l-0.616,0.11l-0.488,1.845l0.267,1.035L57.895,72.971z"/>
	<linearGradient id="SVGID_10_" gradientUnits="userSpaceOnUse" x1="15.0093" y1="94.9473" x2="64.0068" y2="94.9473">
		<stop  offset="0" style="stop-color:#53C1E9"/>
		<stop  offset="1" style="stop-color:#1E8BCA"/>
	</linearGradient>
	<path fill="url(#SVGID_10_)" d="M63.94,142.625c-0.536-0.25-1.481,0.702-1.957,0.371c-0.909-0.641-2.492-0.352-2.743-1.889
		c-0.427-0.306-1.676-0.508-2.095-0.829c0.032-0.062,0.072-0.146,0.104-0.211c-0.335-0.442-0.9,0.591-1.303,0.247
		c-0.051-0.039-0.123-0.095-0.173-0.137c0.039-0.049,0.087-0.114,0.126-0.159c0.071,0.013,0.166,0.032,0.237,0.049
		c-0.027-0.059-0.027-0.059-0.885-0.998c0.039-0.046,0.093-0.11,0.134-0.156c0.131-0.007,0.303-0.017,0.435-0.022
		c-0.023-0.124-0.08-0.273-0.144-0.374c0.121-0.036,0.289-0.071,0.414-0.098c-0.005-0.007-0.794-1.079-1.155-1.495
		c-0.04-0.046-0.09-0.104-0.129-0.149c0.089-0.11,0.234-0.244,0.362-0.313c-0.198-0.402-0.198-0.402-0.045-0.725
		c-1.011-1.353-1.011-1.353-0.469-1.622c-0.022-0.022,0.036-0.068,0.051-0.098c0.271-1.892-2.293-3.013-1.403-5.073
		c0.704-0.257,1.371-0.501,1.486-1.519c0.037-0.315,0.274-0.578,0.259-0.907c0-0.016-0.184-1.608-0.222-1.709
		c-0.267-0.735-0.848-1.301-1.135-2.025c-0.209-0.523-0.209-0.523,0-0.819c0.249-0.351,0.821-1.914,0.715-2.665
		c-0.079-0.582-1.19-2.334-1.723-2.601c-0.721-0.357-1.342-0.91-2.141-1.125c-0.066-0.02-0.153-0.039-0.219-0.052
		c-0.807-0.143-1.537,0.394-2.341,0.254c-0.941-0.169-1.608-0.952-2.551-1.112c-0.111-0.02-0.266-0.016-0.375-0.016
		c-1.946,0.006-1.946,0.006-2.747-1.359l0,0c-0.192-0.338-0.192-0.338-0.345-0.624c-0.338-0.64-0.956-1.033-1.421-1.563
		c-1.087-0.003-2.176,0.426-3.263,0.007l-4.826-3.14c-1.9,1.482-1.9,1.482-3.41,0.669c-0.579,0.176-0.598,0.381-0.652,0.927
		c-0.516,0.254-1.002,0.494-1.525,2.116c-0.037-0.085-0.09-0.198-0.128-0.283c-0.079,0.01-0.19,0.026-0.271,0.036
		c-0.025,0.091-0.056,0.211-0.083,0.302c0.007,0.222,0.007,0.222,0.007,0.222c-1.143-0.315-1.143-0.315-2.665-4.675
		c-0.564-0.14-0.802-0.116-1.23,0.65c-0.906-0.641-0.906-2.025-0.906-2.772c-0.526-2.046-0.537-2.084-0.907-2.772
		c-0.102,0.321-0.102,0.321-0.113,1.527c-0.083,0.017-0.189,0.046-0.268,0.062c-0.072-0.047-0.173-0.113-0.247-0.162
		c-0.234,1.011,0.435,1.875,0.469,2.841c-2.299,0.332-3.109-7.514-3.103-7.595c0.077,0.034,0.18,0.081,0.253,0.112
		c0.176-0.913,0.176-0.913,0.267-1.189c0.084-0.029,0.198-0.065,0.28-0.092c0.411,0.439,0.411,0.439,0.751,0.413
		c-0.014-1.361,0.117-1.453,0.402-1.647c0.454,0.25,1.782,1.48,1.801,1.67c0.023,0.242,0.402,1.32,1.01,2.047
		c0.378-0.117,0.378-0.117-0.753-4.384c-0.38-1.448,0.513-2.672,0.717-4.018c0.232-1.502,0.598-2.983,0.741-4.502
		c0.053-0.539,0.053-0.539,1.777-3.695c0.083,0.025,0.192,0.055,0.273,0.078c0.065-2.806,0.072-3.097,2.254-4.663
		c0.065,0.72-0.575,1.172-0.712,1.811c0.062,0.076,0.143,0.181,0.207,0.259c0.279,0.003,3.253-2.84,3.273-2.871
		c0.462-0.644-0.046-1.605-0.053-1.615l-0.143,0.166c-0.07,0.208-0.171,0.478-0.252,0.683c-0.636-0.052-0.705-0.059-1.065-0.634
		c-0.105-0.02-0.245-0.042-0.349-0.062c-0.223,0.204-0.4,0.451-0.613,0.669c0.069-0.663,0.365-1.256,0.538-1.889
		c-0.224-0.348-0.224-0.348-0.147-0.891c-0.898,0.049-0.898,0.049-2.933,2.874c-0.757-2.104,1.926-2.562,2.227-4.188
		c0.586,0.317,0.904,0.927,1.437,1.302c0.103-0.032,0.24-0.079,0.341-0.113c-0.044-0.332-0.175-0.639-0.262-0.958
		c0.05-0.054,0.052-0.054,0.052-0.054c0.436-0.208,0.436-0.208,2.733-2.405c0.037,0.085,0.092,0.198,0.132,0.283
		c0.098,0.029,0.228,0.071,0.327,0.101c-0.342,1.213-1.424,2.035-1.734,3.264C30.177,75,30.177,75,30.831,76.013
		c0.364-0.136,0.619-0.526,1.076-0.443c0.295,0.548,0.364,0.702,0.314,1.363c0.083-0.016,0.194-0.042,0.277-0.057
		c0.376-0.72,0.376-0.72,0.481-0.876c0.304,0.003,0.304,0.003,0.719,0.374c0.19,0.068,0.19,0.068,0.19,0.068h0.002l0,0l0,0h0.002
		l0,0l0,0c0.001,0,0.001,0,0.001,0c1.75-1.646,0.353-3.127-1.101-3.192c-0.12-0.166-0.12-0.166,0.549-4.583
		c-0.141-0.104-0.371-0.191-0.547-0.205c-0.067-0.078-0.157-0.185-0.225-0.263c0.073-0.29,0.171-0.572,0.235-0.861
		c-1.749-0.761-1.749-0.761-2.025-1.418c-0.519-1.219,0.175-2.655-0.18-3.884c0.006-0.065,0.039-0.195,0.223-0.803
		c0.226-0.741,0.232-0.985,0.028-0.907c-0.123,0.071-0.332,0.273-0.37,0.345c-0.023,0.035-0.063,0.11-0.115,0.286
		c-0.07,0.233-0.11,0.475-0.18,0.71c-0.078,0.265-0.136,0.304-0.188,0.327c-0.07,0.025-0.123,0.11-0.203,0.27
		c-0.635,1.437-0.635,1.437-1.145,1.693c-0.287-0.105-0.463-0.377-0.74-0.497c0-0.345,0.127-0.706,0.148-0.797
		c-0.009,0.004-0.019,0.009-0.027,0.01c0.062-0.25,0.069-0.507,0.159-0.751c0.107-0.279,0.29-0.52,0.42-0.791
		c0.062-0.13,0.129-0.291,0.066-0.398c-0.015-0.026-0.052-0.045-0.075-0.066c-0.147-0.129-0.367-0.063-0.517-0.188
		c-0.06-0.05-0.011-0.182-0.01-0.26c0-0.003-0.073-0.896-0.161-1.147c-0.013-0.044-0.033-0.098-0.047-0.137
		c-0.064-0.159-0.136-0.237-0.209-0.224c-0.003,0-0.009,0.001-0.012,0.003c-0.046,0.036-0.07,0.062-0.105,0.149
		c-0.244,0.599-0.589,1.198-0.761,0.924c-0.103-0.16-0.02-0.465-0.289-0.491c-0.103-0.013-0.39,0.21-0.539,0.413
		c-0.032,0.042-0.063,0.104-0.086,0.154c-0.038,0.083-0.057,0.209-0.068,0.297c-0.036,0.251-0.036,0.251-0.46,1.262
		c-0.138,0.33-0.171,0.367-0.332,0.478c-0.12,0.085-0.143,0.14-0.187,0.254c-0.003,0.003-0.041,0.253,0.062,0.286
		c0.028,0.01,0.063,0,0.099-0.012c0-0.002,0-0.002,0.003-0.002c0,0,0,0,0.003,0l0,0c0.002,0,0.002,0,0.002,0
		c0-0.003,0-0.003,0.002-0.003c0,0,0,0,0.003,0l0,0c0,0,0,0,0.001,0c0.064-0.029,0.064-0.029,0.096-0.017
		c0.065,0.35-0.38,0.896-0.771,1.375c-0.24,0.46-0.223,0.988-0.41,1.46c0.394,0.58,0.187,1.677,0.186,1.688
		c-0.324,1.162-1.427,1.864-1.796,2.998c-0.421,1.281-0.012,2.664-0.482,3.941c-0.058,0.158-0.26,0.304-0.412,0.376
		c-0.936-0.436,0.034-3.631,0.049-3.66c0.081-0.208,0.158-0.501,0.158-0.722c-0.085-0.022-0.201-0.057-0.288-0.081
		c-0.664,0.11-0.664,0.11-1.002-0.043c-0.073-1.194-0.073-1.194-0.365-1.53c-0.083,0.025-0.19,0.06-0.273,0.088
		c-0.022-0.67,0.311-1.259,0.449-1.893c-0.099,0.059-0.234,0.144-0.347,0.153l0.025-0.11c0.089-0.262,0.146-0.436,0.308-0.873
		c1.218-3.278,4.614-8.256,5.422-9.102c-0.049,1.257-1.117,1.954-1.642,2.95c0.085-0.002,0.201-0.01,0.286-0.024
		c0.032,0.164,0.032,0.164-0.096,0.52c0.812-0.313,0.738-1.29,1.343-1.763c0.072,0.175-0.046,0.37,0.051,0.542
		c0.09,0.02,0.333,0.075,0.603-0.328c0.438-0.788-0.445-3.182,0.602-2.528c0.45-0.479,0.519-1.187,1.019-1.629
		c0.031,0.003,0.07,0.01,0.1,0.013l2.92-4.248c0.026-0.039,0.058-0.094,0.079-0.132c0.002-0.005,0.07-0.417-0.16-0.61
		c-0.096,0.052-0.365,0.226-0.798,0.744c-0.028,0.037-0.054,0.076-0.077,0.11c-0.168,0.35-2.378,3.345-2.479,3.444
		c-0.041-0.127-0.101-0.315,0.623-1.311c0.158-0.215,1.038-1.512,1.137-1.7c-0.006-0.006-0.011-0.016-0.015-0.022l0,0l0,0
		c0.009-0.031,0.021-0.071,0.031-0.101c-0.129,0.025-0.129,0.025-1.597,1.94c0.205-0.403,0.205-0.403,2.481-3.585
		c-0.059,0.04-0.134,0.097-0.187,0.146c0.405-0.61,0.948-1.111,1.378-1.703c0.115-0.088,0.209-0.191,0.199-0.37
		c-2.308,2.313-3.047,3.555-3.053,3.565c0.031-0.01,0.072-0.021,0.103-0.025c-0.703,1.521-1.893,2.711-2.833,4.072
		c0.375-0.705,0.935-1.299,1.205-2.067c-0.132,0.12-0.346,0.418-1.199,1.645c0.011-0.032,0.029-0.074,0.039-0.101
		c-0.108,0.08-0.108,0.08-1.275,1.866c-3.121,5.461-3.178,5.562-4.468,8.588l-0.96,2.403c-0.674,2.043-1.566,4.773-2.121,6.854
		c-1.292,6.312-1.316,6.433-1.585,9.777c-0.255,6.596-0.262,6.721,0.03,10.168c0.288,2.285,0.689,5.327,1.118,7.593l0.007,0.029
		c0.08,0.338,0.08,0.338,1.754,5.598c0.088,0.233,0.088,0.233,0.088,0.233c0.176,0.394,0.176,0.394,0.525,1.037
		c0.067,0.02,0.067,0.02,0.067,0.02c0.395,0.582,0.395,0.582,0.734,0.969c0.06,0,0.142,0,0.201,0c0.152,0.056,0.389,0.059,0.541,0
		c0.057,0.059,0.135,0.137,0.193,0.195c0.183-0.013,0.428-0.026,0.61-0.039c0.083-0.029,0.192-0.062,0.273-0.095
		c0.234,0.192,0.234,0.192,1.218,1.879c0.185-0.351,0.185-0.351,0.015-1.023c1.036,0.604,1.435,1.774,2.298,2.532
		c0.043-0.075,0.097-0.176,0.137-0.247c0.049,0.035,0.049,0.035,0.643,0.698c0.081,0.02,0.081,0.02,0.081,0.02l0,0l0,0l0,0h0.002
		l0,0l0,0c0,0,0,0,0.001-0.003c0.324,0.221,0.559,0.533,0.865,0.771c0.001-0.081,0.005-0.195,0.007-0.279
		c0.166-0.033,0.382-0.092,0.539-0.153c0.014-0.406,0.014-0.406-0.226-0.952c0.015-0.049,0.015-0.049,0.015-0.049
		c0.007-0.088,0.017-0.211,0.027-0.299c1.968,2.564,1.963,2.785,1.941,3.526c0.067-0.016,0.039,0.159,0.056,0.225
		c0.39,0.887,0.39,0.887,0.583,1.463c-0.325,0.542-0.399,0.673-0.172,1.261l1.953,3.367c1.226,1.281,2.904,1.996,4.116,3.29
		c0.78,0.835,1.961,2.1,4.38,2.88c0.527,0.169,0.769,0.25,1.337,0.751c0.279,0.243,0.279,0.243,3.336,4.086
		c0.701,0.877,3.272,3.419,3.295,3.442c3.917,3.725,2.726,1.557,8.127,4.953C62.67,143.604,64.388,142.84,63.94,142.625z
		 M31.055,47.27c-0.068,0.064-0.134,0.13-0.191,0.185C30.909,47.38,30.98,47.325,31.055,47.27z"/>
	<radialGradient id="SVGID_11_" cx="100.5161" cy="35.353" r="0" gradientUnits="userSpaceOnUse">
		<stop  offset="0" style="stop-color:#53C1E9"/>
		<stop  offset="1" style="stop-color:#004A9F"/>
	</radialGradient>
	<polygon fill="url(#SVGID_11_)" points="100.516,35.353 100.516,35.353 100.516,35.353 	"/>
	<radialGradient id="SVGID_12_" cx="102.9946" cy="36.5337" r="0.0074" gradientUnits="userSpaceOnUse">
		<stop  offset="0" style="stop-color:#53C1E9"/>
		<stop  offset="1" style="stop-color:#004A9F"/>
	</radialGradient>
	<path fill="url(#SVGID_12_)" d="M102.992,36.533L102.992,36.533L102.992,36.533h-0.005c0,0,0,0,0-0.003l0,0l0,0l0,0
		c0,0,0,0-0.002,0c0.007,0.003,0.016,0.005,0.02,0.008l-0.008-0.003L102.992,36.533z"/>
	<radialGradient id="SVGID_13_" cx="53.9326" cy="34.7651" r="0.1523" gradientUnits="userSpaceOnUse">
		<stop  offset="0" style="stop-color:#53C1E9"/>
		<stop  offset="1" style="stop-color:#004A9F"/>
	</radialGradient>
	<path fill="url(#SVGID_13_)" d="M54.074,34.635c-0.008,0.001-0.016,0.003-0.023,0.006c-0.034,0.017-0.099,0.048-0.146,0.09
		c-0.058,0.047-0.094,0.112-0.145,0.164c0.115-0.071,0.229-0.144,0.344-0.218C54.099,34.677,54.079,34.663,54.074,34.635z"/>
	<radialGradient id="SVGID_14_" cx="103.6587" cy="36.8887" r="0.5251" gradientUnits="userSpaceOnUse">
		<stop  offset="0" style="stop-color:#53C1E9"/>
		<stop  offset="1" style="stop-color:#004A9F"/>
	</radialGradient>
	<path fill="url(#SVGID_14_)" d="M103.004,36.538l0.305,0.171c0.302,0.156,0.625,0.33,1.004,0.531
		C103.877,36.992,103.817,36.958,103.004,36.538z"/>
	<radialGradient id="SVGID_15_" cx="128.4868" cy="121.4185" r="0.1596" gradientUnits="userSpaceOnUse">
		<stop  offset="0" style="stop-color:#53C1E9"/>
		<stop  offset="1" style="stop-color:#004A9F"/>
	</radialGradient>
	<path fill="url(#SVGID_15_)" d="M128.598,121.221l-0.222,0.394C128.464,121.468,128.538,121.335,128.598,121.221z"/>
	<radialGradient id="SVGID_16_" cx="45.5806" cy="37.3491" r="0.2629" gradientUnits="userSpaceOnUse">
		<stop  offset="0" style="stop-color:#53C1E9"/>
		<stop  offset="1" style="stop-color:#004A9F"/>
	</radialGradient>
	<path fill="url(#SVGID_16_)" d="M45.258,37.535c0.221-0.127,0.438-0.251,0.645-0.371C45.429,37.417,45.318,37.477,45.258,37.535z"
		/>
	<linearGradient id="SVGID_17_" gradientUnits="userSpaceOnUse" x1="49.7817" y1="53.5142" x2="46.2299" y2="33.8847">
		<stop  offset="0" style="stop-color:#53C1E9"/>
		<stop  offset="0.957" style="stop-color:#2792CE"/>
	</linearGradient>
	<path fill="url(#SVGID_17_)" d="M55.444,33.782c-0.757,0.283-0.783,0.297-1.094,0.506c0.024,0.005,0.026,0.005,0.185-0.054
		c0.152-0.058,0.254-0.093,0.292-0.063c-0.019,0.039-0.045,0.08-0.263,0.229c0.003,0-0.006,0.003-0.007,0.003
		c-0.236,0.208-0.236,0.208-0.372,0.28c-0.194,0.067-0.309,0.14-0.423,0.211c-0.082,0.066-0.199,0.149-0.29,0.205
		c-0.042,0.025-0.081,0.059-0.127,0.088c0.015-0.017,0.026-0.033,0.037-0.046c-0.037,0.02-0.085,0.046-0.123,0.064
		c0.085-0.104,0.201-0.18,0.303-0.272c-0.028-0.002-0.028-0.002-0.03,0l0,0l0,0c-0.001,0-0.004,0-0.004,0l0,0l0,0l0,0
		c-0.001,0-0.001,0-0.001,0c-0.036,0.013-0.086,0.024-0.123,0.035c0.013-0.018,0.013-0.018,0.667-0.49
		c-0.045-0.002-0.103-0.01-0.146-0.013c-0.053,0.013-0.053,0.013-1.525,0.898c0.036-0.065,0.036-0.065,0.394-0.357
		c-0.031-0.026-0.068-0.056-0.099-0.08c-1.905,0.639-2.521,1.093-2.787,1.287c-1.369,0.803-2.979,1.181-4.148,2.331
		c0.078,0.02,0.187,0.025,0.266,0.013c-0.143,0.098-0.289,0.183-0.429,0.278c0.074-0.028,0.169-0.065,0.244-0.096
		c-1.355,1.219-3.113,1.849-4.498,3.022c0.017,0.036,0.038,0.083,0.055,0.117c-0.022,0.037-0.053,0.094-0.074,0.137
		c0.036,0.016,0.08,0.04,0.113,0.055c0.074-0.024,0.172-0.063,0.244-0.091c-0.3,0.352-0.472,0.364-0.718,0.257
		c-0.717,0.387-1.345,1.752-1.349,1.765c0.13,0.088,0.13,0.088,0.357,0.026c0.028-0.007,0.039-0.008,0.05-0.012
		c0.009-0.001,0.021-0.005,0.033-0.008c0.009-0.003,0.02-0.005,0.031-0.007c0.009-0.003,0.02-0.005,0.029-0.006
		c0.009-0.004,0.019-0.007,0.027-0.009c0.01-0.001,0.019-0.003,0.029-0.006c0.008-0.002,0.017-0.005,0.021-0.005
		c0.011-0.004,0.016-0.004,0.023-0.007l0,0l0,0c0,0,0,0,0.001,0l0,0l0,0l0,0c0,0,0,0,0.003,0l0,0
		c0.185-0.091,0.356-0.216,0.544-0.311c0.032,0.019,0.072,0.042,0.104,0.062c0.077-0.024,0.171-0.072,0.237-0.121
		c-0.106,0.17-0.234,0.328-0.353,0.49c0.187-0.108,0.332-0.267,0.506-0.394c0.073,0.023,0.171,0.058,0.243,0.088
		c0.018,0.192-0.431,1.125-1.454,2.507c-0.272,0.367-0.561,1.041-1.041,2.161c0.33,0,0.33,0,0.404,0.021
		c0.021,0.104,0.046,0.247-0.282,0.38c-0.013,0.008-1.284,0.86-1.055,1.566c0.036,0.01,0.083,0.021,0.119,0.031
		c0.28-0.353,0.387-0.354,0.742-0.364l0.058,0.075c-1.991,2.077-1.991,2.077-2.238,2.887c-0.931,3.042-0.964,4.645-0.102,4.757
		c0.076,0.01,0.165-0.061,0.229-0.105c0.155,0.152,0.092,0.426,0.305,0.542c0.692-0.042,0.586,0.78,0.951,1.112
		c0.141-0.168,0.219-0.26,0.371-0.923c0.018-0.095,0.036-0.222,0.067-0.313c0.13-0.37,0.623-0.384,0.756-0.748
		c0.133-0.351-0.28-0.649-0.104-1.004l1.519-2.405c0.589-0.816,0.589-0.816,0.611-0.832c0.861-0.611,2.065-0.66,2.71-1.625
		c0.494-0.735,0.494-0.735,2.827-1.908c0.397-0.14,0.397-0.14,0.989-0.657c0.463-0.38,0.463-0.38,0.636-0.484l0.301-0.204
		c0.243-0.137,0.243-0.137,0.316-0.293c-0.154-0.123-0.33-0.218-0.497-0.328c-0.01-0.052-0.023-0.117-0.032-0.167
		c0.06-0.07,0.158-0.151,0.239-0.197c0.042,0.022,0.098,0.056,0.14,0.08c0.781,0.587,1.045-0.254,1.303-1.064
		c-0.089-0.049-0.219-0.098-0.316-0.117c-0.044-0.146-0.044-0.146,0.74-1.059c-0.068-0.135-0.155-0.31-0.223-0.445
		c1.781-0.707,2.187-1.41,2.271-1.767c-0.084-0.068-0.211-0.143-0.313-0.191c0.292-0.211,0.697-0.065,0.977-0.306
		c0-0.002,0.192-0.191-0.095-0.457c-0.392,0.07-0.386-0.13-0.381-0.309c0.321-0.232,0.321-0.232,1.26-1.114
		c-0.05,0.008-0.115,0.02-0.167,0.024c0.101-0.17,0.148-0.247,0.411-0.503c-0.13-0.027-0.303-0.063-0.435-0.093
		c-0.026-0.034-0.065-0.081-0.092-0.113l2.063-2.109c-0.087,0-0.208,0.02-0.292,0.049c0.161-0.55,0.806-0.653,1.055-1.122
		c-0.03-0.03-0.068-0.073-0.1-0.104c0.879-0.846,2.128-1.128,3.028-1.94c0.063-0.059,0.125-0.161,0.156-0.244
		c-0.167-0.23-0.324-0.452-1.803,0.455c-0.001-0.088-0.007-0.208-0.017-0.299c-0.122,0.084-0.231,0.182-0.353,0.267l0,0l0,0
		c-0.003,0-0.003,0-0.003,0l0,0h-0.001h0l0,0l0,0l0,0h-0.002l0,0l0,0c-0.615,0.357-1.139,0.85-1.742,1.229
		c0.023-0.149,0.039-0.259,1.285-1.072c0.384-0.251,0.525-0.344,0.828-0.641c-0.032-0.026-0.076-0.059-0.108-0.086
		c-0.298,0.177-0.592,0.362-0.899,0.524c-0.04,0.02-0.094,0.042-0.135,0.059c0.022-0.068,0.161-0.186,0.301-0.301
		c-0.2,0.032-0.271,0.042-0.344,0.056c-0.082,0.011-0.165,0.024-0.247,0.039c-0.132,0.003-0.238,0.006-1.272,0.453
		c0.245-0.377,1.785-0.699,1.932-0.712c0.133-0.017,0.136-0.017,0.137-0.017c0,0,0,0,0.003,0c0.001,0,0.001,0,0.004,0
		c0.002,0,0.002,0,0.004-0.003c0.001,0,0.004,0,0.004,0s0,0,0.003,0c0,0,0.001,0,0.004,0c0,0,0.001,0,0.004,0
		c0.12-0.025,0.482-0.094,1.327-0.563l0.164-0.09l0.083-0.101c0.03-0.095,0.055-0.221,0.072-0.317
		c0.125-0.074,0.295-0.174,0.422-0.245c-0.04-0.003-0.095-0.008-0.136-0.013c0.167-0.081,0.346-0.14,0.516-0.215
		c-0.132-0.062-0.132-0.062-0.409-0.013c0.276-0.153,0.58-0.237,0.868-0.361c-0.01-0.013-0.021-0.029-0.03-0.04
		c-0.378,0.103-0.747,0.219-1.123,0.326c-0.031-0.025-0.077-0.062-0.109-0.088c-0.339,0.068-0.998,0.335-1.003,0.335
		c-0.083,0.026-0.083,0.026-0.083,0.026c0.029-0.029,0.072-0.073,0.102-0.101c0.043-0.046,0.043-0.046,0.04-0.046l0,0h-0.002l0,0
		l0,0l0,0l0,0l0,0c-0.296,0.12-0.572,0.279-0.874,0.384c0.107-0.114,0.107-0.114,0.443-0.298c-0.198,0.061-0.392,0.139-0.592,0.21
		c-0.583,0.247-1.106,0.507-1.61,0.78c0.49-0.273,0.98-0.526,1.48-0.764l-0.1,0.035c-0.169,0.068-1.011,0.433-1.203,0.543
		C55.511,33.79,55.511,33.79,55.444,33.782z"/>
	<radialGradient id="SVGID_18_" cx="59.873" cy="32.3911" r="0.3986" gradientUnits="userSpaceOnUse">
		<stop  offset="0" style="stop-color:#53C1E9"/>
		<stop  offset="1" style="stop-color:#004A9F"/>
	</radialGradient>
	<path fill="url(#SVGID_18_)" d="M59.349,32.544c0.012-0.003,0.029,0,0.041,0.002l0.039,0.018c0.184-0.022,0.204-0.029,0.443-0.121
		c0.165-0.061,0.211-0.077,0.253-0.085c0.016-0.003,0.033-0.005,0.05-0.008l0.229-0.117c0.001,0,0.004-0.005,0.006-0.007
		c0-0.003-0.002-0.003-0.002-0.006c-0.032-0.007-0.134,0.01-0.147,0.013c-0.14,0.032-0.262,0.113-0.401,0.149
		c0.034-0.037,0.083-0.052,0.122-0.08c-0.007,0-0.011,0-0.147,0.058c0.027-0.017,0.064-0.039,0.093-0.056l-0.029,0.013l-0.047-0.003
		l-0.16,0.073h-0.052c-0.082,0.031-0.108,0.041-0.128,0.041c0-0.004,0-0.007,0-0.007c0.004-0.003,0.009-0.007,0.009-0.01
		c-0.021,0.017-0.052,0.032-0.075,0.046c-0.087,0.055-0.099,0.067-0.109,0.084c0.002,0,0.007,0,0.011,0.003
		C59.348,32.544,59.348,32.544,59.349,32.544z"/>
	<radialGradient id="SVGID_19_" cx="100.8276" cy="44.3711" r="0.6002" gradientUnits="userSpaceOnUse">
		<stop  offset="0" style="stop-color:#53C1E9"/>
		<stop  offset="1" style="stop-color:#004A9F"/>
	</radialGradient>
	<path fill="url(#SVGID_19_)" d="M100.307,43.809c-0.065,0.021-0.073,0.07-0.061,0.154c-0.018-0.027-0.037-0.05-0.055-0.074
		c0.307,0.565,0.642,0.942,0.646,0.945c0.002,0.007,0.549,0.199,0.617,0.028c0.033-0.081-0.052-0.212-0.102-0.286
		C101.139,44.273,100.547,43.792,100.307,43.809z"/>
	<linearGradient id="SVGID_20_" gradientUnits="userSpaceOnUse" x1="95.4897" y1="39.3472" x2="103.2446" y2="39.3472">
		<stop  offset="0" style="stop-color:#1786C6"/>
		<stop  offset="0.5054" style="stop-color:#0071B9"/>
	</linearGradient>
	<path fill="url(#SVGID_20_)" d="M96.312,35.417l0.042,0.445c-0.752,0.054-0.752,0.054-0.864,0.139
		c0.125,0.438,0.478,0.751,0.644,1.163c-0.074,0.065-0.172,0.153-0.248,0.218c0.164,0.371,0.708,0.315,0.826,0.731
		c0.063,0.208,0.318,0.741,0.318,0.741c0.075,0.088,0.16,0.156,0.457,0.409c0.479,0.398,0.479,0.398,0.723,0.896
		c-0.106,0.122-0.25,0.049-0.379,0.08c-0.006,0.013-0.016,0.026-0.02,0.039c0.211,0.328,0.621,0.392,0.887,0.646
		c-0.005,0.017-0.013,0.036-0.018,0.054c-0.045,0.014-0.1,0.024-0.148,0.044c-0.215,0.705,0.254,0.966,0.563,1.14
		c0.004,0.003,0.666,0.354,0.694,0.369c0.337,0.157,0.718,0.169,1.045,0.339c0.429,0.223,0.803,0.538,1.26,0.704
		c0.007,0,0.733,0.198,1.147,0.078c0-0.02,0.003-0.046,0.004-0.065c-0.102-0.116-0.116-0.138-0.461-0.38
		c-1.813-1.284-2.899-2.574-2.948-2.627c-0.04-0.052-0.099-0.123-0.135-0.18c-0.212-0.35-0.171-0.435-0.076-0.621
		c0.008-0.015,0.008-0.047-0.002-0.063c-0.216-0.362-0.648-0.526-0.859-0.897c-0.028-0.042-0.028-0.116-0.02-0.165
		c0.028-0.283,0.028-0.283-0.504-1.03c0.242-0.083,0.466,0.101,0.704,0.048l-1.021-0.9c-0.094-0.058-0.094-0.058-0.101-0.111
		c0.176-0.024,0.347,0.071,0.521,0.013c-0.095-0.08-0.22-0.125-0.293-0.235c0.027-0.068,0.103-0.1,0.125-0.169
		c-0.138-0.173-0.304-0.319-0.439-0.493c-0.121-0.145-1.217-0.744-1.586-0.771c-0.123,0.07-0.263,0.024-0.391,0.041
		C95.93,35.188,96.172,35.226,96.312,35.417z"/>
	<radialGradient id="SVGID_21_" cx="69.7139" cy="59.1807" r="0.2019" gradientUnits="userSpaceOnUse">
		<stop  offset="0" style="stop-color:#53C1E9"/>
		<stop  offset="1" style="stop-color:#004A9F"/>
	</radialGradient>
	<path fill="url(#SVGID_21_)" d="M69.712,59.127c-0.143,0.022-0.224,0.074-0.277,0.112c0.186-0.015,0.373-0.034,0.559-0.048
		C69.895,59.118,69.796,59.115,69.712,59.127z"/>
	<linearGradient id="SVGID_22_" gradientUnits="userSpaceOnUse" x1="64.8003" y1="72.9688" x2="135.6372" y2="72.9688">
		<stop  offset="0" style="stop-color:#53C1E9"/>
		<stop  offset="0.9247" style="stop-color:#004A9F"/>
	</linearGradient>
	<path fill="url(#SVGID_22_)" d="M135.531,85.482c-0.834-6.628-0.834-6.628-1.657-9.87c-1.855-6.226-1.855-6.226-3.165-9.232
		c-0.923-1.908-2.161-4.45-3.193-6.303l-1.331-2.175c-3.607-5.182-3.607-5.182-5.758-7.606c-4.266-4.448-4.348-4.534-6.862-6.614
		c-4.87-3.724-4.962-3.797-7.842-5.513l-3.349-1.834c-0.861-0.453-1.539-0.789-2.752-1.336c-0.038-0.018-0.038-0.018-0.038-0.018
		s0,0-0.003,0l0,0c0.787,0.366,1.104,0.528,1.314,0.636c0.734,0.416,1.518,0.751,2.229,1.226c-0.527-0.271-0.527-0.271-0.58-0.29
		c-0.146-0.069-0.289-0.146-0.433-0.218c-0.011-0.003-0.011-0.003-0.011-0.003l0,0l0,0l0,0c-0.002,0-0.002,0-0.002,0
		c-0.004-0.003-0.004-0.003-0.005-0.003c-0.156-0.062-0.31-0.13-0.465-0.195c0.302,0.239,0.302,0.239,1.366,0.889
		c0.317,0.188,0.317,0.188,2.061,1.34c0.984,0.7,0.984,0.7,1.107,0.96c-0.09,0.01-0.215,0-0.306-0.025
		c-0.015,0.039-0.032,0.091-0.044,0.13c1.031,1.067,2.621,1.383,3.551,2.584c-0.36-0.046-1.814-0.995-1.978-1.102
		c-0.392-0.264-0.395-0.264-0.59-0.261c-0.015,0.046-0.03,0.104-0.047,0.149c0.018,0.019,0.018,0.019,0.891,0.867
		c-0.939-0.479-1.404-1.617-2.558-1.803c0.563,0.595,1.441,0.839,1.844,1.612c-0.014,0.042-0.032,0.094-0.042,0.133
		c0.169,0.195,0.396,0.454,0.569,0.65l0.746,0.489c1.945,2.18,2.295,2.572,2.652,2.459c0.029,0.029,0.066,0.074,0.096,0.105
		c0.013-0.037,0.029-0.093,0.042-0.135c0.008,0,0.585,0.11,0.773,0.556c-0.169,0.018-0.169,0.018-0.431-0.091
		c-0.057-0.02-0.057-0.02-0.057-0.02l-0.023,0.162c0.455,0.576,1.197,0.855,1.58,1.502c-0.094,0.007-0.218,0.02-0.313,0.026
		c0.116,0.133,0.227,0.27,0.339,0.403c0.146,0.204,0.328,0.38,0.479,0.585c-0.039,0.022-0.095,0.059-0.134,0.084
		c-0.021,0.186-0.021,0.186,0.063,0.506c-0.1,0.008-0.23,0.018-0.333,0.027c-0.142,0.01-0.282-0.056-0.427-0.003
		c-0.039-0.02-0.09-0.046-0.127-0.065c1.818,2.464,3.045,3.01,4.495,5.61c-1.45-2.601-2.684-3.149-4.59-5.67
		c-0.159-0.043-0.655-0.285-0.452-0.589c0.291-0.015,0.521,0.359,0.85,0.135c-0.011-0.208-0.211-0.438-0.312-0.62
		c-0.059-0.28-0.173-0.804-1.739-2.196l-0.607-0.609c-0.436-0.325-0.712-0.808-1.137-1.141c-0.544-0.425-0.986-0.953-1.521-1.382
		c-0.407-0.279-0.594-0.747-0.959-1.064l-0.765-0.702c-0.813-0.443-1.448-1.204-2.423-1.378c-0.034,0.003-0.083,0.006-0.117,0.011
		c-0.004,0.033,0.01,0.085,0.027,0.112l0.034,0.044c1.404,1.47,1.404,1.47,1.796,1.746c-0.008,0.066-0.018,0.152-0.025,0.221
		c0.312,0.293,0.328,0.313,0.512,0.604c-0.057,0.036-0.132,0.085-0.189,0.12c0.008,0.02,1.566,2.549,3.732,3.186
		c0.229,0.068,0.715,0.211,0.664,0.858c0,0,0,0-0.004,0l0,0l0,0c0,0-0.004,0-0.004-0.003l0,0c-0.002,0-0.002,0-0.002,0l0,0
		c0,0,0,0-0.003,0c-0.3-0.166-0.558-0.397-0.852-0.579c-0.04-0.008-0.04-0.008-0.044-0.008l0,0l0,0l0,0h-0.002h-0.001l0,0l0,0l0,0
		c-0.002-0.002-0.002-0.002-0.002-0.002s0,0-0.003,0l0,0h-0.004l0,0c0,0,0,0-0.001,0h-0.003c-0.144-0.056-0.144-0.056-0.927-0.443
		c-0.174-0.051-0.177-0.051-0.177-0.051c-1.548-0.588-2.982-1.43-4.516-2.051c-0.045-0.007-0.045-0.007-0.045-0.007h-0.004l0,0l0,0
		h-0.002l0,0c0,0,0,0-0.001,0l0,0c0.735,1.018,1.991,1.378,2.853,2.231c-0.156,0.017-0.156,0.017-1.554-0.866
		c0.083,0.169,0.224,0.387,0.348,0.526c-0.022,0.067-0.059,0.156-0.087,0.225c-0.089,0.049-0.092,0.049-0.092,0.049
		c-0.154-0.085-0.154-0.085-0.861-0.553c-0.098,0.361-0.057,0.736-0.083,1.105c-0.083,0.062-0.083,0.062-0.087,0.062
		c-0.502-0.262-0.74-0.975-1.474-0.845c-0.46,0.744-0.46,0.744-0.567,0.776c-0.081,0.247-0.279,0.426-0.373,0.663
		c0.188,0.394,0.174,0.416,0.006,0.695c0.141,0.261,0.141,0.261,0.512,0.828c-1.619-0.087-1.709-0.736-1.768-1.166
		c0.177-0.025,0.418-0.062,0.595-0.078c0.013-0.064,0.026-0.152,0.034-0.218c-1.318-1.194-1.711-1.123-2.359-1.006
		c0.047,0.132,0.138,0.296,0.224,0.408c-0.013,0.068-0.029,0.162-0.042,0.23c0.053,0.054,0.125,0.125,0.182,0.179
		c-0.11,0.387-0.11,0.387,0.761,1.223c0.478,0.35,0.481,0.354,0.606,0.644c-1.463,0.7-1.463,0.7-1.518,0.861
		c-0.252,0.724,0.591,1.028,0.633,1.642c-0.389,0.117-0.389,0.117-1.26-0.371l-0.611-0.326c-0.336-0.139-0.35-0.145-0.735-0.232
		c-0.175-0.02-0.177-0.02-0.177-0.02c-0.08,0.359,0.108,0.692,0.113,1.043c-0.252-0.064-0.252-0.064-1.041-0.722
		c-0.555-0.304-0.443-0.503-0.254-0.835c-0.085-0.198-0.085-0.198-2.076-1.378c0.046-0.046,0.107-0.104,0.152-0.153
		c0.752,0.197,1.309,1.054,2.244,0.653c1.483,0.644,1.483,0.644,2.063,0.702c0.157-0.191,0.279-0.411,0.417-0.615
		c0.257-0.587,0.257-0.587-0.007-1.286c-0.348-0.617-0.348-0.617-3.242-1.904c-1.043-0.465-3.622-1.413-3.642-1.421
		c-0.648-0.228-1.164,0.328-1.776,0.303c-0.129-0.29-0.129-0.29,0.119-0.678c0.164-0.024,0.381-0.077,0.542-0.117
		c0.015-0.071,0.038-0.169,0.054-0.239c-0.361-0.23-2.755-0.96-3.186-0.815c-0.07,0.034-0.07,0.034-0.07,0.034s0,0-0.001,0l0,0
		h-0.003l0,0l0,0l0,0h-0.002c-1.311-0.32-1.311-0.32-2.533,0.759C83.89,43.08,83.89,43.08,83.89,43.08h-0.001
		c-0.002,0-0.002,0-0.002,0h-0.002l0,0l0,0l0,0c-0.002,0-0.002,0-0.002,0s0,0-0.002,0l0,0l0,0h-0.004h-0.002
		c-0.002,0-0.002,0-0.003,0l0,0l0,0c-0.49,0.213-1.774,0.923-1.774,0.927c-0.018,0.013-0.018,0.013-0.018,0.013s0,0.002-0.002,0.002
		l0,0c-0.003,0-0.003,0-0.003,0l0,0l0,0c0,0,0,0-0.004,0l0,0h-0.001c0,0,0,0-0.002,0l0,0l0,0h-0.002h-0.002
		c-0.762,0.367-1.297,1.084-2.138,1.324l-0.001,0.002l0,0c0,0,0,0-0.002,0l0,0l0,0c-0.004,0-0.004,0-0.004,0l0,0h-0.002
		c-0.119,0.34,0.081,0.674,0.019,1.013c-0.038,0.01-0.038,0.01-0.038,0.01s0,0-0.002,0l0,0l0,0h-0.002l0,0c-0.006,0-0.006,0-0.006,0
		l0,0c-0.893,0.131-0.893,0.131-0.98,0.534c-0.065,0.119-0.113,0.304-0.099,0.438c0.069,0.016,0.159,0.039,0.228,0.055
		c0.207-0.016,0.307-0.02,0.404-0.025c0.512-0.043,0.691-0.716,1.261-0.657c0.075,0.293,0.075,0.303,0.274,0.628
		c-0.329,0.393-0.855,0.393-1.264,0.627c-0.458,1.791-1.236,2.288-1.531,2.479c-0.023,0.541,0.371,1.064,0.069,1.614
		c-1.69,0.296-2.58,1.511-2.521,1.963c-0.3,0.342-0.769,0.159-1.115,0.353c-0.045,0.545-0.287,1.066-0.235,1.625l0.598,2.329
		c0.057,0.078,0.166,0.228,0.287,0.519c0.07,0.178,1.106,1.146,1.114,1.149c0.163,0.071,1.099,0.351,1.573,0
		c0.104-0.081,0.119-0.115,0.153-0.2c0.44-1.143,0.966-1.246,1.529-1.355c0.679-0.135,0.679,0.7,1.056,1.02
		c-0.08,0.204-0.08,0.204-0.07,0.26c0.037,0.02,0.129,0.062,0.334,0.595c0.107,0.144,0.08,0.343,0.211,0.478
		c0.816,0.858,0.816,0.858,0.898,1.22c0.09,0.406,0.09,0.406,1.241,0.77c0.004,0,0.004,0,0.004,0
		c0.127-0.106,0.177-0.382,0.192-0.494c0.03-0.251,0.035-0.285,0.674-0.455c1.174-0.314,1.301-0.358,1.348-0.445
		c0.003-0.003,0.18-0.656,0.013-1.222c-0.046-0.146-0.008-0.313-0.095-0.445c-0.139-0.228-0.498-0.24-0.544-0.56
		c-0.068-0.532,0.115-0.51,0.429-0.478c0.402,0.046,0.415-0.032,0.455-0.23c0.059-0.318,0.291-0.55,0.433-0.826
		c-2.515,0.114-5.11,0.271-7.772,0.452c2.662-0.182,5.258-0.338,7.777-0.467c0.354-0.475,0.354-0.475,0.372-0.681
		c-0.534-0.462-0.534-0.462-1.835-0.822c-0.039-0.166-0.076-0.333-0.111-0.497c-0.117-0.228-0.269-0.439-0.393-0.668
		c0.122-0.227,0.361-0.35,0.496-0.567c-0.044-0.062-0.101-0.144-0.145-0.208c0.071-0.059,0.168-0.137,0.238-0.191l0.078-0.407
		l0.093-0.321c0.019-0.065,0.036-0.153,0.051-0.215c0.067-0.005,0.159-0.01,0.23-0.01c0.267-0.353,0.267-0.353,0.503-0.438
		c-0.02-0.54,0.057-0.567,0.494-0.715c0.292-0.722,0.292-0.722,0.055-1.805c1.24-1.023,2.385-0.64,2.184,0.381
		c-0.205,1.074-1.332,1.444-1.805,2.314c0.006,0.01,0.639,2.295,0.729,3.088c0.131,0.022,0.302,0.059,0.434,0.081
		c0.069,0.081,0.285,0.33,0.9,0.517c0.052-0.003,0.057-0.003,0.063-0.003c0,0,0.006,0,0.012,0c0.005,0,0.008,0,0.008,0
		c0.007,0,0.012,0,0.016,0c0.001-0.002,0.008-0.002,0.011-0.002s0.012,0,0.015,0c0,0,0.005,0,0.012-0.003c0,0,0.006,0,0.012,0
		c0.388-0.002,0.874,0.248,1.234,0.392c1.209,0.179,2.973-1.648,3.616-0.085c-0.3,0.303-0.624,0.479-0.962,0.579
		c-0.619,0.022-1.25,0.045-1.884,0.071c-0.473-0.029-0.942-0.049-1.386,0.059c-0.318,0.143-0.654,0.244-0.973,0.377
		c-0.105,1.485,2.461,0.78,2.227,2.246c-1.221-0.694-1.221-0.694-1.605-0.81c-0.125,0.475-0.125,0.475-0.986,0.795
		c0.055,0.211,0.101,0.499,0.123,0.717l0.2,0.375c0.049,0.454,0.124,0.9,0.142,1.36c-0.033,0.014-0.033,0.014-0.875,0.254
		c-0.02,0.114-0.045,0.273-0.066,0.387c-0.101,0.046-0.237,0.101-0.338,0.145c-0.402-0.18-0.744-0.489-1.193-0.563
		c-0.582,0.492-1.349,0.679-1.924,1.177c-1.6-0.153-2.459-2.014-4.219-1.788c-0.145,0.02-0.145,0.02-0.146,0.02
		c-1.529-0.341-1.529-0.341-1.763,0.225c0.085,0.094,0.197,0.218,0.281,0.309c-0.069,0.218-0.269,0.473-0.436,0.631l0.063,0.091
		l0.048,0.057c0.119,0.152,0.217,0.414,0.221,0.609c-0.484,0.259-0.484,0.259-1.463,0.032c-0.61-0.025-0.796-0.035-1.557,0.445
		c-0.003,0.228-0.003,0.228,0.162,1.577c-0.489,0.553-0.654,1.316-1.21,1.82c-0.309,0.022-0.57,0.04-0.832,0.062
		c-0.104,0.152-0.242,0.354-0.347,0.504c0.153,0.12,0.362,0.272,0.525,0.377c-1.065,0.771-1.065,0.771-1.5,0.903
		c-0.036,0.088-0.082,0.208-0.117,0.296c-0.095,0.026-0.223,0.059-0.322,0.083c-0.228-0.164-0.531-0.38-0.757-0.544
		c-0.874-0.186-0.853,0.279-0.816,0.981c-0.915-0.017-0.915-0.017-1.152,0.438c-0.8-0.208-0.8-0.208-1.113,0.093
		c0.04,0.229,0.04,0.229,0.759,1.198c0.19,0.003,0.449-0.02,0.637-0.054c1.759,1.261,1.759,1.261,2.195,3.502
		c-0.34,0.294-0.495,0.734-0.823,1.037c-0.098-0.017-0.226-0.039-0.326-0.056c-0.02-0.049-4.191-1.342-5.473,0.624
		c0.575,1.788,0.151,3.664,0.484,5.474c0.11,0.181,0.289,0.439,0.488,0.518c0.643,0.245,0.921-0.641,1.536-0.483
		c0.601,0.151,0.669,0.789,1.047,1.143c0.171,0.048,0.172,0.048,0.174,0.048c0.002-0.005,0.004-0.005,0.004-0.005
		c0.002,0,0.005,0,0.007,0c0.002,0,0.003,0,0.003,0c0.004,0,0.005,0,0.009,0h0.002c0.002,0,0.005,0,0.006,0c0.002,0,0.005,0,0.006,0
		c0.565-0.13,1.057-0.439,1.604-0.618c0.104-0.013,0.105-0.013,0.108-0.013c0.001,0,0.002,0,0.005,0c0,0,0.002,0,0.005,0
		c0,0,0.002,0,0.003,0c0.003,0,0.004-0.003,0.008-0.003h0.003c0,0,0.004,0,0.006,0c0.001,0,0.003,0,0.003,0
		c1.898-0.107,2.673-1.8,2.682-1.817c-0.171-1.921-0.171-1.921,0.096-2.366c0.097,0.003,0.223,0.006,0.317,0.006
		c0.121,0.146,0.125,0.146,0.127,0.146c0.006,0,0.007,0,0.009,0c0.002,0,0.008,0,0.012,0c0.005-0.003,0.005-0.003,0.009-0.003
		c0.002,0,0.007,0,0.011,0c0,0,0.005,0,0.007,0c0.005-0.002,0.008-0.002,0.008-0.002c0.006,0,0.007,0,0.012-0.001
		c0.298-0.059,0.298-0.059,0.799-0.611c0.658-0.533,1.292-1.154,1.295-1.157l0.123-0.198c0.111-0.447-0.013-0.907,0.062-1.353
		c2.807,0.244,2.807,0.244,3.116-0.047c0.215-0.145,0.217-0.145,0.219-0.145h0.004h0.002h0.004c0,0,0.002,0,0.006,0l0,0
		c0,0,0.006,0,0.008,0h0.002c0.027,0,0.027,0,0.027,0c0.063-0.066,0.144-0.159,0.206-0.225c-0.011-0.093-0.028-0.216-0.042-0.307
		c0.078-0.054,0.176-0.126,0.252-0.179c0.045-0.002,0.048-0.002,0.048-0.002c0.026-0.085,0.065-0.2,0.096-0.284
		c0.124-0.044,0.292-0.103,0.413-0.146c1.498,0.999,1.498,0.999,1.532,1.155c0.349,0.192,0.349,0.192,0.525,0.792
		c0.161,0.06,0.417,0.06,0.58-0.002c0.206,0.152,0.438,0.406,0.599,0.604l0.553,0.396l0.353,0.237l0.379,0.085l0.25,0.159
		l0.354,0.117c1.436,0.455,1.436,0.455,1.879,1.404c-0.159,0.224-0.502,0.409-0.751,0.522c-0.878,0.215-1.812,0.107-2.662,0.465
		c0,0.093,0,0.212,0,0.305c1.258,0.612,1.258,0.612,1.538,0.527c0.583,0.525,1.036,0.518,1.256,0.511
		c0.105-0.13,0.213-0.335,0.245-0.501c-0.013-0.106-0.032-0.25-0.046-0.357c1.411-1.378,1.411-1.378,1.244-2.285l-0.184-0.233
		l0.04-0.11l0.11-0.102c0.539,0.144,0.98,0.584,1.59,0.501l0.039-0.14l-0.059-0.2l-0.174-0.263l-0.033-0.175l0.021-0.289
		l-0.078-0.143l-0.143-0.071l-0.309,0.12c-0.683-0.33-1.572-0.722-1.578-0.726l-0.813-0.165c-0.174-0.075-0.408-0.183-0.579-0.264
		c-0.085-0.38-0.132-0.59-1.065-1.304c-0.014-0.106-0.028-0.243-0.039-0.351c-0.734-0.032-0.734-0.032-0.938-0.148
		c-0.028-0.375-0.028-0.375,0.314-0.896c0.184-0.01,0.436,0.039,0.604,0.112c0.217,0.044,0.219,0.044,0.221,0.044
		c0.834,0.933,2.095,1.309,2.965,2.197c1.143,0.276,1.143,0.276,2.223,2.071c0.078,0.305,0.09,0.422,0.105,0.539
		c0.273,0.482,0.318,0.504,0.658,0.663c0.072-0.056,0.17-0.132,0.238-0.188c0.637,0.686,0.777,1.632,1.264,2.398
		c0.543-0.204,1.01-0.586,1.594-0.695c0.033-0.091,0.078-0.215,0.105-0.309c0.914-0.433,0.914-0.433,1.046-0.523
		c-0.146-0.179-0.387-0.38-0.583-0.497c0.008-0.095,0.016-0.227,0.027-0.322c-0.211-0.169-0.49-0.395-0.701-0.563
		c0.075-0.052,0.173-0.12,0.251-0.172c0.204,0.078,0.479,0.19,0.681,0.279c0.775-0.705,2.227-2.024,2.338-0.172
		c0.008,0.181-0.008,0.436,0.066,0.602c-0.55,0.081-0.756,0.113-1.093,0.972c0.821,1.11,2.269,1.108,3.308,1.838
		c0.43-0.159,0.663-0.59,1.072-0.781c0.807,0.424,0.819,0.458,0.957,0.874c-0.147,0.166-0.354,0.387-0.504,0.556
		c0.012,0.091,0.021,0.215,0.029,0.306c0.99,0.546,1.139,0.259,1.502-0.438c-0.15-0.264-0.438-0.413-0.574-0.685
		c0.911-1.299,1.442-0.835,1.758-0.561c-0.271,4.581-1.055,4.755-2.24,5.019c-0.033,0.085-0.08,0.201-0.118,0.291
		c0.02,0.024,3.216,4.243,3.819,5.155c-0.029,0.103-0.143,0.245-0.101,0.345c0.448,1.062,1.48,1.835,1.556,3.081
		c0.071,0.105,0.071,0.105,0.842,0.756c-0.082,1.096-0.093,1.265,0.717,1.515c0.098,0.205,0.154,0.511,0.287,0.689
		c0.059,0.081,0.145,0.179,0.21,0.253c0.124,0.154,0.095,0.472,0.029,0.66c-0.438,1.248,0.666,1.536,2.063,1.901
		c0.02,0,0.021,0,0.024,0c0.75-0.213,1.417-0.63,2.146-0.884c0.004,0,0.004,0,0.004,0h0.003c0,0,0,0,0.001,0c0,0,0,0,0.004,0
		c0.002,0,0.002,0,0.002,0l0,0l0,0h0.004c0.023,0,0.023,0,0.026,0c0.177-0.075,0.411-0.198,0.569-0.303
		c0.128-0.029,0.128-0.029,0.133-0.029l0,0c0.004,0,0.007,0,0.007,0l0,0c0,0,0,0,0.003,0h0.004h0.001h0.003
		c2.204-0.484,5.33-7.483,5.336-7.551c-0.428-0.094-0.428-0.094-1.506-1.033c-0.154,0.117-0.344,0.292-0.471,0.436
		c-0.418-0.022-0.418-0.022-0.857,0.37c-0.721-0.05-0.721-0.05-1.578-1.716c-1.035-0.299-1.915-2.74-1.915-2.763
		c0.333-0.075,0.678-0.107,1.011-0.195c0.232,0.242,0.413,0.663,0.539,0.97c0.146,0.269,0.371,0.616,0.537,0.873l0.254,0.184
		l0.357,0.266c0.035,0.035,4.631,2.281,4.729,2.217l3.292,0.581c0.753,0.436,0.451,1.445,1.08,1.949
		c0.004,0.203-0.016,0.473-0.056,0.668c0.009-0.071,0.083,0.145,0.117,0.206c0.183,0.234,0.249,0.558,0.538,0.709
		c0.283-0.095,0.283-0.095,0.621-0.574c0.369,0.751,0.282,4.479,0.266,4.65c-0.232,0.853-0.06,1.728-0.164,2.586
		c0.2,0.882-0.246,1.88,0.484,2.665c0.703-0.332,0.758-0.455,0.908-0.822c0.135-0.303,0.166-0.442,0.201-0.579l0.297-0.382
		c0.045-0.187,0.086-0.379,0.13-0.57l0.134-0.247c0.196-0.436,0.196-0.436,0.282-1.393c0.374-1.117,0.374-1.117,0.585-1.393
		l0.254-0.259c0.121-0.12,0.309-0.262,0.457-0.352c0.014-0.089,0.027-0.177,0.041-0.265c0.851-1.202,0.851-1.202,1.863-2.961
		c0.088-0.017,0.203-0.036,0.291-0.052c0.057,0.191,0.098,0.451,0.109,0.649c0.191-0.052,0.443-0.12,0.632-0.172
		c0.05,0.104,0.05,0.104-0.021,4.409c0.387-0.187,0.387-0.187,0.563-1.013c0.092,0.264,0.092,0.264-0.789,5.101
		c-0.635,2.415-0.635,2.415-1.057,5.369c0.063,0.313,0.159,0.384,0.246,0.459c0.488-1.443,0.488-1.443,0.73-2.275l-0.07-0.179
		c-0.1-0.953,0.191-1.944,1.057-4.886c0.278,0.631-0.162,2.618-0.162,2.618l0,0C132.878,106.876,136.275,96.088,135.531,85.482z"/>
	<linearGradient id="SVGID_23_" gradientUnits="userSpaceOnUse" x1="101.0708" y1="124.5864" x2="111.8989" y2="124.5864">
		<stop  offset="0.8226" style="stop-color:#005EAC"/>
		<stop  offset="1" style="stop-color:#004A9F"/>
	</linearGradient>
	<path fill="url(#SVGID_23_)" d="M111.206,116.999c-0.062,0-0.125,0.056-0.179,0.082c-0.421,0.387-0.616,0.624-1.479,1.787
		c-2.436,3.28-2.514,3.234-2.631,3.166c-0.211-0.123-0.169-0.592-0.5-0.51c-0.021,0.003-0.044,0.025-0.065,0.045
		c-0.157,0.095-0.125,0.318-0.279,0.423c-0.406,0.253-0.962,0.169-1.299,0.578c-0.007,0.007-0.841,1.235-0.874,2.711
		c-0.002,0.215-0.018,0.871-0.105,1.06c-0.301,0.631-1.064,0.771-1.438,1.33l-1.285,4.271c0.211,0.231,0.855,0.934,3.947-2.178
		c0.744-0.744,1.797-2.756,2.727-4.534c0.082-0.166,0.082-0.166,1.077-1.642c0.05-0.068,0.341-0.24,0.466-0.312
		c0.504-0.306,0.504-0.306,0.721-1.073c0.32-1.095,0.32-1.095,0.531-1.095c0.013,0.003,0.015,0.003,0.018,0.003h0.005l0,0
		c0.005,0,0.005,0,0.005,0c0.002,0,0.002,0,0.002,0c0.003,0,0.003,0,0.006,0l0,0h0.006c0.025-0.01,0.063-0.017,0.089-0.017
		c0.472-0.79,0.665-1.71,1.172-2.474C112.086,118.256,111.489,116.983,111.206,116.999z"/>
	<radialGradient id="SVGID_24_" cx="124.8286" cy="127.2104" r="0.0137" gradientUnits="userSpaceOnUse">
		<stop  offset="0" style="stop-color:#53C1E9"/>
		<stop  offset="1" style="stop-color:#004A9F"/>
	</radialGradient>
	<path fill="url(#SVGID_24_)" d="M124.831,127.215l0.011-0.02c-0.008,0.01-0.018,0.02-0.024,0.029
		C124.823,127.221,124.824,127.218,124.831,127.215z"/>
	<radialGradient id="SVGID_25_" cx="95.4126" cy="83.5176" r="0.9885" gradientUnits="userSpaceOnUse">
		<stop  offset="0" style="stop-color:#53C1E9"/>
		<stop  offset="1" style="stop-color:#004A9F"/>
	</radialGradient>
	<path fill="url(#SVGID_25_)" d="M96.641,83.876c0.012-0.125-0.01-0.311-0.205-0.462c-0.046-0.039-0.046-0.039-0.668-0.237
		c-0.145-0.049-0.078-0.23-0.199-0.296c-0.069-0.032-0.092-0.03-0.199-0.013c-0.266,0.098-0.564,0.335-0.896,0.704
		c-0.38,0.417-0.327,0.44-0.188,0.499C94.772,84.276,96.604,84.177,96.641,83.876z"/>
	<radialGradient id="SVGID_26_" cx="100.7212" cy="35.3208" r="0" gradientUnits="userSpaceOnUse">
		<stop  offset="0" style="stop-color:#53C1E9"/>
		<stop  offset="1" style="stop-color:#004A9F"/>
	</radialGradient>
	<polygon fill="url(#SVGID_26_)" points="100.721,35.321 100.721,35.321 100.721,35.321 	"/>
	<radialGradient id="SVGID_27_" cx="103.2134" cy="36.4976" r="0.0077" gradientUnits="userSpaceOnUse">
		<stop  offset="0" style="stop-color:#53C1E9"/>
		<stop  offset="1" style="stop-color:#004A9F"/>
	</radialGradient>
	<path fill="url(#SVGID_27_)" d="M103.211,36.495L103.211,36.495L103.211,36.495c-0.005,0-0.005,0-0.005,0l0,0l0,0v-0.002l0,0
		c-0.003,0-0.003,0-0.003,0c0.008,0.005,0.013,0.008,0.02,0.01l-0.007-0.005L103.211,36.495z"/>
	<radialGradient id="SVGID_28_" cx="53.8735" cy="34.7324" r="0.1539" gradientUnits="userSpaceOnUse">
		<stop  offset="0" style="stop-color:#53C1E9"/>
		<stop  offset="1" style="stop-color:#004A9F"/>
	</radialGradient>
	<path fill="url(#SVGID_28_)" d="M54.014,34.602c-0.005,0.002-0.014,0.007-0.02,0.007c-0.036,0.018-0.1,0.046-0.146,0.088
		c-0.057,0.047-0.095,0.113-0.148,0.166c0.116-0.075,0.232-0.146,0.348-0.217C54.041,34.641,54.02,34.628,54.014,34.602z"/>
	<radialGradient id="SVGID_29_" cx="103.8813" cy="36.8521" r="0.527" gradientUnits="userSpaceOnUse">
		<stop  offset="0" style="stop-color:#53C1E9"/>
		<stop  offset="1" style="stop-color:#004A9F"/>
	</radialGradient>
	<path fill="url(#SVGID_29_)" d="M103.223,36.502l0.307,0.167c0.303,0.159,0.631,0.33,1.01,0.532
		C104.1,36.956,104.042,36.92,103.223,36.502z"/>
	<radialGradient id="SVGID_30_" cx="45.4731" cy="37.3115" r="0.265" gradientUnits="userSpaceOnUse">
		<stop  offset="0" style="stop-color:#53C1E9"/>
		<stop  offset="1" style="stop-color:#004A9F"/>
	</radialGradient>
	<path fill="url(#SVGID_30_)" d="M45.148,37.499c0.224-0.13,0.443-0.257,0.65-0.374C45.323,37.378,45.212,37.437,45.148,37.499z"/>
	<radialGradient id="SVGID_31_" cx="59.8481" cy="32.3643" r="0.4012" gradientUnits="userSpaceOnUse">
		<stop  offset="0" style="stop-color:#53C1E9"/>
		<stop  offset="1" style="stop-color:#004A9F"/>
	</radialGradient>
	<path fill="url(#SVGID_31_)" d="M59.319,32.515c0.01-0.001,0.03,0,0.042,0.004l0.039,0.018c0.186-0.022,0.206-0.031,0.445-0.122
		c0.168-0.062,0.214-0.074,0.257-0.084c0.017-0.004,0.033-0.004,0.047-0.009l0.232-0.115c0.002-0.001,0.003-0.006,0.007-0.01
		c-0.002,0-0.002-0.003-0.004-0.003c-0.032-0.007-0.135,0.01-0.145,0.012c-0.141,0.032-0.267,0.115-0.408,0.149
		c0.035-0.038,0.084-0.053,0.124-0.078c-0.006-0.005-0.01-0.005-0.146,0.055c0.024-0.015,0.062-0.037,0.088-0.053l-0.022,0.013
		l-0.049-0.007l-0.164,0.075l-0.051-0.002c-0.081,0.031-0.109,0.039-0.13,0.041c0-0.002,0-0.004,0-0.004
		c0.006-0.006,0.009-0.008,0.012-0.008c-0.024,0.012-0.055,0.031-0.076,0.042c-0.089,0.054-0.102,0.07-0.111,0.083
		C59.313,32.514,59.317,32.515,59.319,32.515L59.319,32.515z"/>
	<radialGradient id="SVGID_32_" cx="101.0337" cy="44.3174" r="0.6009" gradientUnits="userSpaceOnUse">
		<stop  offset="0" style="stop-color:#53C1E9"/>
		<stop  offset="1" style="stop-color:#004A9F"/>
	</radialGradient>
	<path fill="url(#SVGID_32_)" d="M100.51,43.757c-0.064,0.021-0.072,0.066-0.063,0.151c-0.015-0.026-0.038-0.049-0.052-0.075
		c0.307,0.567,0.646,0.944,0.646,0.948c0.005,0,0.555,0.196,0.624,0.027c0.03-0.081-0.05-0.212-0.103-0.283
		C101.347,44.222,100.752,43.736,100.51,43.757z"/>
	<g>
		<linearGradient id="SVGID_33_" gradientUnits="userSpaceOnUse" x1="66.5718" y1="38.6519" x2="77.5995" y2="31.5487">
			<stop  offset="0" style="stop-color:#53C1E9"/>
			<stop  offset="0.8817" style="stop-color:#2792CE"/>
		</linearGradient>
		<path fill="url(#SVGID_33_)" d="M73.727,31.076c0.421,0.925,0.62,1.346,1.022,1.612c0.279,0.174,0.415,0.211,1.716,0.499
			c0.541,0.122,0.996,0.434,1.508,0.629c0.264,0.104,0.815,0.312,2.757-0.085c-0.425-0.635-1.118-1.089-1.307-1.882
			c-0.155-0.676,0.474-1.167,0.438-1.806c0-0.052-0.016-0.115-0.02-0.154c-0.074-0.017-0.156-0.017-0.23-0.024
			c-0.018,0-0.028,0-0.054,0c-0.534-0.005-0.724,0.184-0.964,0.479c-0.191,0.24-0.367,0.301-0.604,0.317
			c-0.983,0.096-1.58-0.891-2.538-0.886c0.021,0.064,0.054,0.147,0.084,0.206c0.11,0.612-0.229,0.8-0.817,0.912
			c-0.286-0.3-0.677-0.462-0.962-0.758c-0.173,0.022-0.403,0.046-0.581,0.062c0.347,0.93,0.347,0.93,0.493,1.151
			C73.687,31.269,73.718,31.154,73.727,31.076z"/>
		<linearGradient id="SVGID_34_" gradientUnits="userSpaceOnUse" x1="68.4111" y1="41.5073" x2="79.4392" y2="34.4039">
			<stop  offset="0" style="stop-color:#53C1E9"/>
			<stop  offset="0.8817" style="stop-color:#2792CE"/>
		</linearGradient>
		<path fill="url(#SVGID_34_)" d="M69.069,35.526c1.19-0.053,2.098,0.529,2.203,1.407c0.015,0.123-0.003,0.783-1.757,1.557
			c-0.049,0.029-0.057,0.134-0.074,0.192c0.064,0.089,0.074,0.102,0.278,0.097c0.006,0,0.006,0,0.009,0l-0.113,0.185
			c1.251-0.093,1.767-0.136,2.635-0.212c-1.02,1.016-1.188,1.586-0.721,2.667c0.572-0.029,1.138,0.124,1.707,0.015
			c-0.112,0.44-0.372,0.863-2.185,0.847c0.838,1.898,1.849,2.747,2.28,3.116c1.777-0.477,2.195-1.25,2.141-3.971
			c-0.046-2.002,0.075-2.409,0.857-2.927c0.365,0.372,1.587,1.688,2.173,3.123c0.213,0.525,0.396,0.739,0.516,0.819
			c0.123,0.078,1.658,0.561,1.799-0.889c0.043-0.462-0.061-1.073-0.174-1.521c-0.699-2.831-1.465-3.059-4.326-3.927
			c-0.096-0.02-0.232-0.04-0.306-0.104c-0.868-0.712-0.959-1.979-1.9-2.646c-0.757-0.533-1.433-0.611-1.829-0.651
			c-0.736-0.08-0.819-0.178-0.996-0.739c-0.096,0.01-0.21,0.018-0.301,0.034c-0.227,0.037-0.227,0.037-1.976,0.515
			c0.146,0.345,0.133,0.731,0.298,1.066c-0.193-0.125-0.449-0.296-0.635-0.419c-0.499,0.549-0.686,1.3-1.231,1.823
			c-0.199,0.203-0.62,0.287-0.945,0.294C66.734,35.626,66.734,35.626,69.069,35.526z"/>
	</g>
	<radialGradient id="SVGID_35_" cx="69.7446" cy="59.0913" r="0.2018" gradientUnits="userSpaceOnUse">
		<stop  offset="0" style="stop-color:#53C1E9"/>
		<stop  offset="1" style="stop-color:#004A9F"/>
	</radialGradient>
	<path fill="url(#SVGID_35_)" d="M69.741,59.037c-0.143,0.025-0.226,0.081-0.276,0.113c0.185-0.015,0.371-0.032,0.559-0.047
		C69.923,59.028,69.831,59.028,69.741,59.037z"/>
	<path fill="none" d="M75.117,71.264c-27.701,0-50.158,5.049-50.158,11.27h100.319C125.278,76.313,102.818,71.264,75.117,71.264z"/>
	<linearGradient id="SVGID_36_" gradientUnits="userSpaceOnUse" x1="4.6567" y1="89.8232" x2="145.9907" y2="89.8232">
		<stop  offset="0.0699" style="stop-color:#53C1E9"/>
		<stop  offset="1" style="stop-color:#004A9F"/>
	</linearGradient>
	<path fill-rule="evenodd" clip-rule="evenodd" fill="url(#SVGID_36_)" d="M29.182,140.325c0.254,0.221,0.512,0.438,0.771,0.656
		c0.181,0.149,0.359,0.299,0.542,0.448c0.278,0.231,0.563,0.459,0.846,0.683c0.163,0.13,0.324,0.264,0.487,0.391
		c0.356,0.276,0.715,0.549,1.075,0.818c0.094,0.072,0.189,0.146,0.285,0.218c0.466,0.345,0.938,0.689,1.414,1.024
		c0.049,0.032,0.098,0.064,0.147,0.101c0.422,0.299,0.849,0.592,1.278,0.878c0.126,0.084,0.254,0.169,0.38,0.25
		c0.358,0.234,0.714,0.468,1.076,0.699c0.149,0.094,0.302,0.188,0.449,0.279c0.344,0.215,0.688,0.429,1.035,0.637
		c0.06,0.036,0.118,0.072,0.176,0.107c0.008,0.004,0.014,0.007,0.02,0.01c10.582,6.31,22.946,9.943,36.163,9.943
		c13.703,0,26.492-3.904,37.326-10.655c0.006-0.003,0.012-0.006,0.02-0.006c0.08-0.053,0.159-0.104,0.24-0.153
		c0.328-0.211,0.656-0.423,0.983-0.634c0.157-0.101,0.313-0.205,0.472-0.309c0.32-0.215,0.637-0.429,0.955-0.647
		c0.154-0.106,0.311-0.214,0.469-0.321c0.314-0.221,0.63-0.445,0.943-0.673c0.148-0.11,0.298-0.218,0.447-0.325
		c0.323-0.237,0.644-0.48,0.965-0.725c0.133-0.101,0.266-0.201,0.4-0.306c0.345-0.267,0.686-0.54,1.025-0.81
		c0.103-0.084,0.207-0.166,0.311-0.247c0.889-0.725,1.764-1.469,2.618-2.232c0.049-0.049,0.101-0.095,0.153-0.144
		c0.332-0.299,0.666-0.602,0.99-0.907h-0.002c10.314-9.66,17.732-22.373,20.809-36.697c0.076-0.354,0.151-0.709,0.223-1.068
		c0.035-0.174,0.065-0.346,0.102-0.519c0.797-4.251,1.217-8.633,1.217-13.115c0-28.984-17.463-53.899-42.441-64.795
		c19.619,10.208,33.023,30.72,33.023,54.362c0,33.82-27.43,61.244-61.248,61.244c-33.82,0-61.247-27.424-61.247-61.244
		c0-23.643,13.403-44.154,33.021-54.362C22.123,33.075,4.657,57.99,4.657,86.974c0,4.57,0.439,9.04,1.269,13.371
		c0.029,0.142,0.053,0.287,0.082,0.427c0.074,0.374,0.157,0.745,0.236,1.115c3.106,14.244,10.504,26.875,20.768,36.486h-0.007
		c0.111,0.104,0.228,0.205,0.339,0.31c0.184,0.169,0.368,0.338,0.551,0.504"/>
	<linearGradient id="SVGID_37_" gradientUnits="userSpaceOnUse" x1="1.5972" y1="165.9224" x2="150.4165" y2="165.9224">
		<stop  offset="0.0699" style="stop-color:#53C1E9"/>
		<stop  offset="1" style="stop-color:#004A9F"/>
	</linearGradient>
	<path fill="url(#SVGID_37_)" d="M1.597,175.458c0,0,25.92-8.39,74.41-8.39c48.488,0,74.409,8.39,74.409,8.39
		s-20.4-19.073-74.409-19.073C21.997,156.385,1.597,175.458,1.597,175.458z"/>
	<path fill-rule="evenodd" clip-rule="evenodd" fill="#ABAAAA" d="M63.198,11.876l17.061-4.682
		c6.798-1.868,21.794,1.802,1.585,7.573l-10.101,2.887c0.99,1.349,1.664,2.295,2.656,3.644l1.169-0.364
		c1.707-0.614,2.427,1.372,1.26,1.935l-0.898,0.458l3.209,4.463l-3.381,0.854L61.394,20.53l-16.212,4.321l3.374,1.997l-1.517,0.608
		l-11.434-5.84l1.84-0.878l2.489,1.315l0.444-7.793l1.491-0.75l2.902,5.892l7.008-2.844c-6.4-3.563-12.8-7.122-19.202-10.685
		l2.975-2.034L49.29,7.812l1.375-0.988c2.437-1.835,3.68,0.599,2.675,1.336l-0.795,0.599L63.198,11.876z"/>
</g>
<rect x="-221.628" y="-311.183" fill="none" width="595.271" height="841.89"/>
</svg>
