<?xml version="1.0" encoding="utf-8"?>
<!-- Generator: Adobe Illustrator 18.0.0, SVG Export Plug-In . SVG Version: 6.00 Build 0)  -->
<!DOCTYPE svg PUBLIC "-//W3C//DTD SVG 1.1//EN" "http://www.w3.org/Graphics/SVG/1.1/DTD/svg11.dtd">
<svg version="1.1" id="图层_1" xmlns="http://www.w3.org/2000/svg" xmlns:xlink="http://www.w3.org/1999/xlink" x="0px" y="0px"
	 viewBox="0 244 612 304" enable-background="new 0 244 612 304" xml:space="preserve">
<g>
	<g>
		
			<linearGradient id="SVGID_1_" gradientUnits="userSpaceOnUse" x1="54.3238" y1="125.5087" x2="72.1498" y2="125.5087" gradientTransform="matrix(1.7367 0 0 -1.7367 0 549.2031)">
			<stop  offset="0" style="stop-color:#53C1E9"/>
			<stop  offset="1" style="stop-color:#3FABDD"/>
		</linearGradient>
		<path fill="url(#SVGID_1_)" d="M104.9,340.9l5.9-0.5c0.7-0.2,1.7-0.5,5.2-2.8c0.3-0.2,0.3-0.3,0.5-1.2c0.2-1,0.2-1,2.3-2.3
			c0.7-0.3,1.7-0.9,2.6-0.3c0.3,0.2,0.5,0.2,0.7,0c0.3-0.2,0.3-0.2,1.4-1.6l0.3-1.4l1.4-4c-1.4-3.1-1.7-3.3-5.2-5.4
			c-0.3,0-0.3,0-1.6,1.4c-0.2,0.2-0.2,0.2-1.9,0.7c-1.2,0.3-2.3,1.2-3.6,1.4c-0.9,0.2-1.6-0.7-2.4-0.7c-1.6,0-3,1.2-4.5,1.2
			c-0.2,0-0.2,0-2.3-0.9c-1.6-0.7-1.6-0.7-1.7-0.7c-0.5-0.9-0.7-1.2-1.2-1l0,0c-0.7,0.2-1,0.5-2.1,2.3c-0.3,0.5-0.3,0.5-2.6,2.1
			c-1.7,2.1-1.2,3,1.6,2.8c1,0,1,0.9,1,0.9c0.3,0.2,1-0.2,1.2,0.5c-0.2,0.3-0.3,0.5-1.7,0.9c-6.6,1.7-3,3-2.8,3c1-0.2,1.9-1,3.1-0.7
			l0.2,2.6c-0.3,1.4-1.2,2.3-1.7,3.6c0.3,0.5,0.3,0.5,5.4-1.9c1-0.5,1.2,0,1.2,0.7C103.9,340.1,103.9,341.1,104.9,340.9z"/>
		
			<linearGradient id="SVGID_2_" gradientUnits="userSpaceOnUse" x1="24.5869" y1="70.4793" x2="140.6365" y2="70.4793" gradientTransform="matrix(1.7367 0 0 -1.7367 0 549.2031)">
			<stop  offset="0" style="stop-color:#53C1E9"/>
			<stop  offset="1" style="stop-color:#004A9F"/>
		</linearGradient>
		<path fill="url(#SVGID_2_)" d="M176.8,484.2c-51.6,21.7-110.6-0.9-134.1-50.5c0.5,1.4,1,2.8,1.6,4.2c22.1,52.4,83,76.9,136,54.5
			c53-22.4,78-83,55.9-135.5c-0.5-1.4-1.2-2.8-1.9-4C253.4,404.3,228.4,462.3,176.8,484.2z"/>
		
			<linearGradient id="SVGID_3_" gradientUnits="userSpaceOnUse" x1="33.4542" y1="126.6275" x2="47.229" y2="126.6275" gradientTransform="matrix(1.7367 0 0 -1.7367 0 549.2031)">
			<stop  offset="0" style="stop-color:#53C1E9"/>
			<stop  offset="1" style="stop-color:#1282C4"/>
		</linearGradient>
		<path fill="url(#SVGID_3_)" d="M64.8,327.2c-1,1.6-1.9,2.8-1,2.6c0.2,0,0.5-0.2,0.7-0.2c0,0.7-0.7,1.4-0.5,2.1
			c0.7,0.3,1-0.5,1.7-0.3c0.5,1.7,0.2,2.1-2.8,5.2c-0.3,0.3-0.7,0.9-1.2,1.2c0,0-0.2,0-0.3,0c-0.2,0-0.5,0-1.6,1.2
			c0,0-1.9,2.3-1.4,2.8c0.7-0.2,0.7-1.6,1.6-1.2c0.9,0.3,0,1.2,0,1.7c0,0,1,2.8,2.4,1.9c3.6-2.1,3.6-2.8,3.6-3.8c0-1.9,0-2.4,0.3-3
			c0.2-0.3,0.5-0.3,0.9-0.5c1-0.3,1-0.3,3.8-3c1.4-1.2-1.9-2.1-1.2-3.8s2.8-2.4,3.1-4.3c0-0.3-0.2-0.7-0.5-0.9
			c2.8-2.1,3.1-2.3,5.7-5.4c-0.2,0.2-0.3,0.2-0.5,0.3c1-2.1,3.1-3.5,4.5-5.4v-0.2c-2.4,1.2-8.3,8-9.7,10.6c-1.4-1.4,3-4,1-4
			c-1,0-1.7,0.7-4.9,3.8c3.1-3.5,3.1-3.5,3.3-3.6C70.5,321.5,68.3,323.8,64.8,327.2z"/>
		
			<linearGradient id="SVGID_4_" gradientUnits="userSpaceOnUse" x1="38.596" y1="139.836" x2="61.916" y2="139.836" gradientTransform="matrix(1.7367 0 0 -1.7367 0 549.2031)">
			<stop  offset="0" style="stop-color:#53C1E9"/>
			<stop  offset="1" style="stop-color:#057CC0"/>
		</linearGradient>
		<path fill="url(#SVGID_4_)" d="M68.9,316.8c3.1-1,3.1-1,5.2-3.1c-0.3,0-0.9,0.3-1.2,0.2c-0.3,0.2-0.9,0.3-1.2,0.5
			c0,0,0-0.2-0.2-0.2c1.9-1.9,4.9-2.3,6.9-3.6c0,0,3.5-2.4,6.9-4.5c0.5-0.3,0.5-0.3,2.4-1.7c4-2.4,8.5-3.8,12.5-6.1
			c-0.3,0-0.3,0-2.1,0.5l0,0c0,0,0,0,7.3-2.8c0.5-0.2,1-0.5,1-0.5c-0.2,0-0.2,0-0.7,0.2c0.3-0.2,0.3-0.2,1.4-0.7
			c-0.3,0.2-0.3,0.2-2.6,0.9c0.9-0.3,1.6-0.5,2.4-0.9c-0.3,0-1,0.2-1.2,0.2c-0.3,0.2-0.3,0.2-2.6,1c0.3-0.2,0.3-0.2,1.2-0.5
			c0,0-2.1,0.5-7.1,2.8c0.5-0.2,1-0.5,1.6-0.7l-2.3,1l0,0c-1.2,0.7-2.6,1.2-3.8,1.7l0,0c-1.4,0.7-1.4,0.7-2.3,1.2l0,0
			c-0.5,0.3-1.2,0.5-1.7,0.9c0.3-0.2,0.7-0.3,1-0.3c-0.9,0.5-1.7,0.9-2.6,1.2c0,0,0,0,0.2-0.2c-2.8,1.6-6.3,3.6-8.7,5.2l-0.3,0.2
			c-0.5,0.3-0.5,0.3-0.7,0.5c0.7-0.3,0.7-0.3,1.4-0.5c-2.1,1.2-4,2.8-6.1,4.2c0.2-0.2,0.2-0.2,0.9-0.7c-0.7,0.5-1.6,1.2-2.3,1.7l0,0
			c-1.4,1.4-3,2.4-4.3,3.8C67.7,317.4,68.2,316.8,68.9,316.8C68.8,316.6,68.8,316.6,68.9,316.8z"/>
		
			<linearGradient id="SVGID_5_" gradientUnits="userSpaceOnUse" x1="60.3443" y1="67.0326" x2="119.0764" y2="67.0326" gradientTransform="matrix(1.7367 0 0 -1.7367 0 549.2031)">
			<stop  offset="0.2204" style="stop-color:#3FABDD"/>
			<stop  offset="1" style="stop-color:#004A9F"/>
		</linearGradient>
		<path fill="url(#SVGID_5_)" d="M200.4,423.6c-0.3,0-0.3,0-1.6,0.7c-2.6-1.7-2.6-1.7-5.9-6.9c0.2-0.5,0.2-1,0-1.6
			c-3.6-1.6-2.1-5.9-4.5-8.2c-1-1.4-0.9-3.3-1.7-4.9c0,0-4-8-4.7-8.9c-0.5-0.7-1.6-0.7-2.1-0.7c-0.3,0-0.3,0-0.3,0l0,0l0,0l0,0l0,0
			l0,0l0,0l0,0c-0.3,0.2-0.7,0.3-0.9,0.7c-2.3,0.2-2.3,0.2-12.7-2.8c-0.2,0.2-0.5,0.5-0.7,0.7c-0.3,0.2-0.3,0.2-2.1,1.2
			c-0.3,1.2,0.5,2.6-0.7,3.6c-2.8-1.2-2.8-1.2-2.8-1.2h-0.3c-4.5-2.1-4.5-2.1-6.4-2.3c-0.3,0-0.3,0-0.3,0l0,0l0,0l0,0l0,0l0,0l0,0
			l0,0c-0.2-0.2-0.5-0.2-0.9-0.3c-1.2-2.4-1.2-2.4-3.5-3.8c-1.7-1,0.2-3.1-1.2-4.3c-0.3-0.3-0.3-0.3-5.6,0c-3.8,1-8.2-0.3-11.3,3
			c-2.8,3-3.1,2.8-5.2,1.2c-1.9-1.2-1.9-1.2-5.2,1.2c-0.3,0.2-0.3,0.9-0.3,1.2l-13.7,20c-0.9,1-1,1.4-1,3.1c0,1.9,1.6,3.5,1.7,5.2
			c0.3,2.4-1.7,4.7-0.2,7.1c0.5,0.9,0.5,0.9,15.1,9.9c0.9,0.3,1.7,0.3,2.6-0.2l0,0c0,0,4-2.1,6.3-0.7c3.1-0.9,5.6-3.3,9-3.5
			c0.3,0,0.3,0,3.3,2.4c0.2,0,0.3,0,0.5,0c-0.2,0-0.3,0.2-0.3,0.2c1.6,0.7,3.6-0.5,4.9,1.2c0.5,0.7,0.9,1.7,0.7,2.1
			c-0.2,0.9-1.2,1.4-1.4,2.3c0.2,1.6,0.5,1.9,2.3,2.8c2.1,1,4.3,5.9,4.2,7.5c-0.2,1.4,2.3,2.8,0.7,4c-2.4,1.7-2.8,6.6-2.8,6.6
			c0.2,0.9,1.4,0.7,1.7,1.6c0,0.2,0.2,0.5,0.2,0.7s0,0.2,0,0.3s0.2,0.5,0.2,0.9c0.2,1,1.4,1.7,0.9,3c-0.2,0.3-0.3,1-0.2,1.4l2.1,4.7
			c0,0.3-0.2,0.7-0.2,1c0.2,0,0.2,0.2,0.3,0.2c-0.2,0.5-0.2,0.5,1,2.6c-0.7,2.1-0.7,2.1,0.3,2.4c0.2,0.3,0.2,0.9,0.3,1.2
			c0.2,0,0.3,0,0.3,0c1-0.2,1.7-1.2,2.8-1.4c0.7-0.2,1.2,0.7,1.9,0.5c0.2,0,2.3-0.9,2.4-1c3.3-1.7,3.8-2.6,5.9-5.4
			c2.3-3.1,2.3-3.1,2.3-3.1c0.3-1.4,1.7-1.2,2.6-1.9c2.6-1.9,1.9-6.1,5-7.6c0.5-1.4,2.3-0.9,3-1.9l0,0l0,0l0,0c0.7-0.5,1.4-1,1.4-1
			c0-0.2,0.2-0.2,0.2-0.3c0.7-1.2,0.3-2.6,1-3.8c0.5-1,2.1-1.4,2.4-2.6c-2.3-1.9-3.6-3-0.7-8c0.9-1.6,2.3-2.3,2.6-2.4
			c1-0.5,1.7-1.7,2.6-2.4c1-1,1.4-2.8,3.1-3.1c0.7-0.2,2.3-1.7,3.3-2.8c0.2,0,0.2,0,0.3,0c0-0.2,0.2-0.3,0.2-0.5
			c0.2-0.2,0.3-0.3,0.3-0.3h-0.2c1.2-3.5,4.9-5.4,6.1-8.9c0-0.2,0-0.3,0-0.5C206.1,422.4,206.1,422.4,200.4,423.6z"/>
		
			<radialGradient id="SVGID_6_" cx="129.6136" cy="50.4423" r="0" gradientTransform="matrix(1.7367 0 0 -1.7367 0 549.2031)" gradientUnits="userSpaceOnUse">
			<stop  offset="0" style="stop-color:#53C1E9"/>
			<stop  offset="1" style="stop-color:#004A9F"/>
		</radialGradient>
		<path fill="url(#SVGID_6_)" d="M225.1,461.6L225.1,461.6L225.1,461.6L225.1,461.6z"/>
		
			<radialGradient id="SVGID_7_" cx="100.3619" cy="94.1805" r="0.9837" gradientTransform="matrix(1.7367 0 0 -1.7367 0 549.2031)" gradientUnits="userSpaceOnUse">
			<stop  offset="0" style="stop-color:#53C1E9"/>
			<stop  offset="1" style="stop-color:#004A9F"/>
		</radialGradient>
		<path fill="url(#SVGID_7_)" d="M176.4,386.3c0-0.2,0-0.5-0.3-0.9c0,0,0,0-1.2-0.3c-0.2,0-0.2-0.3-0.3-0.5c-0.2,0-0.2,0-0.3,0
			c-0.5,0.2-1,0.5-1.6,1.2c-0.7,0.7-0.5,0.7-0.3,0.9C173.1,387,176.4,386.8,176.4,386.3z"/>
		
			<linearGradient id="SVGID_8_" gradientUnits="userSpaceOnUse" x1="68.8814" y1="112.7156" x2="78.5663" y2="112.7156" gradientTransform="matrix(1.7367 0 0 -1.7367 0 549.2031)">
			<stop  offset="0" style="stop-color:#53C1E9"/>
			<stop  offset="0.1774" style="stop-color:#3FABDD"/>
		</linearGradient>
		<path fill="url(#SVGID_8_)" d="M121.7,349.8c0,0.5,2.6,4.3,2.6,4.3c1,1.2,1,1.2,2.3,1c0.2,0,0.2,0,0.2,0l0,0l0,0l0,0l0,0l0,0l0,0
			l0,0c1.2-0.2,1.4,0,1.6,0.7c-0.5,0.9-1.9,0.3-2.4,1.4c-0.7,1.2-0.7,3.5,0,3.3c1-0.2,1-0.2,1-0.2c0,0.5,0,0.7-1,1.6
			c-1.9,1.4-1,1.7-0.3,1.7l2.3-0.5c0.3-0.2,0.5-0.3,0.9-0.7c0.3-0.3,0.5-0.3,0.5-0.3c1-0.2,2.3-0.2,3.3-0.5l1.9-0.7l2.1-1.9
			c0.3-0.5-0.2-1,0-1.4c0-0.9-1.2-0.3-1.4-0.9c-0.2-0.5-1-0.2-1.2-0.9c-0.2-0.9-1.4-1.2-1.6-2.1c0-0.3-0.7-1.2-0.7-1.2s0,0-0.2,0
			c-0.3-0.3-0.9-0.5-1.2-0.9c-0.3-0.3-0.7-0.7-1-1s-0.2-0.5,0.3-1c0.3-0.3,2.6-2.6-0.7-2.1c-1.2,0.2-1.4,0.2-1.6,0
			c0-0.9,1-0.7,1.4-1.4c0.2-0.5-0.2-0.9,0.2-1.4c0.2-0.2,0.3-0.2,0.3-0.2s2.3-0.2,1.4-1.2c-0.3,0-0.7,0-1,0l-0.2,0.2l-0.3,0.3
			c-0.5,0-0.5,0-1.9,0.5c-0.2,0.3,0.2,0.7,0.2,1.2c-0.5,0-1.4,0.2-1.9,0.2c-0.5,1-0.5,1-0.5,1.2c-0.5,0.2-0.9-0.3-1.2-0.3
			c-0.3,0-0.7,0.2-1,0.2c-4.3-0.2-2.4,2.1-1.4,3.3L121.7,349.8z"/>
		
			<linearGradient id="SVGID_9_" gradientUnits="userSpaceOnUse" x1="61.793" y1="109.2873" x2="70.59" y2="109.2873" gradientTransform="matrix(1.7367 0 0 -1.7367 0 549.2031)">
			<stop  offset="0" style="stop-color:#53C1E9"/>
			<stop  offset="0.1774" style="stop-color:#3FABDD"/>
		</linearGradient>
		<path fill="url(#SVGID_9_)" d="M109.4,367c0.5,1,1.4,1.4,1.4,1.4c0.5,0.2,3.6-0.3,3.6-0.3c0.2,0,0.2,0,3-3.1
			c1.2-0.7,2.4-1,3.6-1.7c0.3-0.3,0.9-0.5,1-1c0.2-0.3-0.2-1,0-1.6l0.7-1.2l-0.3-2.3l-1.2-1.7l-1.2-1.7l-0.9-3.1
			c-1.4-0.5-3.5-0.3-3.5-0.3c-0.9,0.2-1.4,1.4-2.1,1.9l-1,1.4c-0.3,0.5-0.5,0.7-1.6,0.9c-0.5,0-1.6,0.2-1.7,0.5
			c-0.2,0.3-0.3,0.7,0.2,2.1c0.2,0.7,0.2,0.7,0.2,2.3c0,0.3,0,0.9,0,1.2l-1,0.2l-0.9,3.1l0.5,1.7L109.4,367z"/>
		
			<linearGradient id="SVGID_10_" gradientUnits="userSpaceOnUse" x1="20.1341" y1="83.1212" x2="69.1301" y2="83.1212" gradientTransform="matrix(1.7367 0 0 -1.7367 0 549.2031)">
			<stop  offset="0" style="stop-color:#53C1E9"/>
			<stop  offset="1" style="stop-color:#1E8BCA"/>
		</linearGradient>
		<path fill="url(#SVGID_10_)" d="M120,488c-0.9-0.5-2.6,1.2-3.5,0.7c-1.6-1-4.3-0.7-4.7-3.3c-0.7-0.5-3-0.9-3.6-1.4
			c0-0.2,0.2-0.2,0.2-0.3c-0.5-0.7-1.6,1-2.3,0.3c-0.2,0-0.2-0.2-0.3-0.2c0,0,0.2-0.2,0.2-0.3c0.2,0,0.3,0,0.3,0
			c0-0.2,0-0.2-1.6-1.7c0,0,0.2-0.2,0.2-0.3c0.2,0,0.5,0,0.7,0c0-0.2-0.2-0.5-0.2-0.7c0.2,0,0.5-0.2,0.7-0.2c0,0-1.4-1.9-2.1-2.6
			l-0.2-0.2c0.2-0.2,0.3-0.3,0.7-0.5c-0.3-0.7-0.3-0.7,0-1.2c-1.7-2.4-1.7-2.4-0.9-2.8c0,0,0-0.2,0.2-0.2c0.5-3.3-4-5.2-2.4-8.9
			c1.2-0.5,2.4-0.9,2.6-2.6c0-0.5,0.5-1,0.5-1.6c0,0-0.3-2.8-0.3-3c-0.5-1.2-1.4-2.3-1.9-3.5c-0.3-0.9-0.3-0.9,0-1.4
			c0.3-0.7,1.4-3.3,1.2-4.7c-0.2-1-2.1-4-3-4.5c-1.2-0.7-2.3-1.6-3.6-1.9c-0.2,0-0.3,0-0.3-0.2c-1.4-0.2-2.6,0.7-4,0.5
			c-1.6-0.3-2.8-1.7-4.5-1.9c-0.2,0-0.5,0-0.7,0c-3.3,0-3.3,0-4.7-2.4l0,0c-0.3-0.5-0.3-0.5-0.5-1c-0.5-1-1.7-1.7-2.4-2.8
			c-1.9,0-3.8,0.7-5.7,0l-8.3-5.4c-3.3,2.6-3.3,2.6-5.9,1.2c-1,0.3-1,0.7-1.2,1.6c-0.9,0.5-1.7,0.9-2.6,3.6c0-0.2-0.2-0.3-0.2-0.5
			c-0.2,0-0.3,0-0.5,0c0,0.2-0.2,0.3-0.2,0.5c0,0.3,0,0.3,0,0.3c-1.9-0.5-1.9-0.5-4.7-8.2c-1-0.2-1.4-0.2-2.1,1
			c-1.6-1-1.6-3.5-1.6-4.9c-0.9-3.5-0.9-3.6-1.6-4.9C45,418,45,418,45,420.1c-0.2,0-0.3,0-0.5,0.2c-0.2,0-0.3-0.2-0.3-0.3
			c-0.3,1.7,0.7,3.3,0.9,4.9c-4,0.5-5.4-13-5.4-13.2c0.2,0,0.3,0.2,0.5,0.2c0.3-1.6,0.3-1.6,0.5-2.1c0.2,0,0.3-0.2,0.5-0.2
			c0.7,0.7,0.7,0.7,1.4,0.7c0-2.4,0.2-2.6,0.7-2.8c0.9,0.5,3.1,2.6,3.1,3s0.7,2.3,1.7,3.5c0.7-0.2,0.7-0.2-1.4-7.6
			c-0.7-2.4,0.9-4.7,1.2-6.9c0.3-2.6,1-5.2,1.2-7.8c0.2-0.9,0.2-0.9,3.1-6.4c0.2,0,0.3,0.2,0.5,0.2c0.2-4.9,0.2-5.4,4-8.2
			c0.2,1.2-1,2.1-1.2,3.1c0.2,0.2,0.2,0.3,0.3,0.5c0.5,0,5.7-4.9,5.7-5c0.9-1,0-2.8-0.2-2.8l-0.2,0.3c-0.2,0.3-0.3,0.9-0.5,1.2
			c-1-0.2-1.2-0.2-1.9-1c-0.2,0-0.3,0-0.5-0.2c-0.3,0.3-0.7,0.9-1,1.2c0.2-1.2,0.7-2.3,0.9-3.3c-0.3-0.5-0.3-0.5-0.2-1.6
			c-1.6,0-1.6,0-5,5c-1.4-3.6,3.3-4.5,3.8-7.3c1,0.5,1.6,1.6,2.4,2.3c0.2,0,0.3-0.2,0.5-0.2c0-0.5-0.3-1-0.5-1.7
			c0-0.2,0.2-0.2,0.2-0.2c0.7-0.3,0.7-0.3,4.7-4.2c0,0.2,0.2,0.3,0.2,0.5c0.2,0,0.3,0.2,0.5,0.2c-0.5,2.1-2.4,3.5-3,5.7
			c0,0.2,0,0.2,1,1.9c0.7-0.2,1-0.9,1.9-0.7c0.5,0.9,0.7,1.2,0.5,2.4c0.2,0,0.3,0,0.5-0.2c0.7-1.2,0.7-1.2,0.9-1.6
			c0.5,0,0.5,0,1.2,0.7c0.3,0.2,0.3,0.2,0.3,0.2l0,0l0,0l0,0l0,0l0,0l0,0l0,0c3.1-2.8,0.7-5.4-1.9-5.6c-0.2-0.3-0.2-0.3,0.9-8
			c-0.2-0.2-0.7-0.3-0.9-0.3c-0.2-0.2-0.3-0.3-0.3-0.5c0.2-0.5,0.3-1,0.3-1.6c-3-1.4-3-1.4-3.5-2.4c-0.9-2.1,0.3-4.7-0.3-6.8
			c0-0.2,0-0.3,0.3-1.4c0.3-1.2,0.3-1.7,0-1.6c-0.2,0.2-0.5,0.5-0.7,0.5c0,0-0.2,0.2-0.2,0.5c-0.2,0.3-0.2,0.9-0.3,1.2
			c-0.2,0.5-0.2,0.5-0.3,0.5c-0.2,0-0.2,0.2-0.3,0.5c-1,2.4-1,2.4-1.9,3c-0.5-0.2-0.9-0.7-1.2-0.9c0-0.5,0.2-1.2,0.2-1.4l0,0
			c0.2-0.5,0.2-0.9,0.3-1.4c0.2-0.5,0.5-0.9,0.7-1.4c0.2-0.2,0.2-0.5,0.2-0.7c0,0-0.2,0-0.2-0.2c-0.2-0.2-0.7-0.2-0.9-0.3
			s0-0.3,0-0.5c0,0-0.2-1.6-0.3-1.9v-0.2c-0.2-0.3-0.2-0.3-0.3-0.3l0,0l-0.2,0.2c-0.3,1-1,2.1-1.4,1.6c-0.2-0.3,0-0.9-0.5-0.9
			c-0.2,0-0.7,0.3-0.9,0.7c0,0-0.2,0.2-0.2,0.3c0,0.2-0.2,0.3-0.2,0.5c0,0.5,0,0.5-0.9,2.3c-0.2,0.5-0.3,0.7-0.5,0.9
			c-0.2,0.2-0.2,0.2-0.3,0.5c0,0,0,0.5,0.2,0.5h0.2l0,0l0,0l0,0l0,0l0,0l0,0l0,0l0,0c0.2,0,0.2,0,0.2,0c0.2,0.5-0.7,1.6-1.4,2.4
			c-0.3,0.9-0.3,1.7-0.7,2.6c0.7,1,0.3,3,0.3,3c-0.5,2.1-2.4,3.3-3.1,5.2c-0.7,2.3,0,4.7-0.9,6.8c-0.2,0.3-0.5,0.5-0.7,0.7
			c-1.6-0.7,0-6.3,0-6.4c0.2-0.3,0.3-0.9,0.3-1.2c-0.2,0-0.3-0.2-0.5-0.2c-1.2,0.2-1.2,0.2-1.7,0c-0.2-2.1-0.2-2.1-0.7-2.6
			c-0.2,0-0.3,0.2-0.5,0.2c0-1.2,0.5-2.3,0.7-3.3c-0.2,0.2-0.3,0.2-0.5,0.3v-0.2c0.2-0.5,0.2-0.7,0.5-1.6c2.1-5.7,8-14.4,9.4-15.8
			c-0.2,2.3-1.9,3.5-2.8,5.2c0.2,0,0.3,0,0.5,0c0,0.3,0,0.3-0.2,0.9c1.4-0.5,1.2-2.3,2.3-3.1c0.2,0.3,0,0.7,0.2,0.9
			c0.2,0,0.5,0.2,1-0.5c0.7-1.4-0.7-5.6,1-4.3c0.9-0.9,0.9-2.1,1.7-2.8h0.2l5-7.3l0.2-0.2c0,0,0.2-0.7-0.3-1
			c-0.2,0.2-0.7,0.3-1.4,1.2l-0.2,0.2c-0.3,0.5-4.2,5.7-4.3,5.9c0-0.2-0.2-0.5,1-2.3c0.3-0.3,1.7-2.6,1.9-3l0,0l0,0l0,0v-0.2
			c-0.2,0-0.2,0-2.8,3.3c0.3-0.7,0.3-0.7,4.3-6.3c-0.2,0-0.2,0.2-0.3,0.2c0.7-1,1.6-1.9,2.4-3c0.2-0.2,0.3-0.3,0.3-0.7
			c-4,4-5.2,6.3-5.4,6.3h0.2c-1.2,2.6-3.3,4.7-4.9,7.1c0.7-1.2,1.6-2.3,2.1-3.6c-0.2,0.2-0.5,0.7-2.1,2.8v-0.2
			c-0.2,0.2-0.2,0.2-2.3,3.3c-5.4,9.6-5.6,9.7-7.8,14.9l-1.7,4.2c-1.2,3.5-2.8,8.3-3.6,12c-2.3,10.9-2.3,11.1-2.8,17
			c-0.5,11.5-0.5,11.6,0,17.7c0.5,4,1.2,9.2,1.9,13.2l0,0c0.2,0.5,0.2,0.5,3.1,9.7c0.2,0.3,0.2,0.3,0.2,0.3c0.3,0.7,0.3,0.7,0.9,1.7
			c0.2,0,0.2,0,0.2,0c0.7,1,0.7,1,1.2,1.7c0.2,0,0.2,0,0.3,0c0.3,0.2,0.7,0.2,0.9,0c0.2,0.2,0.2,0.2,0.3,0.3c0.3,0,0.7,0,1,0
			c0.2,0,0.3-0.2,0.5-0.2c0.3,0.3,0.3,0.3,2.1,3.3c0.3-0.7,0.3-0.7,0-1.7c1.7,1,2.4,3.1,4,4.3c0-0.2,0.2-0.3,0.2-0.3s0,0,1,1.2
			c0.2,0,0.2,0,0.2,0l0,0l0,0l0,0l0,0l0,0l0,0l0,0c0.5,0.3,1,0.9,1.6,1.4c0-0.2,0-0.3,0-0.5c0.3,0,0.7-0.2,0.9-0.3
			c0-0.7,0-0.7-0.3-1.7l0,0c0-0.2,0-0.3,0-0.5c3.5,4.5,3.5,4.9,3.3,6.1c0.2,0,0,0.3,0.2,0.3c0.7,1.6,0.7,1.6,1,2.6
			c-0.5,0.9-0.7,1.2-0.3,2.3l3.5,5.9c2.1,2.3,5,3.5,7.1,5.7c1.4,1.4,3.5,3.6,7.6,5c0.9,0.3,1.4,0.5,2.3,1.4c0.5,0.3,0.5,0.3,5.7,7.1
			c1.2,1.6,5.7,5.9,5.7,5.9c6.8,6.4,4.7,2.8,14.1,8.7C117.7,489.8,120.7,488.4,120,488z M62.9,322.4c-0.2,0.2-0.2,0.2-0.3,0.3
			C62.5,322.5,62.7,322.5,62.9,322.4z"/>
		
			<radialGradient id="SVGID_11_" cx="105.6026" cy="142.5135" r="0" gradientTransform="matrix(1.7367 0 0 -1.7367 0 549.2031)" gradientUnits="userSpaceOnUse">
			<stop  offset="0" style="stop-color:#53C1E9"/>
			<stop  offset="1" style="stop-color:#004A9F"/>
		</radialGradient>
		<path fill="url(#SVGID_11_)" d="M183.4,301.7L183.4,301.7L183.4,301.7z"/>
		
			<radialGradient id="SVGID_12_" cx="108.0785" cy="141.3043" r="0" gradientTransform="matrix(1.7367 0 0 -1.7367 0 549.2031)" gradientUnits="userSpaceOnUse">
			<stop  offset="0" style="stop-color:#53C1E9"/>
			<stop  offset="1" style="stop-color:#004A9F"/>
		</radialGradient>
		<path fill="url(#SVGID_12_)" d="M187.7,303.8L187.7,303.8L187.7,303.8L187.7,303.8L187.7,303.8L187.7,303.8L187.7,303.8
			L187.7,303.8L187.7,303.8L187.7,303.8L187.7,303.8L187.7,303.8z"/>
		
			<radialGradient id="SVGID_13_" cx="59.0571" cy="143.075" r="0.1527" gradientTransform="matrix(1.7367 0 0 -1.7367 0 549.2031)" gradientUnits="userSpaceOnUse">
			<stop  offset="0" style="stop-color:#53C1E9"/>
			<stop  offset="1" style="stop-color:#004A9F"/>
		</radialGradient>
		<path fill="url(#SVGID_13_)" d="M102.8,300.5L102.8,300.5c-0.2,0-0.2,0.2-0.3,0.2s-0.2,0.2-0.2,0.3
			C102.5,300.8,102.6,300.7,102.8,300.5L102.8,300.5z"/>
		
			<radialGradient id="SVGID_14_" cx="108.7835" cy="140.951" r="0.5245" gradientTransform="matrix(1.7367 0 0 -1.7367 0 549.2031)" gradientUnits="userSpaceOnUse">
			<stop  offset="0" style="stop-color:#53C1E9"/>
			<stop  offset="1" style="stop-color:#004A9F"/>
		</radialGradient>
		<path fill="url(#SVGID_14_)" d="M187.7,303.8l0.5,0.3c0.5,0.3,1,0.5,1.7,0.9C189.3,304.7,189.1,304.5,187.7,303.8z"/>
		
			<radialGradient id="SVGID_15_" cx="133.6105" cy="56.4229" r="0.1598" gradientTransform="matrix(1.7367 0 0 -1.7367 0 549.2031)" gradientUnits="userSpaceOnUse">
			<stop  offset="0" style="stop-color:#53C1E9"/>
			<stop  offset="1" style="stop-color:#004A9F"/>
		</radialGradient>
		<path fill="url(#SVGID_15_)" d="M232.2,450.9l-0.3,0.7C232,451.2,232.2,451.1,232.2,450.9z"/>
		
			<radialGradient id="SVGID_16_" cx="50.705" cy="140.4915" r="0.2629" gradientTransform="matrix(1.7367 0 0 -1.7367 0 549.2031)" gradientUnits="userSpaceOnUse">
			<stop  offset="0" style="stop-color:#53C1E9"/>
			<stop  offset="1" style="stop-color:#004A9F"/>
		</radialGradient>
		<path fill="url(#SVGID_16_)" d="M87.5,305.5c0.3-0.2,0.7-0.5,1-0.7C87.9,305.3,87.5,305.3,87.5,305.5z"/>
		
			<linearGradient id="SVGID_17_" gradientUnits="userSpaceOnUse" x1="54.764" y1="124.3002" x2="51.212" y2="143.9305" gradientTransform="matrix(1.7367 0 0 -1.7367 0 549.2031)">
			<stop  offset="0" style="stop-color:#53C1E9"/>
			<stop  offset="0.957" style="stop-color:#2792CE"/>
		</linearGradient>
		<path fill="url(#SVGID_17_)" d="M105.2,298.9c-1.4,0.5-1.4,0.5-1.9,0.9c0,0,0,0,0.3-0.2s0.5-0.2,0.5-0.2s0,0.2-0.5,0.3l0,0
			c-0.3,0.3-0.3,0.3-0.7,0.5s-0.5,0.2-0.7,0.3c-0.2,0.2-0.3,0.2-0.5,0.3l-0.2,0.2l0,0c0,0-0.2,0-0.2,0.2c0.2-0.2,0.3-0.3,0.5-0.5
			l0,0l0,0l0,0l0,0l0,0l0,0l0,0l0,0h-0.2c0,0,0,0,1.2-0.9h-0.2c-0.2,0-0.2,0-2.6,1.6c0-0.2,0-0.2,0.7-0.7l-0.2-0.2
			c-3.3,1-4.3,1.9-4.9,2.3c-2.4,1.4-5.2,2.1-7.1,4c0.2,0,0.3,0,0.5,0c-0.2,0.2-0.5,0.3-0.7,0.5c0.2,0,0.3-0.2,0.3-0.2
			c-2.4,2.1-5.4,3.1-7.8,5.2c0,0,0,0.2,0.2,0.2l-0.2,0.2c0,0,0.2,0,0.2,0.2c0.2,0,0.3-0.2,0.3-0.2c-0.5,0.7-0.9,0.7-1.2,0.5
			c-1.2,0.7-2.3,3.1-2.3,3.1c0.2,0.2,0.2,0.2,0.7,0l0,0l0,0l0,0l0,0l0,0l0,0l0,0l0,0l0,0l0,0l0,0l0,0l0,0l0,0l0,0l0,0
			c0.3-0.2,0.7-0.3,0.9-0.5c0,0,0.2,0,0.2,0.2c0.2,0,0.3-0.2,0.3-0.2c-0.2,0.3-0.3,0.5-0.7,0.9c0.3-0.2,0.5-0.5,0.9-0.7
			c0.2,0,0.3,0.2,0.3,0.2c0,0.3-0.7,1.9-2.6,4.3c-0.5,0.7-1,1.7-1.7,3.8c0.5,0,0.5,0,0.7,0c0,0.2,0,0.3-0.5,0.7c0,0-2.3,1.6-1.9,2.8
			h0.2c0.5-0.7,0.7-0.7,1.2-0.7l0.2,0.2c-3.5,3.6-3.5,3.6-3.8,5c-1.6,5.2-1.7,8-0.2,8.3c0.2,0,0.3-0.2,0.3-0.2
			c0.3,0.3,0.2,0.7,0.5,0.9c1.2,0,1,1.4,1.7,1.9c0.2-0.3,0.3-0.5,0.7-1.6c0-0.2,0-0.3,0.2-0.5c0.2-0.7,1-0.7,1.4-1.2
			c0.2-0.7-0.5-1.2-0.2-1.7l2.6-4.2c1-1.4,1-1.4,1-1.4c1.6-1,3.6-1.2,4.7-2.8c0.9-1.2,0.9-1.2,4.9-3.3c0.7-0.2,0.7-0.2,1.7-1.2
			c0.9-0.7,0.9-0.7,1-0.9l0.5-0.3c0.3-0.2,0.3-0.2,0.5-0.5c-0.3-0.2-0.5-0.3-0.9-0.5c0-0.2,0-0.2,0-0.3c0.2-0.2,0.3-0.3,0.3-0.3
			l0.2,0.2c1.4,1,1.7-0.5,2.3-1.9c-0.2,0-0.3-0.2-0.5-0.2c0-0.2,0-0.2,1.2-1.9c-0.2-0.2-0.3-0.5-0.3-0.7c3.1-1.2,3.8-2.4,4-3.1
			c-0.2-0.2-0.3-0.2-0.5-0.3c0.5-0.3,1.2-0.2,1.7-0.5c0,0,0.3-0.3-0.2-0.9c-0.7,0.2-0.7-0.2-0.7-0.5c0.5-0.3,0.5-0.3,2.3-1.9
			c0,0-0.2,0-0.3,0c0.2-0.3,0.3-0.3,0.7-0.9c-0.2,0-0.5-0.2-0.7-0.2l-0.2-0.2l3.6-3.6c-0.2,0-0.3,0-0.5,0c0.3-0.9,1.4-1.2,1.9-1.9
			l-0.2-0.2c1.6-1.4,3.6-1.9,5.2-3.3c0.2-0.2,0.2-0.3,0.3-0.3c-0.3-0.3-0.5-0.9-3.1,0.9c0-0.2,0-0.3,0-0.5c-0.2,0.2-0.3,0.3-0.7,0.5
			l0,0l0,0l0,0l0,0l0,0l0,0l0,0l0,0l0,0l0,0l0,0l0,0c-1,0.7-1.9,1.6-3,2.1c0-0.2,0-0.5,2.3-1.9c0.7-0.5,0.9-0.5,1.4-1l-0.2-0.2
			c-0.5,0.3-1,0.7-1.6,0.9c0,0-0.2,0-0.2,0.2c0-0.2,0.3-0.3,0.5-0.5c-0.3,0-0.5,0-0.5,0.2c-0.2,0-0.3,0-0.3,0c-0.2,0-0.3,0-2.3,0.9
			c0.3-0.7,3.1-1.2,3.3-1.2c0.2,0,0.2,0,0.2,0l0,0l0,0l0,0l0,0l0,0l0,0l0,0c0.2,0,0.9-0.2,2.3-1l0.3-0.2l0.2-0.2
			c0-0.2,0.2-0.3,0.2-0.5c0.2-0.2,0.5-0.3,0.7-0.3h0.3c0.3-0.2,0.5-0.2,0.9-0.3c-0.2-0.2-0.2-0.2-0.7,0c0.5-0.3,1-0.3,1.6-0.7l0,0
			c-0.7,0.2-1.2,0.3-1.9,0.5l-0.2-0.2c-0.5,0.2-1.7,0.5-1.7,0.5c-0.2,0-0.2,0-0.2,0l0.2-0.2l0,0l0,0l0,0l0,0l0,0l0,0l0,0l0,0
			c-0.5,0.2-1,0.5-1.6,0.7c0.2-0.2,0.2-0.2,0.7-0.5c-0.3,0.2-0.7,0.2-1,0.3C107,298.2,106.1,298.7,105.2,298.9
			c0.9-0.3,1.7-0.7,2.6-1.2h-0.2c-0.3,0.2-1.7,0.7-2.1,0.9C105.2,298.9,105.2,298.9,105.2,298.9z"/>
		
			<radialGradient id="SVGID_18_" cx="64.998" cy="145.4483" r="0.3983" gradientTransform="matrix(1.7367 0 0 -1.7367 0 549.2031)" gradientUnits="userSpaceOnUse">
			<stop  offset="0" style="stop-color:#53C1E9"/>
			<stop  offset="1" style="stop-color:#004A9F"/>
		</radialGradient>
		<path fill="url(#SVGID_18_)" d="M112,296.8L112,296.8L112,296.8c0.5,0,0.5,0,0.9-0.2c0.3-0.2,0.3-0.2,0.5-0.2l0,0l0.3-0.2l0,0l0,0
			h-0.2c-0.2,0-0.5,0.2-0.7,0.2l0.2-0.2c0,0,0,0-0.2,0.2c0,0,0.2,0,0.2-0.2l0,0l0,0l-0.3,0.2h-0.2c-0.2,0-0.2,0-0.2,0l0,0l0,0
			C112.2,296.7,112.2,296.7,112,296.8L112,296.8L112,296.8L112,296.8z"/>
		
			<radialGradient id="SVGID_19_" cx="105.9495" cy="133.4689" r="0.6006" gradientTransform="matrix(1.7367 0 0 -1.7367 0 549.2031)" gradientUnits="userSpaceOnUse">
			<stop  offset="0" style="stop-color:#53C1E9"/>
			<stop  offset="1" style="stop-color:#004A9F"/>
		</radialGradient>
		<path fill="url(#SVGID_19_)" d="M183,316.5c-0.2,0-0.2,0.2-0.2,0.3c0,0,0-0.2-0.2-0.2c0.5,1,1,1.6,1,1.6s0.9,0.3,1,0
			c0-0.2-0.2-0.3-0.2-0.5C184.6,317.2,183.6,316.5,183,316.5z"/>
		
			<linearGradient id="SVGID_20_" gradientUnits="userSpaceOnUse" x1="100.615" y1="138.7648" x2="108.371" y2="138.7648" gradientTransform="matrix(1.7367 0 0 -1.7367 0 549.2031)">
			<stop  offset="0" style="stop-color:#1786C6"/>
			<stop  offset="0.5054" style="stop-color:#0071B9"/>
		</linearGradient>
		<path fill="url(#SVGID_20_)" d="M176.1,301.9v0.7c-1.4,0.2-1.4,0.2-1.6,0.2c0.2,0.7,0.9,1.4,1,2.1c-0.2,0.2-0.3,0.3-0.5,0.3
			c0.3,0.7,1.2,0.5,1.4,1.2c0.2,0.3,0.5,1.2,0.5,1.2c0.2,0.2,0.3,0.3,0.9,0.7c0.9,0.7,0.9,0.7,1.2,1.6c-0.2,0.2-0.3,0-0.7,0.2l0,0
			c0.3,0.5,1,0.7,1.6,1c0,0,0,0,0,0.2h-0.2c-0.3,1.2,0.5,1.7,1,1.9l1.2,0.7c0.5,0.3,1.2,0.3,1.7,0.5c0.7,0.3,1.4,0.9,2.3,1.2
			c0,0,1.2,0.3,1.9,0.2c0,0,0,0,0-0.2c-0.2-0.2-0.2-0.2-0.9-0.7c-3.1-2.3-5-4.5-5-4.5c0-0.2-0.2-0.2-0.2-0.3c-0.3-0.5-0.3-0.7-0.2-1
			c0,0,0,0,0-0.2c-0.3-0.7-1-0.9-1.6-1.6c0,0,0-0.2,0-0.3c0-0.5,0-0.5-0.9-1.7c0.3-0.2,0.9,0.2,1.2,0l-1.7-1.6
			c-0.2-0.2-0.2-0.2-0.2-0.2c0.3,0,0.5,0.2,0.9,0c-0.2-0.2-0.3-0.2-0.5-0.3c0-0.2,0.2-0.2,0.2-0.3c-0.2-0.3-0.5-0.5-0.7-0.9
			c-0.2-0.2-2.1-1.2-2.8-1.4c-0.2,0.2-0.5,0-0.7,0C175.6,301.4,175.9,301.5,176.1,301.9z"/>
		
			<radialGradient id="SVGID_21_" cx="74.8384" cy="118.6597" r="0.2022" gradientTransform="matrix(1.7367 0 0 -1.7367 0 549.2031)" gradientUnits="userSpaceOnUse">
			<stop  offset="0" style="stop-color:#53C1E9"/>
			<stop  offset="1" style="stop-color:#004A9F"/>
		</radialGradient>
		<path fill="url(#SVGID_21_)" d="M129.9,343c-0.2,0-0.3,0.2-0.5,0.2c0.3,0,0.7,0,1,0C130.2,343,130.1,343,129.9,343z"/>
		
			<linearGradient id="SVGID_22_" gradientUnits="userSpaceOnUse" x1="69.926" y1="104.8558" x2="140.7208" y2="104.8558" gradientTransform="matrix(1.7367 0 0 -1.7367 0 549.2031)">
			<stop  offset="0" style="stop-color:#53C1E9"/>
			<stop  offset="0.9247" style="stop-color:#004A9F"/>
		</linearGradient>
		<path fill="url(#SVGID_22_)" d="M244.3,388.7c-1.4-11.5-1.4-11.5-3-17.2c-3.3-10.8-3.3-10.8-5.6-16c-1.6-3.3-3.8-7.8-5.6-10.9
			l-2.3-3.8c-6.3-9-6.3-9-10.1-13.2c-7.5-7.6-7.5-7.8-12-11.5c-8.5-6.4-8.7-6.6-13.5-9.6l-5.7-3.1c-1.6-0.9-2.6-1.4-4.9-2.3l0,0l0,0
			l0,0c1.4,0.7,1.9,0.9,2.3,1c1.2,0.7,2.6,1.4,3.8,2.1c-0.9-0.5-0.9-0.5-1-0.5c-0.2-0.2-0.5-0.2-0.7-0.3l0,0l0,0l0,0l0,0l0,0l0,0
			c-0.3-0.2-0.5-0.2-0.9-0.3c0.5,0.3,0.5,0.3,2.4,1.6c0.5,0.3,0.5,0.3,3.6,2.3c1.7,1.2,1.7,1.2,1.9,1.7c-0.2,0-0.3,0-0.5,0v0.2
			c1.7,1.9,4.5,2.4,6.1,4.5c-0.7,0-3.1-1.7-3.5-1.9c-0.7-0.5-0.7-0.5-1-0.5v0.2c0,0,0,0,1.6,1.6c-1.6-0.9-2.4-2.8-4.5-3.1
			c1,1,2.4,1.4,3.1,2.8v0.2c0.3,0.3,0.7,0.9,1,1.2l1.2,0.9c3.3,3.8,4,4.5,4.7,4.3l0.2,0.2v-0.2c0,0,1,0.2,1.4,1
			c-0.3,0-0.3,0-0.7-0.2c-0.2,0-0.2,0-0.2,0v0.3c0.9,1,2.1,1.6,2.8,2.6c-0.2,0-0.3,0-0.5,0c0.2,0.2,0.3,0.5,0.5,0.7
			c0.2,0.3,0.5,0.7,0.9,1l-0.2,0.2c0,0.3,0,0.3,0.2,0.9c-0.2,0-0.3,0-0.5,0s-0.5-0.2-0.7,0c0,0-0.2,0-0.2-0.2
			c3.1,4.3,5.2,5.2,7.8,9.7c-2.4-4.5-4.7-5.4-8-9.9c-0.3,0-1.2-0.5-0.9-1c0.5,0,0.9,0.7,1.6,0.2c0-0.3-0.3-0.7-0.5-1
			c-0.2-0.5-0.3-1.4-3-3.8l-1-1c-0.7-0.5-1.2-1.4-1.9-1.9c-0.9-0.7-1.7-1.7-2.6-2.4c-0.7-0.5-1-1.2-1.7-1.9l-1.4-1.2
			c-1.4-0.7-2.4-2.1-4.2-2.4h-0.2v0.2l0,0c2.4,2.6,2.4,2.6,3.1,3c0,0.2,0,0.3,0,0.3c0.5,0.5,0.5,0.5,0.9,1c-0.2,0-0.2,0.2-0.3,0.2
			c0,0,2.8,4.3,6.4,5.6c0.3,0.2,1.2,0.3,1.2,1.6l0,0l0,0l0,0l0,0l0,0l0,0l0,0l0,0c-0.5-0.3-1-0.7-1.6-1l0,0l0,0l0,0l0,0l0,0l0,0l0,0
			l0,0l0,0l0,0l0,0l0,0l0,0l0,0l0,0l0,0c-0.2-0.2-0.2-0.2-1.6-0.7c-0.3-0.2-0.3-0.2-0.3-0.2c-2.6-1-5.2-2.4-7.8-3.6l0,0l0,0l0,0l0,0
			l0,0l0,0l0,0l0,0c1.2,1.7,3.5,2.4,5,3.8c-0.3,0-0.3,0-2.8-1.6c0.2,0.3,0.3,0.7,0.5,0.9c0,0.2-0.2,0.3-0.2,0.3c-0.2,0-0.2,0-0.2,0
			c-0.3-0.2-0.3-0.2-1.6-1c-0.2,0.7-0.2,1.2-0.2,1.9c-0.2,0.2-0.2,0.2-0.2,0.2c-0.9-0.5-1.2-1.7-2.6-1.4c-0.9,1.2-0.9,1.2-1,1.4
			c-0.2,0.3-0.5,0.7-0.7,1.2c0.3,0.7,0.3,0.7,0,1.2c0.2,0.5,0.2,0.5,0.9,1.4c-2.8-0.2-3-1.2-3.1-2.1c0.3,0,0.7-0.2,1-0.2
			c0-0.2,0-0.3,0-0.3c-2.3-2.1-3-1.9-4.2-1.7c0,0.2,0.2,0.5,0.3,0.7c0,0.2,0,0.3,0,0.3c0.2,0.2,0.2,0.2,0.3,0.3
			c-0.2,0.7-0.2,0.7,1.4,2.1c0.9,0.5,0.9,0.7,1,1c-2.6,1.2-2.6,1.2-2.6,1.6c-0.5,1.2,1,1.7,1,2.8c-0.7,0.2-0.7,0.2-2.3-0.7l-1-0.5
			c-0.5-0.2-0.7-0.2-1.2-0.3c-0.3,0-0.3,0-0.3,0c-0.2,0.7,0.2,1.2,0.2,1.7c-0.5-0.2-0.5-0.2-1.7-1.2c-1-0.5-0.7-0.9-0.5-1.4
			c-0.2-0.3-0.2-0.3-3.6-2.4c0,0,0.2-0.2,0.3-0.3c1.4,0.3,2.3,1.9,3.8,1.2c2.6,1,2.6,1,3.6,1.2c0.3-0.3,0.5-0.7,0.7-1
			c0.5-1,0.5-1,0-2.3c-0.5-1-0.5-1-5.6-3.3c-1.7-0.9-6.3-2.4-6.3-2.4c-1-0.3-2.1,0.5-3.1,0.5c-0.2-0.5-0.2-0.5,0.2-1.2
			c0.3,0,0.7-0.2,0.9-0.2c0-0.2,0-0.3,0.2-0.3c-0.7-0.3-4.9-1.7-5.6-1.4c-0.2,0-0.2,0-0.2,0l0,0l0,0l0,0l0,0l0,0l0,0l0,0
			c-2.3-0.5-2.3-0.5-4.3,1.4c-0.3,0.5-0.3,0.5-0.3,0.5l0,0l0,0l0,0l0,0l0,0l0,0l0,0l0,0l0,0l0,0l0,0l0,0l0,0l0,0l0,0
			c-0.9,0.3-3.1,1.6-3.1,1.6l0,0l0,0l0,0l0,0l0,0l0,0l0,0l0,0l0,0l0,0l0,0l0,0l0,0l0,0c-1.4,0.7-2.3,1.9-3.6,2.3l0,0l0,0l0,0l0,0
			l0,0l0,0l0,0l0,0c-0.2,0.5,0.2,1.2,0,1.7l0,0l0,0l0,0l0,0l0,0l0,0l0,0l0,0c-1.6,0.2-1.6,0.2-1.7,0.9c-0.2,0.2-0.2,0.5-0.2,0.7
			c0.2,0,0.3,0,0.3,0.2c0.3,0,0.5,0,0.7,0c0.9,0,1.2-1.2,2.3-1.2c0.2,0.5,0.2,0.5,0.5,1c-0.5,0.7-1.6,0.7-2.3,1
			c-0.9,3.1-2.1,4-2.6,4.3c0,0.9,0.7,1.9,0.2,2.8c-3,0.5-4.5,2.6-4.3,3.5c-0.5,0.5-1.4,0.3-1.9,0.7c0,0.9-0.5,1.9-0.3,2.8l1,4
			c0.2,0.2,0.3,0.3,0.5,0.9c0.2,0.3,1.9,1.9,1.9,1.9c0.3,0.2,1.9,0.7,2.8,0c0.2-0.2,0.2-0.2,0.3-0.3c0.7-1.9,1.7-2.1,2.6-2.4
			c1.2-0.2,1.2,1.2,1.9,1.7c-0.2,0.3-0.2,0.3-0.2,0.5c0,0,0.2,0.2,0.5,1c0.2,0.2,0.2,0.5,0.3,0.9c1.4,1.6,1.4,1.6,1.6,2.1
			c0.2,0.7,0.2,0.7,2.1,1.4l0,0c0.2-0.2,0.3-0.7,0.3-0.9c0-0.5,0-0.5,1.2-0.9c2.1-0.5,2.3-0.7,2.3-0.7s0.3-1.2,0-2.1
			c0-0.2,0-0.5-0.2-0.7c-0.2-0.3-0.9-0.3-0.9-1c-0.2-0.9,0.2-0.9,0.7-0.9c0.7,0,0.7,0,0.9-0.3c0.2-0.5,0.5-0.9,0.7-1.4
			c-4.3,0.2-8.9,0.5-13.5,0.9c4.7-0.3,9.2-0.5,13.5-0.9c0.7-0.9,0.7-0.9,0.7-1.2c-0.9-0.9-0.9-0.9-3.1-1.4c0-0.3-0.2-0.5-0.2-0.9
			c-0.2-0.3-0.5-0.7-0.7-1.2c0.2-0.3,0.7-0.5,0.9-1c0-0.2-0.2-0.2-0.2-0.3c0.2-0.2,0.3-0.2,0.3-0.3l0.2-0.7l0.2-0.5
			c0-0.2,0-0.3,0-0.3c0.2,0,0.3,0,0.3,0c0.5-0.7,0.5-0.7,0.9-0.7c0-0.9,0.2-1,0.9-1.2c0.5-1.2,0.5-1.2,0.2-3.1
			c2.1-1.7,4.2-1,3.8,0.7c-0.3,1.9-2.3,2.4-3.1,4c0,0,1,4,1.2,5.4c0.2,0,0.5,0.2,0.7,0.2c0.2,0.2,0.5,0.5,1.6,0.9c0.2,0,0.2,0,0.2,0
			l0,0l0,0l0,0l0,0l0,0l0,0l0,0c0.7,0,1.6,0.3,2.1,0.7c2.1,0.3,5.2-2.8,6.3-0.2c-0.5,0.5-1,0.9-1.7,1c-1,0-2.1,0-3.3,0.2
			c-0.9,0-1.6,0-2.4,0.2c-0.5,0.2-1.2,0.3-1.7,0.7c-0.2,2.6,4.3,1.4,3.8,3.8c-2.1-1.2-2.1-1.2-2.8-1.4c-0.2,0.9-0.2,0.9-1.7,1.4
			c0.2,0.3,0.2,0.9,0.2,1.2l0.3,0.7c0,0.9,0.2,1.6,0.2,2.4c0,0,0,0-1.6,0.5c0,0.2,0,0.5-0.2,0.7c-0.2,0-0.3,0.2-0.5,0.2
			c-0.7-0.3-1.2-0.9-2.1-1c-1,0.9-2.3,1.2-3.3,2.1c-2.8-0.3-4.3-3.5-7.3-3.1c-0.2,0-0.2,0-0.2,0c-2.6-0.5-2.6-0.5-3.1,0.3
			c0.2,0.2,0.3,0.3,0.5,0.5c-0.2,0.3-0.5,0.9-0.7,1l0.2,0.2v0.2c0.2,0.3,0.3,0.7,0.3,1c-0.9,0.5-0.9,0.5-2.6,0c-1,0-1.4,0-2.8,0.7
			c0,0.3,0,0.3,0.3,2.8c-0.9,1-1.2,2.3-2.1,3.1c-0.5,0-1,0-1.4,0.2c-0.2,0.3-0.3,0.7-0.5,0.9c0.3,0.2,0.7,0.5,0.9,0.7
			c-1.9,1.4-1.9,1.4-2.6,1.6c0,0.2-0.2,0.3-0.2,0.5c-0.2,0-0.3,0.2-0.5,0.2c-0.3-0.3-0.9-0.7-1.4-0.9c-1.6-0.3-1.6,0.5-1.4,1.7
			c-1.6,0-1.6,0-2.1,0.7c-1.2-0.3-1.2-0.3-1.7,0.2c0,0.3,0,0.3,1.4,2.1c0.3,0,0.7,0,1-0.2c3.1,2.3,3.1,2.3,3.8,6.1
			c-0.5,0.5-0.9,1.2-1.4,1.7c-0.2,0-0.3,0-0.5-0.2c0,0-7.3-2.3-9.6,1c1,3.1,0.3,6.4,0.9,9.6c0.2,0.3,0.5,0.7,0.9,0.9
			c1,0.3,1.6-1,2.6-0.9c1,0.3,1.2,1.4,1.7,1.9c0.3,0,0.3,0,0.3,0l0,0l0,0l0,0l0,0l0,0l0,0l0,0c1-0.2,1.9-0.7,2.8-1
			c0.2,0,0.2,0,0.2,0l0,0l0,0l0,0l0,0l0,0l0,0l0,0c3.3-0.2,4.7-3.1,4.7-3.1c-0.3-3.3-0.3-3.3,0.2-4.2c0.2,0,0.3,0,0.5,0
			c0.2,0.2,0.2,0.2,0.2,0.2l0,0l0,0l0,0l0,0l0,0l0,0l0,0c0.5-0.2,0.5-0.2,1.4-1c1.2-0.9,2.3-2.1,2.3-2.1l0.2-0.3
			c0.2-0.7,0-1.6,0.2-2.4c4.9,0.3,4.9,0.3,5.4,0c0.3-0.2,0.3-0.2,0.3-0.2l0,0l0,0l0,0l0,0l0,0l0,0l0,0l0,0c0.2-0.2,0.2-0.3,0.3-0.3
			c0-0.2,0-0.3,0-0.5c0.2-0.2,0.3-0.2,0.5-0.3l0,0c0-0.2,0.2-0.3,0.2-0.5c0.2,0,0.5-0.2,0.7-0.2c2.6,1.7,2.6,1.7,2.6,2.1
			c0.5,0.3,0.5,0.3,0.9,1.4c0.3,0.2,0.7,0.2,1,0c0.3,0.3,0.7,0.7,1,1l1,0.7l0.7,0.3l0.7,0.2l0.5,0.3l0.7,0.2
			c2.4,0.9,2.4,0.9,3.3,2.4c-0.3,0.3-0.9,0.7-1.4,0.9c-1.6,0.3-3.1,0.2-4.7,0.9c0,0.2,0,0.3,0,0.5c2.3,1,2.3,1,2.6,0.9
			c1,0.9,1.7,0.9,2.3,0.9c0.2-0.2,0.3-0.5,0.3-0.9c0-0.2,0-0.5,0-0.7c2.4-2.4,2.4-2.4,2.1-4H161v-0.2l0.2-0.2c0.9,0.2,1.7,1,2.8,0.9
			v-0.2l-0.2-0.3l-0.3-0.5V376v-0.5l-0.2-0.2l-0.2-0.2l-0.3,0.2c-1.2-0.5-2.8-1.2-2.8-1.2l-1.4-0.3c-0.3-0.2-0.7-0.3-1-0.5
			c-0.2-0.7-0.2-1-1.9-2.3c0-0.2,0-0.3,0-0.7c-1.2,0-1.2,0-1.6-0.2c0-0.7,0-0.7,0.5-1.6c0.3,0,0.7,0,1,0.2c0.3,0,0.3,0,0.3,0
			c1.4,1.6,3.6,2.3,5.2,3.8c1.9,0.5,1.9,0.5,3.8,3.6c0.2,0.5,0.2,0.7,0.2,0.9c0.5,0.9,0.5,0.9,1.2,1.2c0.2-0.2,0.3-0.2,0.3-0.3
			c1,1.2,1.4,2.8,2.3,4.2c0.9-0.3,1.7-1,2.8-1.2c0-0.2,0.2-0.3,0.2-0.5c1.6-0.7,1.6-0.7,1.7-0.9c-0.2-0.3-0.7-0.7-1-0.9
			c0-0.2,0-0.3,0-0.5c-0.3-0.3-0.9-0.7-1.2-1c0.2-0.2,0.3-0.2,0.5-0.3c0.3,0.2,0.9,0.3,1.2,0.5c1.4-1.2,3.8-3.5,4-0.3
			c0,0.3,0,0.7,0.2,1c-1,0.2-1.4,0.2-1.9,1.7c1.4,1.9,4,1.9,5.7,3.1c0.7-0.3,1.2-1,1.9-1.4c1.4,0.7,1.4,0.9,1.7,1.6
			c-0.2,0.3-0.7,0.7-0.9,1c0,0.2,0,0.3,0,0.5c1.7,0.9,1.9,0.5,2.6-0.7c-0.3-0.5-0.7-0.7-1-1.2c1.6-2.3,2.4-1.4,3.1-1
			c-0.5,8-1.9,8.3-3.8,8.7c0,0.2-0.2,0.3-0.2,0.5c0,0,5.6,7.3,6.6,9c0,0.2-0.2,0.3-0.2,0.5c0.7,1.9,2.6,3.1,2.8,5.4
			c0.2,0.2,0.2,0.2,1.4,1.4c-0.2,1.9-0.2,2.3,1.2,2.6c0.2,0.3,0.3,0.9,0.5,1.2c0.2,0.2,0.2,0.3,0.3,0.5c0.2,0.3,0.2,0.9,0,1.2
			c-0.7,2.1,1.2,2.6,3.6,3.3l0,0c1.4-0.3,2.4-1,3.6-1.6l0,0l0,0l0,0l0,0l0,0l0,0l0,0l0,0l0,0c0.3-0.2,0.7-0.3,1-0.5
			c0.2,0,0.2,0,0.2,0l0,0l0,0l0,0l0,0l0,0l0,0l0,0c3.8-0.9,9.2-13,9.2-13.2c-0.7-0.2-0.7-0.2-2.6-1.7c-0.3,0.2-0.5,0.5-0.9,0.7
			c-0.7,0-0.7,0-1.6,0.7c-1.2-0.2-1.2-0.2-2.8-3c-1.7-0.5-3.3-4.7-3.3-4.9c0.5-0.2,1.2-0.2,1.7-0.3c0.3,0.3,0.7,1.2,0.9,1.7
			s0.7,1,0.9,1.6l0.5,0.3l0.7,0.5c0,0,8,4,8.2,3.8l5.7,1c1.4,0.7,0.7,2.4,1.9,3.3c0,0.3,0,0.9-0.2,1.2c0-0.2,0.2,0.2,0.2,0.3
			c0.3,0.3,0.3,1,0.9,1.2c0.5-0.2,0.5-0.2,1-1c0.7,1.4,0.5,7.8,0.5,8.2c-0.3,1.6-0.2,3-0.3,4.5c0.3,1.6-0.3,3.3,0.9,4.7
			c1.2-0.5,1.4-0.9,1.6-1.4c0.2-0.5,0.3-0.7,0.3-1l0.5-0.7c0-0.3,0.2-0.7,0.2-1l0.2-0.3c0.3-0.7,0.3-0.7,0.5-2.4
			c0.7-1.9,0.7-1.9,1-2.4l0.5-0.5c0.2-0.2,0.5-0.5,0.9-0.7c0-0.2,0-0.3,0-0.5c1.4-2.1,1.4-2.1,3.3-5.2c0.2,0,0.3,0,0.5-0.2
			c0.2,0.3,0.2,0.9,0.2,1.2c0.3-0.2,0.7-0.2,1-0.3c0.2,0.2,0.2,0.2,0,7.6c0.7-0.3,0.7-0.3,1-1.7c0.2,0.5,0.2,0.5-1.4,8.9
			c-1,4.2-1,4.2-1.9,9.4c0.2,0.5,0.3,0.7,0.3,0.9c0.9-2.4,0.9-2.4,1.2-4l-0.2-0.3c-0.2-1.7,0.3-3.3,1.9-8.5c0.5,1-0.3,4.5-0.3,4.5
			l0,0C239.7,425.9,245.6,407.1,244.3,388.7z"/>
		
			<linearGradient id="SVGID_23_" gradientUnits="userSpaceOnUse" x1="106.196" y1="53.1942" x2="117.0292" y2="53.1942" gradientTransform="matrix(1.7367 0 0 -1.7367 0 549.2031)">
			<stop  offset="0.8226" style="stop-color:#005EAC"/>
			<stop  offset="1" style="stop-color:#004A9F"/>
		</linearGradient>
		<path fill="url(#SVGID_23_)" d="M202,443.6c-0.2,0-0.2,0.2-0.3,0.2c-0.7,0.7-1,1-2.6,3.1c-4.2,5.7-4.3,5.6-4.5,5.6
			c-0.3-0.2-0.3-1-0.9-0.9c0,0,0,0-0.2,0c-0.3,0.2-0.2,0.5-0.5,0.7c-0.7,0.5-1.7,0.3-2.3,1c0,0-1.4,2.1-1.6,4.7c0,0.3,0,1.6-0.2,1.9
			c-0.5,1-1.9,1.4-2.4,2.3l-2.3,7.5c0.3,0.3,1.6,1.6,6.8-3.8c1.2-1.2,3.1-4.9,4.7-7.8c0.2-0.3,0.2-0.3,1.9-2.8
			c0.2-0.2,0.5-0.3,0.9-0.5c0.9-0.5,0.9-0.5,1.2-1.9c0.5-1.9,0.5-1.9,0.9-1.9l0,0l0,0l0,0l0,0l0,0l0,0l0,0l0,0h0.2
			c0.9-1.4,1.2-3,2.1-4.3C203.5,445.7,202.5,443.4,202,443.6z"/>
		
			<radialGradient id="SVGID_24_" cx="129.9536" cy="50.615" r="1.136432e-002" gradientTransform="matrix(1.7367 0 0 -1.7367 0 549.2031)" gradientUnits="userSpaceOnUse">
			<stop  offset="0" style="stop-color:#53C1E9"/>
			<stop  offset="1" style="stop-color:#004A9F"/>
		</radialGradient>
		<path fill="url(#SVGID_24_)" d="M225.8,461.3L225.8,461.3C225.8,461.3,225.6,461.3,225.8,461.3
			C225.6,461.3,225.6,461.3,225.8,461.3z"/>
		
			<radialGradient id="SVGID_25_" cx="100.5382" cy="94.3223" r="0.9881" gradientTransform="matrix(1.7367 0 0 -1.7367 0 549.2031)" gradientUnits="userSpaceOnUse">
			<stop  offset="0" style="stop-color:#53C1E9"/>
			<stop  offset="1" style="stop-color:#004A9F"/>
		</radialGradient>
		<path fill="url(#SVGID_25_)" d="M176.8,385.9c0-0.2,0-0.5-0.3-0.9c0,0,0,0-1.2-0.3c-0.2,0-0.2-0.3-0.3-0.5c-0.2,0-0.2,0-0.3,0
			c-0.5,0.2-1,0.5-1.6,1.2c-0.7,0.7-0.5,0.7-0.3,0.9C173.5,386.6,176.6,386.4,176.8,385.9z"/>
		
			<radialGradient id="SVGID_26_" cx="105.7753" cy="142.5135" r="0" gradientTransform="matrix(1.7367 0 0 -1.7367 0 549.2031)" gradientUnits="userSpaceOnUse">
			<stop  offset="0" style="stop-color:#53C1E9"/>
			<stop  offset="1" style="stop-color:#004A9F"/>
		</radialGradient>
		<path fill="url(#SVGID_26_)" d="M183.7,301.7L183.7,301.7L183.7,301.7z"/>
		
			<radialGradient id="SVGID_27_" cx="108.3089" cy="141.3043" r="0" gradientTransform="matrix(1.7367 0 0 -1.7367 0 549.2031)" gradientUnits="userSpaceOnUse">
			<stop  offset="0" style="stop-color:#53C1E9"/>
			<stop  offset="1" style="stop-color:#004A9F"/>
		</radialGradient>
		<path fill="url(#SVGID_27_)" d="M188.1,303.8L188.1,303.8L188.1,303.8L188.1,303.8L188.1,303.8L188.1,303.8L188.1,303.8
			L188.1,303.8L188.1,303.8L188.1,303.8L188.1,303.8L188.1,303.8z"/>
		
			<radialGradient id="SVGID_28_" cx="58.9971" cy="143.1074" r="0.1534" gradientTransform="matrix(1.7367 0 0 -1.7367 0 549.2031)" gradientUnits="userSpaceOnUse">
			<stop  offset="0" style="stop-color:#53C1E9"/>
			<stop  offset="1" style="stop-color:#004A9F"/>
		</radialGradient>
		<path fill="url(#SVGID_28_)" d="M102.6,300.5L102.6,300.5c-0.2,0-0.2,0.2-0.3,0.2c-0.2,0-0.2,0.2-0.2,0.3
			C102.3,300.7,102.6,300.7,102.6,300.5C102.8,300.5,102.6,300.5,102.6,300.5z"/>
		
			<radialGradient id="SVGID_29_" cx="109.0065" cy="140.9885" r="0.5266" gradientTransform="matrix(1.7367 0 0 -1.7367 0 549.2031)" gradientUnits="userSpaceOnUse">
			<stop  offset="0" style="stop-color:#53C1E9"/>
			<stop  offset="1" style="stop-color:#004A9F"/>
		</radialGradient>
		<path fill="url(#SVGID_29_)" d="M188.1,303.8l0.5,0.3c0.5,0.3,1,0.5,1.7,0.9C189.6,304.5,189.6,304.5,188.1,303.8z"/>
		
			<radialGradient id="SVGID_30_" cx="50.5962" cy="140.529" r="0.2649" gradientTransform="matrix(1.7367 0 0 -1.7367 0 549.2031)" gradientUnits="userSpaceOnUse">
			<stop  offset="0" style="stop-color:#53C1E9"/>
			<stop  offset="1" style="stop-color:#004A9F"/>
		</radialGradient>
		<path fill="url(#SVGID_30_)" d="M87.4,305.5c0.3-0.2,0.7-0.5,1-0.7C87.5,305.2,87.4,305.3,87.4,305.5z"/>
		
			<radialGradient id="SVGID_31_" cx="64.972" cy="145.4756" r="0.4012" gradientTransform="matrix(1.7367 0 0 -1.7367 0 549.2031)" gradientUnits="userSpaceOnUse">
			<stop  offset="0" style="stop-color:#53C1E9"/>
			<stop  offset="1" style="stop-color:#004A9F"/>
		</radialGradient>
		<path fill="url(#SVGID_31_)" d="M111.8,296.8C112,296.8,112,296.8,111.8,296.8L111.8,296.8c0.5,0,0.5,0,0.9-0.2
			c0.3-0.2,0.3-0.2,0.5-0.2l0,0l0.3-0.2l0,0l0,0h-0.2c-0.2,0-0.5,0.2-0.7,0.2l0.2-0.2c0,0,0,0-0.2,0.2c0,0,0.2,0,0.2-0.2l0,0l0,0
			l-0.3,0.2h-0.2c-0.2,0-0.2,0-0.2,0l0,0l0,0C112.2,296.7,112.2,296.7,111.8,296.8C112,296.7,111.8,296.8,111.8,296.8L111.8,296.8
			L111.8,296.8z"/>
		
			<radialGradient id="SVGID_32_" cx="106.1571" cy="133.5235" r="0.6012" gradientTransform="matrix(1.7367 0 0 -1.7367 0 549.2031)" gradientUnits="userSpaceOnUse">
			<stop  offset="0" style="stop-color:#53C1E9"/>
			<stop  offset="1" style="stop-color:#004A9F"/>
		</radialGradient>
		<path fill="url(#SVGID_32_)" d="M183.4,316.3c-0.2,0-0.2,0.2-0.2,0.3c0,0,0,0-0.2-0.2c0.5,1,1,1.6,1,1.6s1,0.3,1,0
			c0-0.2-0.2-0.3-0.2-0.5C185,317.2,183.9,316.3,183.4,316.3z"/>
		<g>
			
				<linearGradient id="SVGID_33_" gradientUnits="userSpaceOnUse" x1="71.6549" y1="139.2546" x2="82.6821" y2="146.3575" gradientTransform="matrix(1.7367 0 0 -1.7367 0 549.2031)">
				<stop  offset="0" style="stop-color:#53C1E9"/>
				<stop  offset="0.8817" style="stop-color:#2792CE"/>
			</linearGradient>
			<path fill="url(#SVGID_33_)" d="M137,294.2c0.7,1.6,1,2.3,1.7,2.8c0.5,0.3,0.7,0.3,3,0.9c0.9,0.2,1.7,0.7,2.6,1
				c0.5,0.2,1.4,0.5,4.9-0.2c-0.7-1-1.9-1.9-2.3-3.3c-0.3-1.2,0.9-2.1,0.7-3.1c0-0.2,0-0.2,0-0.3c-0.2,0-0.3,0-0.3,0s0,0-0.2,0
				c-0.9,0-1.2,0.3-1.7,0.9c-0.3,0.3-0.7,0.5-1,0.5c-1.7,0.2-2.8-1.6-4.3-1.6c0,0.2,0.2,0.2,0.2,0.3c0.2,1-0.3,1.4-1.4,1.6
				c-0.5-0.5-1.2-0.9-1.7-1.4c-0.3,0-0.7,0-1,0.2c0.5,1.6,0.5,1.6,0.9,2.1C136.8,294.6,136.8,294.4,137,294.2z"/>
			
				<linearGradient id="SVGID_34_" gradientUnits="userSpaceOnUse" x1="73.5582" y1="136.2969" x2="84.5865" y2="143.4003" gradientTransform="matrix(1.7367 0 0 -1.7367 0 549.2031)">
				<stop  offset="0" style="stop-color:#53C1E9"/>
				<stop  offset="0.8817" style="stop-color:#2792CE"/>
			</linearGradient>
			<path fill="url(#SVGID_34_)" d="M128.9,302c2.1-0.2,3.6,0.9,3.8,2.4c0,0.2,0,1.4-3.1,2.8c0,0-0.2,0.2-0.2,0.3
				c0.2,0.2,0.2,0.2,0.5,0.2l0,0l-0.2,0.3c2.3-0.2,3.1-0.2,4.5-0.3c-1.7,1.7-2.1,2.8-1.2,4.7c1,0,1.9,0.2,3,0
				c-0.2,0.7-0.7,1.6-3.8,1.4c1.4,3.3,3.1,4.7,4,5.4c3.1-0.9,3.8-2.3,3.6-6.9c0-3.5,0.2-4.2,1.6-5c0.7,0.7,2.8,3,3.8,5.4
				c0.3,0.9,0.7,1.2,0.9,1.4c0.2,0.2,3,1,3.1-1.6c0-0.9-0.2-1.9-0.3-2.6c-1.2-4.9-2.6-5.4-7.5-6.8c-0.2,0-0.3,0-0.5-0.2
				c-1.6-1.2-1.7-3.5-3.3-4.5c-1.4-0.9-2.4-1-3.1-1.2c-1.2-0.2-1.4-0.3-1.7-1.2c-0.2,0-0.3,0-0.5,0c-0.3,0-0.3,0-3.5,0.9
				c0.2,0.5,0.2,1.2,0.5,1.9c-0.3-0.2-0.7-0.5-1-0.7c-0.9,0.9-1.2,2.3-2.1,3.1c-0.3,0.3-1,0.5-1.6,0.5
				C124.9,302.2,124.9,302.2,128.9,302z"/>
		</g>
		
			<radialGradient id="SVGID_35_" cx="74.868" cy="118.749" r="0.2019" gradientTransform="matrix(1.7367 0 0 -1.7367 0 549.2031)" gradientUnits="userSpaceOnUse">
			<stop  offset="0" style="stop-color:#53C1E9"/>
			<stop  offset="1" style="stop-color:#004A9F"/>
		</radialGradient>
		<path fill="url(#SVGID_35_)" d="M130.1,342.9c-0.2,0-0.3,0.2-0.5,0.2c0.3,0,0.7,0,1,0C130.2,342.9,130.2,342.9,130.1,342.9z"/>
		<path fill="none" d="M139.3,364c-48.1,0-87.2,8.7-87.2,19.6h174.2C226.5,372.9,187.4,364,139.3,364z"/>
		
			<linearGradient id="SVGID_36_" gradientUnits="userSpaceOnUse" x1="9.7887" y1="88.0135" x2="150.9184" y2="88.0135" gradientTransform="matrix(1.7367 0 0 -1.7367 0 549.2031)">
			<stop  offset="6.990000e-002" style="stop-color:#53C1E9"/>
			<stop  offset="1" style="stop-color:#004A9F"/>
		</linearGradient>
		<path fill="url(#SVGID_36_)" d="M59.6,484c0.5,0.3,0.9,0.7,1.4,1.2c0.3,0.2,0.7,0.5,0.9,0.7c0.5,0.3,1,0.9,1.4,1.2
			c0.3,0.2,0.5,0.5,0.9,0.7c0.7,0.5,1.2,0.9,1.9,1.4c0.2,0.2,0.3,0.2,0.5,0.3c0.9,0.5,1.6,1.2,2.4,1.7l0.2,0.2
			c0.7,0.5,1.4,1,2.3,1.6c0.2,0.2,0.5,0.3,0.7,0.5c0.7,0.3,1.2,0.9,1.9,1.2c0.2,0.2,0.5,0.3,0.7,0.5c0.5,0.3,1.2,0.7,1.7,1
			c0.2,0,0.2,0.2,0.3,0.2l0,0c18.4,10.9,39.8,17.2,62.9,17.2c23.8,0,46-6.8,64.8-18.6l0,0c0.2-0.2,0.3-0.2,0.3-0.3
			c0.5-0.3,1.2-0.7,1.7-1c0.3-0.2,0.5-0.3,0.9-0.5c0.5-0.3,1-0.7,1.7-1c0.3-0.2,0.5-0.3,0.9-0.5c0.5-0.3,1-0.7,1.6-1.2
			c0.2-0.2,0.5-0.3,0.7-0.5c0.5-0.3,1-0.9,1.7-1.2c0.2-0.2,0.5-0.3,0.7-0.5c0.5-0.5,1.2-0.9,1.7-1.4c0.2-0.2,0.3-0.3,0.5-0.3
			c1.6-1.2,3.1-2.6,4.5-3.8c0,0,0.2-0.2,0.3-0.2c0.5-0.5,1.2-1,1.7-1.6l0,0c17.9-16.8,30.7-38.9,36.1-63.7c0.2-0.7,0.3-1.2,0.3-1.9
			c0-0.3,0.2-0.5,0.2-0.9c1.4-7.5,2.1-14.9,2.1-22.8c0-50.4-30.4-93.6-73.6-112.5c34,17.7,57.3,53.3,57.3,94.5
			c0,58.7-47.6,106.3-106.3,106.3S33.3,432.3,33.3,373.6c0-41,23.3-76.8,57.3-94.5C47.2,297.7,17,340.9,17,391.3
			c0,8,0.7,15.6,2.3,23.3c0,0.2,0.2,0.5,0.2,0.7c0.2,0.7,0.3,1.2,0.3,1.9c5.4,24.7,18.2,46.7,36.1,63.4l0,0c0.2,0.2,0.3,0.3,0.5,0.5
			c0.3,0.3,0.7,0.5,0.9,0.9"/>
		
			<linearGradient id="SVGID_37_" gradientUnits="userSpaceOnUse" x1="6.6793" y1="11.9785" x2="155.5248" y2="11.9785" gradientTransform="matrix(1.7367 0 0 -1.7367 0 549.2031)">
			<stop  offset="6.990000e-002" style="stop-color:#53C1E9"/>
			<stop  offset="1" style="stop-color:#004A9F"/>
		</linearGradient>
		<path fill="url(#SVGID_37_)" d="M11.6,545c0,0,45-14.6,129.2-14.6S270.1,545,270.1,545s-35.4-33.2-129.2-33.2S11.6,545,11.6,545z"
			/>
		<path fill="#ABAAAA" d="M118.6,260.9l29.7-8.2c11.8-3.3,37.9,3.1,2.8,13.2l-17.5,5c1.7,2.3,3,4,4.7,6.3l2.1-0.7
			c3-1,4.2,2.4,2.3,3.3l-1.6,0.9l5.6,7.8l-5.9,1.6l-25-14.1l-28.3,7.5l5.9,3.5l-2.6,1L71,277.9l3.1-1.6l4.3,2.3l0.7-13.5l2.6-1.2
			l5,10.2l12.2-4.9c-11.1-6.3-22.2-12.5-33.3-18.8l5.2-3.5l23.8,6.9l2.4-1.7c4.2-3.1,6.4,1,4.7,2.3l-1.4,1L118.6,260.9z"/>
	</g>
	<g>
		<g>
			<path d="M294.5,381.6c0-4.3,3.5-7.8,7.8-7.8s7.8,3.5,7.8,7.8s-3.5,7.8-7.8,7.8S294.5,385.9,294.5,381.6z"/>
			<path d="M294.5,409.5c0-4.3,3.5-7.8,7.8-7.8s7.8,3.5,7.8,7.8s-3.5,7.8-7.8,7.8C298,417.4,294.5,413.9,294.5,409.5z"/>
			<rect x="333.8" y="395.3" fill="none" width="6.1" height="12.7"/>
			<rect x="333.8" y="374.6" fill="none" width="6.1" height="10.9"/>
			<rect x="333.8" y="419.3" fill="none" width="6.1" height="12.9"/>
			<path d="M333.8,419.3h6.1v12.9h10.4v-57.5h2.3V363H344l7.1-7.8v-9.7h-29.7v11.1h15.1l-5.2,6.4H320v11.6h3.3v57.5H334L333.8,419.3
				L333.8,419.3z M333.8,374.6h6.1v10.9h-6.1V374.6z M333.8,395.3h6.1V408h-6.1V395.3z"/>
			<path d="M401.2,371.3v-13h-33.3v-12.7H357c0,0,0.5,17.9-2.6,17.7V375h3.3c1.6,0,2.6-0.2,3.5-0.7c0.9-0.3,3.6-3,3.6-3h7.1
				l-3.8,14.2l-2.1-6.9h-11.3l7.3,25.5c0,0-5,30.2-7.1,31.4c-0.7,0.3-1.6,0.7-2.8,0.7l-28.7-0.2v10.1h27.1h3.8
				c2.6,0,4.9-0.5,7.1-1.2c2.3-0.9,3.6-3,4.2-6.4l2.6-15.5l4,17.2c0.5,1.9,1.2,3.3,2.4,4.3c1,1,3.3,1.7,6.4,1.7h6.9V436h-4.2
				c-2.1,1.4-9.9-34.4-9.9-34.4l8.9-30.4L401.2,371.3L401.2,371.3z"/>
			<path d="M300.3,436.1v-9.4v-11.1v-11.8V387v-29.5h5.9V387v16.8v11.8v11.1v5.4h11.1v-86.7h-28.1v100.7H317c0,0-0.2-9.2,0-10.1
				h-16.7V436.1z"/>
			<rect x="567.9" y="357.6" fill="none" width="25.7" height="10.4"/>
			<path d="M608.5,411.8c-2.6,0-4.7-0.7-6.1-2.3c-1.4-1.6-2.8-3.8-4.2-6.9c2.6-1,4.7-2.1,5.9-3.1s2.1-2.4,2.6-4.2
				c0.5-1.7,0.9-3.8,0.9-6.3v-43.6h-73.3v12h20v10.4h-25.2v-10.4l0,0v-12H515v57.1h12.3l-2.8,6.4c-1.6,3.6-4.7,5.4-9.6,5.4h-3.8
				v11.5h6.6c3.6,0,6.4-0.3,8.3-0.9c1.9-0.5,3.5-1.6,4.9-3s3-3.5,4.7-6.3v13.7c0,3.8-1,5.7-3.3,5.7H516v11.6h14.2
				c4.7,0,8.2-0.3,10.6-0.7c2.4-0.5,4.5-1.6,6.3-3.3c1.9-1.7,2.8-4.9,2.8-9.7v-23.6l-10.4-0.2l2.1-6.9H583l4.3,6.9l-8,0.2v36.8h14.2
				v-28.7l2.6,3c0.7,1,2.1,1.9,4.2,2.4c2.1,0.7,4.5,0.9,7.6,0.9h3.8v-12.3h-3.3v0.4H608.5z M529.2,391v-11.6h25.2v8.9h13.7v-9h25.7
				v7.5c0,1.6-0.3,2.6-1,3.3s-1.7,1-3.3,1 M593.6,367.9h-25.7v-10.4h25.7V367.9z"/>
			<path d="M422.7,434.9c-1.7,0-3-0.3-3.8-0.9c-0.7-0.7-1-2.6-1-5.7v-57h12v54.2h14.2v-12.9l0,0v-41.3H480v32.8
				c0,3.8-0.5,6.3-1.4,7.1c-0.9,0.9-3.3,1.4-7.1,1.4h-22.6v12.9h30c7.5,0,11.8-1.9,13.2-5.6c1.4-3.6,2.1-7.5,2.1-11.1v-37.5h4.7v-13
				h-4.7v-12.7h-14.4v12.7h-35.9v-12.7h-14.2v12.7h-12v-12.7h-14.4v12.7h-3.6v13h3.6v58.9c0,6.1,0.7,8.7,1.9,10.8
				c1.2,2.1,3.1,3.5,5.6,4.3c2.4,0.7,5.4,1.2,9,1.2l97.9,0.2v-11.5L422.7,434.9L422.7,434.9z"/>
		</g>
		<g display="none">
			<path display="inline" d="M299.1,487.2l-6.3-14.9c-0.3-1-0.9-1.7-1.6-2.3c-0.5-0.5-1.4-0.9-2.3-1v-1.6h10.9v1.6
				c-0.5,0.2-1,0.3-1.2,0.5s-0.3,0.5-0.3,0.9c0,0.2,0,0.3,0.2,0.7c0,0.2,0.2,0.5,0.3,0.9l3.5,8.2l3.6-8.2c-0.3-1-0.7-1.7-1-2.3
				c-0.3-0.3-1-0.7-1.7-0.9v-1.6h10.4v1.6c-0.9,0.2-1.4,0.2-1.7,0.5c-0.3,0.2-0.5,0.5-0.5,1c0,0.2,0,0.3,0.2,0.7
				c0,0.2,0.2,0.5,0.3,0.9l3.5,8.2l3.1-7.6c0.2-0.3,0.2-0.7,0.3-0.9c0-0.3,0.2-0.5,0.2-0.9c0-0.5-0.2-1-0.7-1.2s-1-0.5-2.1-0.7v-1.6
				h8.7v1.6c-1,0.2-1.9,0.5-2.4,1s-1.2,1.6-1.9,3.1l-5.7,13.9h-2.8l-5.2-12.2l-5,12.2L299.1,487.2L299.1,487.2z"/>
			<path display="inline" d="M333.1,487.2l-6.3-14.9c-0.3-1-0.9-1.7-1.6-2.3c-0.5-0.5-1.4-0.9-2.3-1v-1.6H334v1.6
				c-0.5,0.2-1,0.3-1.2,0.5s-0.3,0.5-0.3,0.9c0,0.2,0,0.3,0.2,0.7c0,0.2,0.2,0.5,0.3,0.9l3.5,8.2l3.6-8.2c-0.3-1-0.7-1.7-1-2.3
				c-0.3-0.3-1-0.7-1.7-0.9v-1.6h10.4v1.6c-0.9,0.2-1.4,0.2-1.7,0.5c-0.3,0.2-0.5,0.5-0.5,1c0,0.2,0,0.3,0.2,0.7s0.2,0.5,0.3,0.9
				l3.5,8.2l3.1-7.6c0.2-0.3,0.2-0.7,0.3-0.9c0-0.3,0.2-0.5,0.2-0.9c0-0.5-0.2-1-0.7-1.2s-1-0.5-2.1-0.7v-1.6h8.7v1.6
				c-1,0.2-1.9,0.5-2.4,1s-1.2,1.6-1.9,3.1l-5.7,13.9h-2.8l-5.2-12.2l-5,12.2L333.1,487.2L333.1,487.2z"/>
			<path display="inline" d="M367.1,487.2l-6.3-14.9c-0.3-1-0.9-1.7-1.6-2.3c-0.5-0.5-1.4-0.9-2.3-1v-1.6H368v1.6
				c-0.5,0.2-1,0.3-1.2,0.5s-0.3,0.5-0.3,0.9c0,0.2,0,0.3,0.2,0.7c0,0.2,0.2,0.5,0.3,0.9l3.5,8.2l3.6-8.2c-0.3-1-0.7-1.7-1-2.3
				c-0.3-0.3-1-0.7-1.7-0.9v-1.6h10.4v1.6c-0.9,0.2-1.4,0.2-1.7,0.5c-0.3,0.2-0.5,0.5-0.5,1c0,0.2,0,0.3,0.2,0.7
				c0,0.2,0.2,0.5,0.3,0.9l3.5,8.2l3.1-7.6c0.2-0.3,0.2-0.7,0.3-0.9c0-0.3,0.2-0.5,0.2-0.9c0-0.5-0.2-1-0.7-1.2s-1-0.5-2.1-0.7v-1.6
				h8.7v1.6c-1,0.2-1.9,0.5-2.4,1s-1.2,1.6-1.9,3.1l-5.7,13.9h-2.6l-5.2-12.2l-5,12.2L367.1,487.2L367.1,487.2z"/>
			<path display="inline" d="M391.4,483.9c0-0.9,0.3-1.6,1-2.3c0.7-0.7,1.4-0.9,2.3-0.9s1.7,0.3,2.3,0.9c0.7,0.7,0.9,1.4,0.9,2.3
				s-0.3,1.7-0.9,2.3c-0.7,0.7-1.4,1-2.3,1s-1.7-0.3-2.3-1C392,485.4,391.4,484.7,391.4,483.9z"/>
			<path display="inline" d="M409,487.2l-6.3-14.9c-0.3-1-0.9-1.7-1.6-2.3c-0.5-0.5-1.4-0.9-2.3-1v-1.6h10.9v1.6
				c-0.5,0.2-1,0.3-1.2,0.5s-0.3,0.5-0.3,0.9c0,0.2,0,0.3,0.2,0.7c0,0.2,0.2,0.5,0.3,0.9l3.5,8.2l3.6-8.2c-0.3-1-0.7-1.7-1-2.3
				c-0.3-0.3-1-0.7-1.7-0.9v-1.6h10.4v1.6c-0.9,0.2-1.4,0.2-1.7,0.5c-0.3,0.2-0.5,0.5-0.5,1c0,0.2,0,0.3,0.2,0.7
				c0,0.2,0.2,0.5,0.3,0.9l3.5,8.2l3.1-7.6c0.2-0.3,0.2-0.7,0.3-0.9c0-0.3,0.2-0.5,0.2-0.9c0-0.5-0.2-1-0.7-1.2s-1-0.5-2.1-0.7v-1.6
				h8.7v1.6c-1,0.2-1.9,0.5-2.4,1s-1.2,1.6-1.9,3.1l-5.7,13.9H422l-5.2-12.2l-5,12.2L409,487.2L409,487.2z"/>
			<path display="inline" d="M450.3,461.8c0-0.9-0.2-1.4-0.5-1.7c-0.3-0.3-1-0.7-2.3-0.9v-1.6l7.6-2.6h1v25.2c0,0.9,0.2,1.4,0.5,1.7
				c0.3,0.3,1,0.7,2.3,0.9v1.6l-7.6,2.6h-1v-3.5c-1.6,1-3,1.9-4.2,2.4s-2.3,0.9-3.3,0.9c-2.3,0-4-0.9-5.6-2.4
				c-1.4-1.7-2.1-3.8-2.1-6.4c0-3.1,1-5.7,3.1-7.8c2.1-2.1,4.5-3.1,7.5-3.1c0.5,0,1,0,1.6,0.2c0.7,0.2,1.6,0.3,2.8,0.5L450.3,461.8
				L450.3,461.8z M450.3,471c-0.9-0.7-1.7-1.2-2.4-1.6c-0.7-0.3-1.4-0.5-2.1-0.5c-1.4,0-2.6,0.7-3.5,1.9c-0.9,1.2-1.4,3-1.4,5
				c0,2.4,0.3,4.2,1.2,5.6c0.9,1.4,2.1,2.1,3.5,2.1c0.7,0,1.4-0.2,2.1-0.5s1.6-0.9,2.4-1.4V471H450.3z"/>
			<path display="inline" d="M464.6,469.8H462v-2.1c1.2-0.7,2.3-1.4,3.3-2.4s1.9-2.3,2.8-3.8h1.7v5.9h6.4l-0.3,2.4H470v7.6
				c0,3,0.2,4.9,0.3,5.7c0.3,0.7,0.9,1,1.6,1c0.3,0,0.9-0.2,1.4-0.5s1.2-0.9,1.9-1.6l1,1.7c-1,1-2.1,1.7-3.1,2.3
				c-1,0.5-2.3,0.7-3.5,0.7c-2.1,0-3.5-0.7-4.2-1.9c-0.7-1.2-1.2-3.8-1.2-7.6L464.6,469.8L464.6,469.8z"/>
			<path display="inline" d="M486.6,472.1l1.6-2.8c0.5-0.9,0.9-1.4,1.4-1.7c0.5-0.3,1-0.5,1.6-0.5c0.3,0,0.7,0,1.2,0.2
				c0.3,0.2,0.9,0.2,1.4,0.3l2.1,0.9l-2.3,4.7l-1.7-0.9c-0.3-0.2-0.5-0.2-0.9-0.3c-0.3,0-0.7-0.2-1-0.2c-0.9,0-1.7,0.7-3,2.3
				l-0.2,0.2v7.6c0,1,0.2,1.7,0.5,2.3c0.3,0.3,1,0.5,2.1,0.5v1.6h-11.5v-1.6c1,0,1.7-0.2,2.1-0.5s0.5-1,0.5-2.3v-9
				c0-0.9-0.2-1.4-0.5-1.7c-0.3-0.3-1-0.7-2.3-0.9v-1.6l7.6-2.6h1L486.6,472.1L486.6,472.1z"/>
			<path display="inline" d="M505.5,482c0,1,0.2,1.7,0.5,2.3c0.3,0.5,1,0.5,2.1,0.5v1.6h-11.5v-1.6c1,0,1.7-0.2,2.1-0.5
				s0.5-1,0.5-2.3v-9c0-0.9-0.2-1.4-0.5-1.7c-0.3-0.3-1-0.7-2.3-0.9v-1.6l7.6-2.6h1L505.5,482L505.5,482z M499.1,459
				c0-0.9,0.3-1.7,0.9-2.3c0.7-0.7,1.4-0.9,2.3-0.9s1.7,0.3,2.3,0.9c0.7,0.7,0.9,1.4,0.9,2.3s-0.3,1.7-1,2.3c-0.7,0.7-1.4,1-2.3,1
				s-1.6-0.3-2.3-0.9C499.5,460.8,499.1,459.9,499.1,459z"/>
			<path display="inline" d="M518.9,492.6c0,1,0.2,1.7,0.5,2.1c0.3,0.3,1,0.5,2.3,0.7v1.6h-11.5v-1.6c1,0,1.7-0.2,2.1-0.5
				c0.3-0.3,0.5-1,0.5-2.3V473c0-0.9-0.2-1.4-0.5-1.7c-0.3-0.3-1-0.7-2.3-0.9v-1.6l7.6-2.6h1v4c1.6-1,2.8-1.9,4.2-2.4
				c1.2-0.5,2.4-0.9,3.3-0.9c2.3,0,4,0.9,5.6,2.4c1.4,1.7,2.1,3.8,2.1,6.4c0,1.4-0.3,2.8-0.9,4.2c-0.5,1.2-1.4,2.4-2.4,3.5
				c-1,1-2.1,1.9-3.3,2.4s-2.4,0.9-3.8,0.9c-0.7,0-1.4,0-2.3-0.2s-1.7-0.3-2.6-0.5v6.6H518.9z M518.9,482.7c0.9,0.7,1.6,1.2,2.4,1.6
				c0.7,0.3,1.4,0.5,2.1,0.5c1.4,0,2.6-0.7,3.5-1.9s1.4-3,1.4-5c0-2.4-0.3-4.2-1.2-5.6s-2.1-2.1-3.5-2.1c-0.7,0-1.4,0.2-2.3,0.5
				c-0.7,0.3-1.6,0.9-2.4,1.4V482.7z"/>
			<path display="inline" d="M538.2,483.9c0-0.9,0.3-1.6,1-2.3c0.7-0.7,1.4-0.9,2.3-0.9s1.7,0.3,2.3,0.9c0.5,0.5,0.9,1.4,0.9,2.3
				s-0.3,1.7-0.9,2.3c-0.7,0.7-1.4,1-2.3,1s-1.7-0.3-2.3-1C538.7,485.4,538.2,484.7,538.2,483.9z"/>
			<path display="inline" d="M556.6,472.2v9.9c0,1,0.2,1.7,0.5,2.1c0.3,0.3,1,0.7,1.9,0.7h0.2v1.6h-11.5v-1.6c1,0,1.7-0.2,2.1-0.5
				c0.3-0.3,0.5-1,0.5-2.3v-9c0-0.9-0.2-1.4-0.5-1.7c-0.3-0.3-1-0.7-2.3-0.9v-1.6l7.6-2.6h1v4.2c2.1-1.2,3.8-1.9,5.2-2.4
				s2.6-0.7,3.5-0.7c1.7,0,3,0.5,3.8,1.7c0.7,1.2,1.2,3.1,1.2,5.9c0,0.5,0,0.9,0,1.2s0,0.5,0,0.9l-0.2,4.2c0,0.2,0,0.3,0,0.5
				s0,0.3,0,0.5c0,1.2,0.2,2.1,0.5,2.4c0.3,0.5,1.2,0.7,2.3,0.9v1.6h-11.5v-1.6c1,0,1.7-0.3,2.3-1.2c0.3-0.7,0.7-2.3,0.7-4.3V477
				v-0.7c0-1.9-0.2-3.1-0.7-3.8c-0.3-0.7-1.2-1-2.3-1c-0.7,0-1.4,0.2-2.3,0.5C558.5,471.2,557.6,471.5,556.6,472.2z"/>
			<path display="inline" d="M594.1,481.8c-1.4,1.7-3,3.1-4.3,4c-1.6,0.9-3.1,1.2-4.9,1.2c-2.8,0-5-0.9-6.8-2.8
				c-1.7-1.9-2.6-4.2-2.6-6.9c0-3,1-5.6,3-7.5c1.9-2.1,4.5-3,7.5-3c1.9,0,3.6,0.5,5,1.6c1.4,1,2.4,2.4,2.8,4.2c0,0.2,0,0.3,0.2,0.5
				c0.2,0.9,0.5,1.6,0.9,2.1v1.2h-13.2c0.2,2.4,0.7,4.2,1.7,5.6c1,1.2,2.4,1.9,4.3,1.9c1,0,2.1-0.2,3-0.7s1.7-1.2,2.8-2.3
				L594.1,481.8z M581.4,474.8h6.9c0-1.9-0.3-3.3-0.9-4.2c-0.5-1-1.4-1.4-2.6-1.4s-2.1,0.5-2.6,1.4
				C581.6,471.5,581.4,472.9,581.4,474.8z"/>
			<path display="inline" d="M600.2,469.8h-2.4v-2.1c1.2-0.7,2.3-1.4,3.3-2.4s1.9-2.3,2.8-3.8h1.7v5.9h6.4l-0.3,2.4h-5.9v7.6
				c0,3,0.2,4.9,0.3,5.7c0.3,0.7,0.9,1,1.6,1c0.3,0,0.9-0.2,1.4-0.5s1.2-0.9,1.9-1.6l1,1.7c-1,1-2.1,1.7-3.1,2.3
				c-1,0.5-2.3,0.7-3.5,0.7c-2.1,0-3.5-0.7-4.2-1.9c-0.7-1.2-1.2-3.8-1.2-7.6v-7.5L600.2,469.8L600.2,469.8z"/>
		</g>
	</g>
</g>
<rect x="-205.1" y="-335" fill="none" width="1033.8" height="1462.1"/>
<rect x="288.3" y="457.1" fill="none" width="323.7" height="39.9"/>
<text id="WWW.WDTRIP.NET" transform="matrix(1 0 0 1 288.286 486.9289)" font-family="'Arial-BoldMT'" font-size="34.7333">WWW.WDTRIP.NET</text>
</svg>
